<?xml version="1.0" standalone="no"?>
<!DOCTYPE svg PUBLIC "-//W3C//DTD SVG 1.1//EN" "http://www.w3.org/Graphics/SVG/1.1/DTD/svg11.dtd" >
<svg xmlns="http://www.w3.org/2000/svg">
<metadata></metadata>
<defs>
<font id="komika_displayregular" horiz-adv-x="1507" >
<font-face units-per-em="2048" ascent="1638" descent="-410" />
<missing-glyph horiz-adv-x="714" />
<glyph horiz-adv-x="0" />
<glyph unicode="&#xd;" horiz-adv-x="1024" />
<glyph unicode=" "  horiz-adv-x="714" />
<glyph unicode="&#x09;" horiz-adv-x="714" />
<glyph unicode="&#xa0;" horiz-adv-x="714" />
<glyph unicode="!" horiz-adv-x="899" d="M27 141q0 -18 10 -39q6 -23 27.5 -50t48.5 -44h6q43 -12 94 -12q33 0 57.5 2t40.5 4q27 6 54.5 21.5t49 37t38 45t22.5 46.5q2 8 3 17t1 24q0 57 -51 96l-113 67q2 -2 -11 -4t-30.5 -5t-31 -5t-11.5 -4q-70 -14 -119 -51t-69 -94q-16 -20 -16 -52zM215 563q1 -53 21 -80 l165 -71q27 10 52.5 31.5t46 46t34 50t15.5 44.5q2 8 27.5 77.5t60.5 169t77 214t77.5 215t62.5 171t33 80.5q14 16 14 37q0 16 -9 33.5t-22 30.5l-6 4q-39 41 -76.5 55.5t-76.5 14.5q-10 0 -26.5 -2.5t-37.5 -6.5q-51 -10 -84 -34.5t-53.5 -58.5t-32.5 -75t-22 -82 q-45 -186 -102.5 -358t-110.5 -352q-2 -8 -6.5 -25.5t-9.5 -39t-8 -45t-3 -44.5z" />
<glyph unicode="&#x22;" horiz-adv-x="688" d="M69 1010q-3 -23 2 -43.5t18 -36t42 -19.5h14q47 0 93.5 50t66.5 124l82 238q2 4 2 10q0 8 2 13l8 50t-2 46.5t-25.5 36t-58.5 14.5q-68 0 -104.5 -47t-52.5 -111q-4 -6 -3 -12t-3 -14l-58 -215q-6 -12 -8 -17.5t-8 -25.5q-4 -18 -7 -41zM395 958.5q4 -20.5 19.5 -33 t44.5 -14.5h8q59 0 102 55.5t64 133.5l-2 2l65 219l9 29q4 10 5 19t5 17q6 20 7 40t-7 35.5t-26.5 23.5t-51.5 8q-43 0 -70.5 -15.5t-45 -41t-28 -57t-18.5 -64.5l-63 -228l-4 -26q-8 -31 -12.5 -56.5t-0.5 -46z" />
<glyph unicode="#" horiz-adv-x="1181" d="M6 926q0 -29 10.5 -53.5t26.5 -49.5q10 -16 30.5 -30.5t46 -24.5t51.5 -17.5t46 -7.5h21q23 0 37 3.5t24 3.5q-6 -10 -6 -54v-10h-25q-6 2 -16 2h-31q-10 2 -18 3t-25 1q-51 0 -90 -24h2q-57 -37 -57 -103q0 -51 41 -98q37 -47 90 -53q31 -2 59.5 -3t48.5 -3h2 q8 -37 13.5 -68t9.5 -55q10 -49 47 -86q47 -47 86 -47q74 0 102 92l-2 -2q16 53 17 98q0 10 -1 20.5t-3 20.5l-4 18q51 14 198 15q20 0 21 -17q0 -4 -1 -11t-1 -15v-23q0 -16 2 -35.5t10 -48.5q6 -29 13 -44t12 -25q6 -10 21 -23.5t32.5 -26t34 -20.5t24.5 -8q18 0 39 12 t38 30.5t28.5 41t11.5 41.5v147q0 2 -1 10.5t-1 14.5q-2 2 -2 10h65q25 4 48.5 20.5t52.5 44.5q25 31 39 58.5t14 56.5q0 14 -8 33.5t-21.5 37t-31 29t-35.5 11.5h-146q-6 0 -6 16q0 12 6 37v6q41 10 81 14.5t81 8.5q23 4 42.5 15t35.5 40q35 47 35 82q0 41 -35 94 q-41 59 -94 59h-135q2 8 3 21.5t5 28.5q4 23 5 43t1 30q0 145 -131 146q-59 0 -90 -45q-33 -51 -35 -150q-2 -41 -6 -66.5t-8 -35.5q0 2 -35 2h-146v110q0 43 -1 66t-1 27q-25 125 -118 125q-98 0 -113 -113q-2 -10 -3 -21.5t-1 -23.5q-2 -4 -2 -25v-26q-4 -47 -6 -82 t-2 -64q-16 -6 -37 -6q-10 0 -32 2t-48 6q-35 8 -80 8q-119 0 -119 -118zM563 758q31 14 111 14q49 0 65 -6h-2v-18q0 -20 -10 -56h-133q-4 0 -9 -1t-10 -1q-2 -2 -10 -2v70h-2z" />
<glyph unicode="$" horiz-adv-x="1030" d="M6 623q0 -94 86 -156q23 -16 57.5 -33.5t86.5 -40.5q33 -14 50 -24.5t21 -14.5v-2h2q8 -18 8 -28v-168q0 -37 41 -90q39 -55 86 -56q45 0 86 60l-2 -2q35 53 35 90v192q0 -4 70 23q59 20 89 31l30 10q238 145 241 327q0 -2 1 3.5t3 15.5l-2 -2q2 8 3 14l6 16 q0 104 -46 175v-2q-35 68 -53 79h2q-92 82 -282 123q-41 2 -86 4t-86 7q-90 4 -91 14q0 14 35 43q39 39 68 41q190 31 237 31h15q57 0 92 10q25 8 51 69q20 43 21 70q0 55 -47.5 84t-96.5 29h-20q-18 0 -23 -2q-8 -2 -16 -2q-6 -2 -25 -2h-82v14q0 8 1 15t1 16q0 31 -3 66.5 t-16 65t-39 50t-71 20.5q-31 0 -67.5 -26.5t-42.5 -57.5v4q-4 -10 -5 -45.5t-1 -72.5v-47q0 -63 -19 -84q-35 -25 -59.5 -44.5t-42.5 -29.5q-154 -141 -154 -248q0 -96 68 -164q55 -63 244 -92q35 -6 71.5 -11t71.5 -9q33 -4 65.5 -9.5t69.5 -9.5q109 -29 109 -67 q0 -6 -15 -27q-43 -57 -84 -74q-63 -33 -110 -33t-81 6.5t-56 6.5q-4 0 -8.5 -1t-8.5 -1h-10q-23 0 -50.5 13t-57 31.5t-60.5 37t-57 30.5q-8 4 -17 4q-20 0 -40.5 -18t-43.5 -43q-47 -59 -47 -102z" />
<glyph unicode="%" horiz-adv-x="1990" d="M33 1022q0 -66 29.5 -125t76.5 -98q49 -41 114.5 -59.5t137.5 -18.5q53 0 107 6q92 18 157.5 47t124.5 57q12 6 22.5 11.5t22.5 9.5h-2q86 39 119 114.5t33 161.5q0 59 -12 113l-2 2q-12 55 -45 92t-76 61.5t-91.5 41t-93.5 30.5q-37 10 -67.5 13.5t-59.5 3.5 q-88 0 -159.5 -32t-129 -81t-101.5 -111.5t-77 -123.5q-29 -63 -28 -115zM242 2q0 -49 34.5 -76.5t88.5 -27.5q39 0 83 20.5t78 63.5q231 289 464 566t501 558q20 23 36.5 35t35.5 26q29 20 57.5 45t52 54.5t37.5 67.5t14 85v21q0 18 -2 22q-6 47 -43 67.5t-84 20.5 q-31 0 -62.5 -8t-53.5 -24q-102 -70 -170 -153t-135 -171q-37 -49 -76 -100.5t-86 -98.5v2q-16 -18 -37 -39.5t-39 -42.5q-43 -47 -85 -91t-77 -91l2 2q-78 -94 -135 -164.5t-105.5 -132t-92.5 -121t-95 -129.5q-16 -23 -33.5 -45t-35.5 -45q-37 -53 -37 -96zM354 1049 q0 39 15.5 65.5t37 47t47 34.5t46.5 27q6 4 24 4q20 0 46 -8.5t48.5 -22.5t39 -33.5t16.5 -40.5q0 -12 -6 -20l-2 -2q-14 -29 -45 -48.5t-68 -31.5t-75 -17.5t-64 -5.5q-23 0 -38.5 6.5t-19.5 24.5q0 4 -1 9t-1 12zM956 238q0 -86 48.5 -157t146.5 -99q92 -33 201 -33 q135 0 250.5 48t193.5 122q31 29 62.5 65.5t57.5 79.5t41 93.5t15 105.5q1 80 -26 139q-39 92 -125 125t-197 33q-61 0 -120.5 -6t-114.5 -15q-63 -8 -125 -35.5t-116 -70.5t-96 -99.5t-67 -123.5q-12 -47 -18 -83t-11 -89zM1249 340q0 27 11.5 53.5t29 50t40 40t46.5 24.5 q20 8 56 10t71 2h78q18 0 32.5 -12t24.5 -43q6 -18 7 -31q0 -53 -31 -105.5t-84 -74.5q-25 -10 -57.5 -20.5t-79.5 -10.5q-12 0 -31 3t-36 8.5t-30.5 10.5t-15.5 11q-16 23 -23.5 44.5t-7.5 39.5z" />
<glyph unicode="&#x26;" horiz-adv-x="1564" d="M16 434q0 -178 111 -295q119 -123 307 -123q319 0 488 156l-4 -2q31 25 62.5 58.5t66.5 74.5q35 45 58 79t40 56q33 78 55.5 133.5t34.5 94.5q0 4 -1 5t-1 3q0 16 18.5 19t44.5 3q10 0 21.5 1t23.5 3q119 0 174.5 42t55.5 114q0 100 -35 146.5t-109 46.5 q-35 0 -62.5 -5.5t-64.5 -9.5q-2 -2 -10 -2t-12 -2q-23 -2 -41 -3t-37 -1q-25 0 -48.5 1t-51.5 1q-113 0 -152 -88q-12 -37 -18 -59.5t-10 -38.5q0 -8 -9 -35q-31 -80 -51 -129t-31 -70q-31 -41 -57.5 -76.5t-48.5 -60.5q-4 -6 -6 -6q-90 -129 -295 -129q-39 0 -63.5 17.5 t-24.5 47.5q0 43 31 111q57 94 94 131q39 37 67.5 62.5t40.5 42.5q35 33 109 73q4 2 5 3t5 3q8 2 24.5 11.5t36 19.5t40 21.5t34.5 17.5q31 23 43.5 44.5t12.5 45.5q0 186 -170 187q-35 0 -127 -46l2 2q-33 -12 -51.5 -18t-24.5 -10q2 2 2 6q0 12 -5 32.5t-5 45.5 q0 33 17 66.5t77 62.5q47 23 92 28t84 5h53q33 0 82 -56q96 -96 148 -96q41 0 76.5 26.5t35.5 75.5q0 92 -84 189q-113 100 -182 112q-14 2 -34.5 7.5t-43 10.5t-44 9t-38.5 4q-57 0 -111.5 -16.5t-104.5 -43t-95 -60t-84 -66.5q-143 -125 -143 -318q0 -59 8 -108t35 -100 q0 -23 -17.5 -42.5t-38 -38t-39 -36t-20.5 -33.5q-111 -166 -111 -334z" />
<glyph unicode="'" horiz-adv-x="382" d="M69 1010q-3 -23 2 -43.5t18 -36t42 -19.5h14q47 0 93.5 50t66.5 124l82 238q2 4 2 10q0 8 2 13l8 50t-2 46.5t-25.5 36t-58.5 14.5q-68 0 -104.5 -47t-52.5 -111q-4 -6 -3 -12t-3 -14l-58 -215q-6 -12 -8 -17.5t-8 -25.5q-4 -18 -7 -41z" />
<glyph unicode="(" horiz-adv-x="784" d="M18 719q6 -82 19.5 -159t38 -149.5t63.5 -140t97 -133.5q6 -6 13 -12t13 -12q29 -33 45 -43q57 -43 125 -43q117 0 117 114q0 63 -70 152q-39 53 -65.5 90t-38.5 59q-27 53 -41.5 110.5t-14.5 117.5q0 170 84 450l-2 -2q4 4 7 17q16 29 22 51q10 25 19.5 44t21.5 36 q39 66 98.5 139.5t141.5 146.5h-2q25 33 39 71t14 79q0 137 -139 137q-35 0 -74 -19.5t-74 -47t-62.5 -60.5t-41.5 -59q-84 -78 -150 -203q-72 -127 -92 -233q-4 -18 -10 -38t-10 -38q-14 -45 -30 -101.5t-28 -114t-21.5 -111.5t-11.5 -95z" />
<glyph unicode=")" horiz-adv-x="798" d="M18 168q0 -70 32 -102.5t104 -32.5q27 0 49 8t39 18q12 10 32.5 35t38.5 41q14 12 27.5 24.5t26.5 22.5q39 53 66.5 88t48 61.5t34.5 46t27 42.5q14 23 25.5 59.5t35.5 77.5q35 61 60.5 141t43 172.5t29 193.5t17.5 204l-56 182q-16 33 -49 85t-69.5 104.5t-73.5 98.5 t-62 68q-23 23 -48 31t-52 8q-115 0 -115 -116q0 -59 29 -100.5t59 -76.5q4 -8 17 -20q14 -23 30.5 -49.5t34.5 -61.5q16 -68 34 -101.5t18 -70.5q4 -18 5 -34.5t1 -38.5q0 -43 -13.5 -114t-35.5 -175q-8 -12 -11.5 -31.5t-5.5 -38t-4 -35t-8 -22.5q-27 -72 -45.5 -116 t-30.5 -69.5t-21.5 -40t-17.5 -26.5q-6 -23 -45 -66t-84 -94t-81 -100t-36 -80z" />
<glyph unicode="*" horiz-adv-x="921" d="M0 1225q0 -68 51 -113q57 -49 121 -49q10 0 32.5 4t35.5 4q41 0 55 -20q10 -16 10 -64q0 -16 -1 -39.5t-1 -40.5q0 -98 86 -149q8 -8 45 -8q57 0 72 88q12 109 37 139q8 -4 30.5 -13.5t61.5 -27.5q70 -35 78 -35q33 0 54 26.5t21 57.5q0 41 -57 84q-63 45 -76 72 q41 10 80 17t78 18q82 24 82 114q0 113 -119 113q-10 0 -31.5 -2t-44 -4t-44 -4t-33.5 -2q-57 0 -80 28q-6 18 -11.5 48t-7.5 75q-2 49 -7 80t-11 47q-25 61 -94 62q-45 -4 -73 -38t-28 -77v-17q0 -18 3 -40.5t8 -51.5q-4 -16 -19 -16q-20 23 -38.5 42t-39.5 42 q-49 43 -102 43q-31 0 -53.5 -22.5t-22.5 -55.5q0 -37 55 -110q23 -27 42.5 -52.5t41.5 -52.5q-23 -23 -69 -22h-4q-37 0 -39 -3q-29 -6 -51.5 -27.5t-22.5 -47.5z" />
<glyph unicode="+" horiz-adv-x="1093" d="M0 838q0 -41 23 -90q37 -63 153 -64q12 0 40 2t44 2q76 0 76 -57q0 -35 -6 -96q-6 -66 -6 -97q0 -182 125 -182q51 0 73 25q8 10 19.5 38.5t25.5 75.5q20 76 31 123q12 72 51 123q45 61 111 61h184q57 0 98 50q33 38 33 104q0 94 -92 117q-123 16 -186 18q-92 6 -101 15 q-33 27 -32 84q0 14 3 37.5t6 50t6 50t3 38.5q0 150 -127 149q-86 0 -113 -98q-4 -23 -8 -65t-8 -101q-4 -47 -7 -80t-7 -55q-8 -57 -156 -58q-59 0 -100 -3t-64 -7q-92 -25 -92 -110z" />
<glyph unicode="," horiz-adv-x="460" d="M-55 -16q0 -47 32.5 -77t81.5 -30q18 0 43 9.5t45 31.5l-2 -4q6 6 27 33.5t45.5 62.5t50 70t41.5 57h8q4 27 5.5 37t1.5 21q0 29 -15.5 51t-42.5 43q-25 8 -37 10t-22 2h-10q-14 0 -26.5 -1t-33.5 -9v-2q-18 -14 -51 -61.5t-63.5 -98.5t-54 -94t-23.5 -51z" />
<glyph unicode="-" horiz-adv-x="1099" d="M57 563q0 -8 2 -12v-14q4 -16 11.5 -43t21.5 -43q16 -25 57 -33t101 -8q25 0 51.5 1t56.5 1q27 2 53.5 4t55.5 2h4q12 0 65.5 1t115 3t116.5 5t72 7h41q53 0 77.5 3t45.5 18q18 8 23 17t5 26q-10 23 -20.5 43t-20.5 28q-53 49 -135 62.5t-176 13.5h-88q-20 0 -42 -2 t-42 -2q-51 0 -110.5 -1t-113 -3t-93 -4t-50.5 -4h2q-41 -8 -63.5 -17.5t-22.5 -40.5v-8z" />
<glyph unicode="." horiz-adv-x="323" d="M-33 131q0 -23 7.5 -39t17.5 -31q41 -31 76.5 -42t54.5 -11q29 0 55.5 7.5t46.5 17.5q39 20 64.5 53t27.5 72q0 70 -75 100q-20 10 -43 17.5t-45 7.5q-14 0 -22.5 -1t-20.5 -3q-55 -10 -96.5 -47.5t-47.5 -84.5v-16z" />
<glyph unicode="/" horiz-adv-x="1499" d="M-61 131q0 -16 5 -28.5t13 -26.5q49 -70 143 -70q47 0 90 25q41 29 74 67.5t55 61.5q6 10 15.5 17t13.5 16l-2 -7l1051 1102q12 10 28 33v-4q31 29 52.5 51.5t21.5 58.5q0 10 -1 20.5t-9 22.5v-2q-23 33 -44.5 44.5t-60.5 19.5h-12q-6 0 -11 1t-11 1q-55 0 -106.5 -21.5 t-97.5 -55.5t-87 -74t-74 -76l-897 -955q-16 -16 -42 -42.5t-49.5 -57.5t-40.5 -62.5t-17 -58.5z" />
<glyph unicode="0" horiz-adv-x="1323" d="M31 502q0 -119 35.5 -212t128.5 -169q119 -111 280 -111q86 0 180.5 30t192.5 87q80 45 144.5 98.5t114.5 115.5t89 138t70 166q29 78 46 147.5t17 131.5q0 76 -35 163q-16 39 -34.5 66t-41 47.5t-49 37.5t-57.5 38q-82 51 -164 79.5t-168 28.5q-154 0 -321 -100 q-184 -111 -281.5 -261.5t-132.5 -360.5q-6 -41 -10 -82t-4 -78zM254 629q0 84 43 192q31 74 79 130.5t107.5 95t125 59t132.5 20.5q14 0 29.5 -1t30.5 -3q63 -8 118.5 -36.5t96.5 -71.5t64.5 -100.5t23.5 -120.5q0 -66 -29 -136q-29 -78 -71.5 -125t-108.5 -100 q-78 -66 -147.5 -98.5t-155.5 -32.5q-8 0 -15.5 1t-15.5 1q-78 4 -126 25.5t-95 74.5q-86 98 -86 226z" />
<glyph unicode="1" horiz-adv-x="589" d="M35 1030q0 -51 27.5 -94t54.5 -47q2 -2 16 -2q23 0 41.5 9t38.5 24q35 31 63 36q2 -2 3 -16q0 -35 -11.5 -86t-21.5 -98q-4 -16 -7 -33.5t-6 -32.5q-18 -104 -37.5 -182t-38 -147.5t-37 -142.5t-34.5 -169v-14q0 -49 27.5 -61.5t68.5 -12.5h51q39 18 61.5 35.5t34 41 t15.5 55.5t8 81q2 20 9.5 56t15.5 79t18.5 90t18.5 93q12 68 22 114.5t19.5 86.5t19.5 78t23.5 88t30 119t38.5 169v2q23 57 23 96q0 61 -35 97t-76 36q-39 0 -65 -18q-45 -41 -85 -67.5t-79 -51.5q-53 -35 -101.5 -69.5t-101.5 -92.5q-12 -23 -12 -49z" />
<glyph unicode="2" horiz-adv-x="1345" d="M45 219q0 -43 14 -80l-2 2q14 -51 42 -90t77 -39q18 0 35 6q98 27 172 36t143 9q49 0 97.5 -4t101.5 -8q33 -4 66.5 -5t72.5 -5q23 -2 42.5 -6t41.5 -8q43 -16 76 -17q57 0 96 58q23 29 39.5 68.5t16.5 74.5q0 53 -48 74q-104 35 -209.5 49t-209.5 14q-82 0 -157 -7 t-134 -19q12 29 34.5 48t51.5 44v-2q6 4 11 9t13 9q80 59 168 102t174 78q82 35 158 71t140.5 84t114.5 112.5t79 156.5q14 43 14 88q0 68 -31.5 121t-87.5 86q-20 10 -37.5 13.5t-35.5 7.5q-29 12 -76 12q-63 0 -147 -15.5t-160 -35t-128 -39t-52 -25.5q0 -2 2 -2 q-49 -4 -121 -44t-139.5 -95t-114.5 -113.5t-47 -101.5q0 -14 8 -31.5t21.5 -34t29.5 -28t35 -11.5q27 -6 41 -6q31 0 50.5 18.5t35.5 43.5q10 12 20.5 24.5t26.5 20.5q23 14 47.5 28.5t46.5 30.5q66 43 133.5 82t145.5 45q10 2 22.5 3t24.5 3q25 4 50.5 8.5t49.5 4.5 q35 0 62.5 -11.5t31.5 -44.5v-10q0 -27 -15 -47.5t-41 -36.5t-57.5 -29.5t-62.5 -23.5q-25 -10 -48 -19.5t-40 -17.5q-47 -25 -87 -41t-73 -33q-59 -27 -109 -52.5t-116 -70.5q-14 -8 -27.5 -16t-27.5 -18q-35 -23 -63.5 -42.5t-57.5 -43t-59.5 -54t-67.5 -73.5 q-86 -104 -86 -189z" />
<glyph unicode="3" horiz-adv-x="1282" d="M47 233l4 -16q25 -59 54.5 -97t66.5 -65.5t83 -47t101 -40.5q117 -35 224 -35q100 0 198.5 26t182 71t147 108.5t94.5 141.5q70 145 70 272q0 74 -31 147q-20 45 -37.5 74t-48.5 51q25 20 52.5 50t52 68t40 83t15.5 96q0 23 -3 45.5t-14 46.5v-2q-23 76 -66.5 116 t-123.5 52q-72 12 -164 13q-78 0 -160 -13.5t-160.5 -45.5t-151.5 -84t-128 -128q10 -53 39 -97t84 -44h10l17 4q16 10 32.5 18.5t32.5 18.5q76 49 164 96t176 47q33 0 66.5 -9t68.5 -32v2q12 -10 13 -22q0 -16 -10.5 -37t-26 -41t-31.5 -36.5t-31 -26.5v2 q-37 -27 -92 -40.5t-115 -25.5q-72 -16 -137 -34.5t-110 -57.5q-6 -25 -8.5 -43.5t-2.5 -34.5q0 -61 31 -97t82 -36q23 0 47 10v-2q45 16 96.5 26.5t100.5 10.5q57 0 104 -18.5t64 -69.5q16 -43 16 -78q0 -43 -18.5 -87t-61.5 -73q-78 -53 -147.5 -81.5t-155.5 -28.5 q-33 0 -66.5 3t-74.5 13q-49 10 -87 48t-71 77q-29 39 -56.5 64.5t-58.5 25.5q-20 0 -22 -2q-20 -14 -47 -33.5t-51.5 -44t-42 -52.5t-17.5 -54v-15z" />
<glyph unicode="4" horiz-adv-x="1294" d="M41 545q0 -27 10 -60.5t25.5 -67.5t33 -64.5t31.5 -49.5q23 -16 49 -16q20 0 42 6t47 12q27 8 54 15.5t54 11.5q35 2 78 4t87 4t85 3t76 1h73q-8 -53 -26.5 -121.5t-36.5 -136.5q-10 -29 -12 -43q-8 -29 -14.5 -55.5t-6.5 -50.5q0 -29 11.5 -45.5t46.5 -16.5h47 q6 0 13 -1t13 -1q41 0 69 17.5t56 76.5q23 51 35 113.5t20 122.5q8 49 16.5 95t20.5 77q20 8 38 10t34 2h20q6 0 11.5 -1t13.5 -1q18 0 38.5 5t45.5 22q29 16 51.5 31.5t39 38t24.5 54t8 80.5v11q0 55 -21.5 73.5t-58.5 18.5q-16 0 -33.5 -2t-36.5 -4q-53 -12 -116 -13 q12 68 20 108t14.5 71.5t12.5 65.5t16 89q8 29 31 58q14 18 24.5 38.5t10.5 43.5v16q-10 45 -41 66.5t-72 21.5q-25 0 -49.5 -8t-46.5 -23h2q-29 -18 -43 -43.5t-21.5 -53.5t-11.5 -54.5t-10 -46.5q-18 -53 -28.5 -101.5t-20.5 -95.5q-12 -53 -22.5 -100t-31.5 -82 q-43 -10 -102 -19.5t-123.5 -15.5t-129 -10t-120.5 -4h-35q10 45 32 83.5t48 79.5q14 18 26.5 38t27.5 40q18 39 38.5 69t38.5 58q31 41 58.5 84t50.5 109l-2 -2q23 41 22 69q0 41 -20.5 71t-52.5 44q-10 2 -19.5 4t-23.5 2q-94 0 -152 -153q-10 -33 -18 -53.5t-17.5 -36 t-17.5 -30t-19 -32.5q-10 -16 -21 -33.5t-26 -40.5v2q-35 -59 -67 -104q-53 -82 -95 -156t-69 -166h2q-2 -4 -2 -22z" />
<glyph unicode="5" horiz-adv-x="1177" d="M39 223q0 -41 12 -81t27 -72q37 -74 131 -108t211 -34q39 0 79 3t79 12q63 10 119.5 24.5t108.5 39t101 62t99 95.5q29 29 51 55.5t40.5 55t33 60.5t28.5 73q29 98 29 163q0 94 -36 171t-95 128q-76 61 -161 84t-171 23q-72 0 -137.5 -10.5t-118.5 -20.5l-4 -2 q4 37 19.5 71t31.5 62q0 10 2 13q47 0 102.5 9t120.5 19q23 4 46.5 7t46.5 8q10 2 18 3t14 1h125q41 0 76 5t70 19q39 18 63.5 65.5t24.5 90.5q0 39 -25 57q-20 33 -51 46.5t-70 13.5q-41 0 -85 -9.5t-91 -21.5q-39 -10 -80 -20.5t-78 -14.5q-29 -4 -55 -5t-51 -3 q-74 -6 -140.5 -18.5t-142.5 -51.5q-16 -92 -41.5 -145t-52.5 -96q-29 -47 -55.5 -99.5t-36.5 -144.5q18 -51 32.5 -84t28 -52.5t26.5 -26.5t30 -7q18 0 32.5 4t34.5 8q57 16 135 31.5t164 21.5h27q55 0 105.5 -11t88 -33.5t60 -55.5t22.5 -76q0 -35 -18 -80 q-20 -51 -54 -81.5t-81 -63.5q-14 -2 -15 -10q-74 -53 -143.5 -74.5t-134.5 -21.5q-35 0 -68.5 5t-68.5 11q-33 8 -47.5 29.5t-24.5 46.5q-12 35 -29.5 62.5t-70.5 27.5q-10 0 -18.5 -1t-18.5 -3q-72 -14 -98.5 -54.5t-26.5 -93.5z" />
<glyph unicode="6" horiz-adv-x="1288" d="M68 381q0 -41 6 -81t16 -81q35 -127 123 -200.5t246 -73.5q43 0 91 5t101 19q102 25 187.5 57.5t158 83t135 125t121.5 183.5q59 115 60 215q0 78 -33 143q-41 78 -96.5 108.5t-141.5 35.5h-26q-86 0 -172 -18.5t-168 -49.5t-161 -71t-153 -83q10 47 49.5 92.5t88.5 94.5 q8 6 14 12l14 14q78 80 155 118t169 63q31 6 63.5 23.5t60.5 41t45 52t17 57.5q0 12 -4 24l2 -2q-8 43 -37.5 62.5t-70.5 19.5q-29 0 -70 -10h2q-55 -14 -96 -26.5t-77 -28t-70.5 -35t-77.5 -47.5q-88 -61 -157 -126t-122 -138.5t-92 -159.5t-66 -191q-16 -63 -25 -117.5 t-9 -109.5zM350 301q0 14 5 31.5t22 44.5q74 68 164 129t207 84q8 0 14 1t14 3q49 10 103.5 17t101.5 7q45 0 75.5 -12t30.5 -51v-18q-4 -23 -26.5 -52.5t-56 -60.5t-74.5 -60.5t-80 -54.5q-86 -51 -170 -72.5t-133 -21.5q-25 0 -58.5 3t-64.5 12.5t-52.5 25.5t-21.5 45z " />
<glyph unicode="7" horiz-adv-x="1097" d="M88 29q23 -53 64 -83t79 -30q27 0 62 25q47 66 94 139.5t92 152.5v-2l60 103q68 106 129 193t125.5 168t136 162t160.5 173q39 39 70.5 88t31.5 96q0 18 -6 37v2q-16 47 -39 64.5t-76 17.5h-24q-16 0 -25 -2q-170 -23 -301 -35t-256 -12h-41h-21q-10 0 -20 2h2 q-29 6 -55 6q-37 0 -70 -12t-58.5 -34.5t-41 -57.5t-15.5 -78q0 -12 1 -20.5t4 -18.5q8 -39 24 -62.5t66 -23.5q37 0 71 8q59 16 118.5 21.5t119.5 5.5q100 0 199 -18q-55 -94 -120 -180.5t-130 -178.5q-55 -74 -111.5 -152.5t-116.5 -170.5q-35 -49 -80 -86 q-41 -41 -71.5 -79t-30.5 -112v-16z" />
<glyph unicode="8" horiz-adv-x="1390" d="M0 264q0 -45 10 -87t33 -83q27 -51 65.5 -82.5t87 -51t105.5 -30t121 -18.5q2 -2 12 -2q12 0 17 -2q41 -6 80.5 -10t80.5 -4q193 0 371 73.5t326 235.5q25 25 42 57.5t28.5 65t17.5 60.5t8 44q8 27 8 62q0 41 -10 70.5t-27.5 52t-40 41t-47.5 36.5q-10 10 -22.5 17.5 t-22.5 15.5q33 33 68 74t62.5 88t46 98t18.5 107q0 55 -25 114q-53 119 -154.5 161t-236.5 42h-57q-12 0 -19 -2q-84 -4 -164 -20.5t-151.5 -52.5t-136 -94t-119.5 -146q-76 -125 -76 -234q0 -80 41 -139q-57 -29 -101 -54.5t-80 -56t-63.5 -69.5t-52.5 -95q-23 -49 -33 -95 t-10 -87zM264 371q4 39 22.5 64.5t45 42t59.5 27.5t68 21q27 6 50 15.5t50 19.5l-2 -2q4 2 14 2q12 0 15 2q53 4 117.5 9.5t130.5 5.5q43 0 85 -4.5t76 -14.5l43 -10q45 -12 85 -30.5t40 -63.5v-6q-4 -59 -42 -105.5t-89 -75.5q-92 -49 -180 -69.5t-174 -20.5 q-143 0 -262 47q-59 27 -102.5 63t-49.5 83zM539 950q0 6 2 8q8 51 52 85t106.5 53.5t135 30t138.5 16.5q6 0 12 1t12 1q37 0 72 -9.5t62.5 -24.5t44 -36t16.5 -41q-2 -45 -30.5 -75.5t-70.5 -52t-90.5 -34t-91.5 -20.5q-82 -16 -123 -16q-51 0 -96 9t-78.5 24.5t-53 37 t-19.5 43.5z" />
<glyph unicode="9" horiz-adv-x="1339" d="M35 141q0 -66 21.5 -102.5t55 -56t74.5 -25.5t82 -8q16 -2 28.5 -3t27.5 -3q31 -8 61.5 -10.5t60.5 -2.5q47 0 95.5 7.5t105.5 23.5q55 14 102.5 30.5t90.5 38t87 51.5t93 73q80 70 137 135t99 139t70.5 158.5t53.5 193.5q20 84 21 172q0 51 -10.5 99.5t-32.5 101.5 q-16 37 -31.5 65.5t-33 53t-41 46t-54.5 44.5q-47 31 -102.5 43t-114.5 12q-88 0 -171 -20.5t-142 -38.5q-162 -55 -271.5 -153.5t-175.5 -252.5q-43 -92 -43 -176q0 -53 18.5 -97t59.5 -85q35 -37 69.5 -59.5t70.5 -34t75 -16.5t86 -9q4 -2 18 -2h21q18 -2 37.5 -3t40.5 -1 q104 0 202.5 21.5t174.5 54.5q-23 -39 -36.5 -60.5t-23.5 -35t-18 -20.5t-21 -17q-59 -57 -118.5 -93t-121 -56.5t-127 -29t-139.5 -8.5q-35 0 -62.5 15.5t-53.5 29.5q-27 18 -53.5 30.5t-57.5 12.5q-25 0 -52.5 -12t-53 -32.5t-46 -50.5t-32.5 -62v-15zM424 872 q0 27 24.5 56.5t57.5 54.5q37 31 87 56.5t105.5 43t112.5 27.5t111 10q20 0 40.5 -2t41.5 -6q78 -16 114.5 -81.5t40.5 -151.5q-31 -33 -75 -55.5t-97 -37t-111.5 -21.5t-115.5 -7q-88 0 -166 17.5t-127 45.5q-43 20 -43 51z" />
<glyph unicode=":" horiz-adv-x="325" d="M43 174q0 -78 42 -126t101 -48q41 0 76 22.5t60.5 58.5t40 82t14.5 93q0 92 -43 139t-113 47q-47 0 -81 -24.5t-55.5 -63.5t-31.5 -87t-10 -93zM84 801q0 -78 43 -125t102 -47q41 0 76 22.5t59.5 58t39 82t14.5 95.5q0 92 -42 138t-112 46q-49 0 -83 -24.5t-55.5 -64.5 t-31.5 -88t-10 -93z" />
<glyph unicode=";" horiz-adv-x="483" d="M16 -74q0 -47 14.5 -74.5t36 -42t48 -18.5t51.5 -4q100 0 153 109q49 104 92.5 215.5t43.5 244.5q0 35 -14.5 69t-38 59.5t-52 42t-57.5 16.5q-25 0 -51.5 -15.5t-48 -41t-36 -57.5t-14.5 -64q0 -53 -3 -101.5t-19 -91.5q-4 -8 -8 -18.5t-11 -20.5q-12 -4 -14 -18 q-2 -2 -2 -11q-6 -16 -16 -22q-23 -25 -38.5 -54.5t-15.5 -101.5zM123 823q0 -82 45 -131t108 -49q45 0 82 22.5t64 60.5t41 86t14 97q0 94 -44 142.5t-116 48.5q-51 0 -87.5 -25.5t-60.5 -65.5t-35 -89.5t-11 -96.5z" />
<glyph unicode="&#x3c;" horiz-adv-x="854" d="M6 952q0 -74 27 -127q16 -29 42.5 -69.5t67.5 -96.5q31 -41 53.5 -73.5t39.5 -57.5q6 -10 11 -15t9 -13q70 -129 172 -246l18 -18l16.5 -16.5t16.5 -14.5l76 -99q68 -72 123 -71q109 0 108 145q0 49 -49 121l2 -2q-10 18 -22 29.5t-29 31.5q-18 23 -45 50.5t-59 68.5 q-47 53 -81 97.5t-50 78.5q-6 8 -11.5 16.5t-9.5 12.5h2q-4 4 -7 8t-9 13l2 -5q-109 158 -109 172q0 29 172 183q29 27 59.5 51t59.5 51v-2q29 27 57.5 53.5t59.5 53.5q106 106 106 182q0 31 -12 58.5t-31.5 49t-44 33.5t-51.5 12q-59 0 -197 -141q-23 -23 -41 -44t-40 -42 q-23 -23 -42.5 -43t-39.5 -41q-41 -35 -74 -59.5t-57 -40.5q-8 -6 -23 -16l-14 -11q-152 -115 -152 -207z" />
<glyph unicode="=" horiz-adv-x="915" d="M20 926q6 -53 35 -100.5t60 -67.5q27 -14 98 -15h23q18 0 24 2l375 21q8 2 31 6q8 2 15 3t17 3q43 6 60 6q63 0 84.5 22.5t21.5 88.5v27q-2 2 -2 16q0 80 -96 123q-66 27 -137 26q-86 0 -191.5 -9t-234.5 -29q-10 -2 -18.5 -3.5t-16.5 -3.5q-16 -2 -24.5 -4t-18.5 -6 q-35 -12 -57 -28h2q-49 -29 -50 -78zM49 543q0 -86 74 -142q63 -51 147 -51q8 0 105 6q92 4 171 10.5t144 12.5q23 2 34 3t17 1h13q43 8 67 66v-3q17 37 17 74q0 59 -19.5 95t-58.5 59q-63 29 -162 28q-4 0 -27.5 -1t-62.5 -5q-25 -2 -48.5 -4t-45.5 -2q-25 -2 -52.5 -3 t-54.5 -5q-61 -8 -100 -12q-59 -6 -78 -13h4q-35 -8 -59.5 -42.5t-24.5 -71.5z" />
<glyph unicode="&#x3e;" horiz-adv-x="854" d="M29 1376q0 -53 41 -112q37 -43 62.5 -73t39.5 -42v2q72 -78 126 -130t91 -83q23 -16 44.5 -32.5t43.5 -33.5l-4 2q49 -49 49 -53q0 -10 -25.5 -49t-72.5 -108v2q-14 -16 -24.5 -29.5t-14.5 -24.5q-37 -74 -121 -170q-70 -72 -104.5 -114.5t-44.5 -55.5q-57 -70 -58 -116 q0 -49 27 -88q16 -29 37.5 -41.5t46.5 -12.5q55 0 123 74q10 10 21.5 24.5t19.5 24.5l-2 -2q10 12 22.5 25.5t22.5 27.5q23 35 44 61.5t40 51.5q16 23 30.5 42t24.5 36v-2q16 20 28.5 39.5t26.5 36.5q39 53 75 99t61 79q18 29 28 45t16.5 26.5t11.5 18.5t13 24v-2 q43 70 43 156q0 106 -143 195q-35 23 -76 53.5t-90 77.5q-27 27 -51.5 54.5t-50.5 53.5v-2l-52 53q-135 139 -188 140q-27 0 -51.5 -13.5t-44 -34t-30.5 -47t-11 -53.5z" />
<glyph unicode="?" d="M156 135q0 -113 118 -112q74 0 150 57q77 57 100 129l-2 -2q4 10 5 18t1 19q0 45 -39 82q-45 39 -108 39q-121 0 -166 -68q-39 -39 -41 -55v2q-8 -31 -13 -57.5t-5 -51.5zM156 1325q0 -16 1 -39.5t6 -44t15 -35t29 -14.5q25 -27 57 -27q29 0 67 17.5t87 46.5 q45 29 69.5 48t28.5 21q35 12 57.5 23.5t42 21t41 15.5t52.5 10q70 10 122 15.5t89 5.5h4q266 0 266 -93q0 -8 -4 -24q-41 -121 -307 -209q-31 -10 -53.5 -17.5t-45.5 -11.5q-37 -6 -84 -14t-108 -23q-12 -4 -24.5 -6t-26.5 -6q-20 -4 -38 -8t-34 -8q-14 -4 -23.5 -6 t-17.5 -5q-47 -10 -83 -51t-50 -84q-4 -10 -7 -28.5t-5 -53.5q-2 -14 -3.5 -26.5t-1.5 -24.5v-43q0 -37 -4 -70.5t-4 -60.5q0 -31 11.5 -48t46.5 -22q16 -2 30 -2h29q72 0 91.5 21.5t19.5 75.5q0 23 3 49t7 59l14 31q10 8 21.5 15t27.5 12l19 3q18 3 39 7q72 10 152.5 35.5 t172.5 64.5q100 41 176 84t129 86q61 53 117 131q4 4 5 8t5 9q25 41 44.5 73.5t29.5 61.5h-2q8 23 10 41t2 35q0 84 -57 159q-82 102 -197 125q-41 8 -97 12.5t-132 4.5q-131 0 -190 -15h2q-203 -27 -269 -49q-324 -92 -366 -231q-2 -6 -3 -11.5t-1 -15.5z" />
<glyph unicode="@" horiz-adv-x="1914" d="M31 659q0 -88 12 -157.5t43 -122.5q12 -23 34.5 -51.5t53.5 -71.5q35 -41 61.5 -70.5t49.5 -44.5q111 -68 246 -99.5t300 -31.5q45 0 81 17.5t61.5 47t39 68.5t13.5 82q0 61 -55 97q-45 27 -101 26q-14 0 -31.5 -1t-35.5 -3q-16 -2 -34.5 -3t-29.5 -1q-82 0 -207 39 q-106 33 -163 164q-39 90 -39 180q0 43 8 70q143 684 702 690h80q39 0 72 -4t55 -11q121 -25 168 -55q94 -53 123 -88t41 -88q14 -45 14 -121q0 -27 -12 -102q-10 -100 -84 -199q-41 -49 -80 -75.5t-82 -26.5q-53 0 -53 114q0 96 18 195q2 10 7.5 31.5t15.5 52.5 q16 39 20.5 61.5t4.5 32.5q0 80 -105 127q-35 16 -70.5 23.5t-76.5 7.5q-35 0 -81 -8.5t-97 -28.5h2q-53 -16 -95.5 -35.5t-70.5 -42.5h2q-51 -33 -95.5 -84t-78.5 -117q-47 -78 -74 -154.5t-16 -148.5q18 -117 64 -184.5t101.5 -100t110.5 -40.5t92 -8q61 0 148 24 q102 29 120 29q8 0 15.5 -3l17.5 -7l19 -7h-2q25 -12 50 -21t54 -9q104 -2 162.5 13t103.5 44q152 94 246 272q41 82 59.5 171.5t20.5 183.5v88t-2 30q0 98 -49 179q-4 4 -6 9t-7 11q-14 29 -24 46.5t-17 25.5q-47 76 -120.5 136t-180.5 108q-184 80 -378 79 q-150 0 -326 -53q-199 -55 -301 -145q-43 -35 -87 -83t-87 -108q-258 -356 -258 -760zM782 809q0 72 92 156q94 86 160 86h2q0 -35 -18 -158q-10 -55 -15.5 -90t-9.5 -47q-10 -4 -22.5 -9.5t-32.5 -13.5v2q-37 -10 -56 -16l-18 -6q-35 0 -58.5 30.5t-23.5 65.5z" />
<glyph unicode="A" horiz-adv-x="1286" d="M10 12q0 -23 11.5 -42t30 -32.5t40 -20.5t41.5 -7q53 0 96 21.5t72 84.5q23 47 38 83t28.5 63.5t28 50.5t34.5 43l8 2h23q4 0 6 1t6 1q49 2 111 6q86 4 174 8.5t139 4.5h23l14 -7h2l8 -8l4 -6l10 -61l21 -105q8 -43 20.5 -68.5t31 -40t43 -20.5t59.5 -12q12 0 27.5 4 t37.5 14q35 14 50.5 46t15.5 67q0 29 -11 53l-2 4q-170 1219 -239 1245q-16 4 -29.5 7.5t-36.5 3.5h-6v2q-96 -14 -153.5 -37t-92.5 -53.5t-56.5 -71.5t-45.5 -90q-20 -43 -46 -92t-59 -99q-51 -84 -113.5 -185t-124 -207.5t-116.5 -209t-94 -186.5q-14 -35 -21.5 -63.5 t-7.5 -63.5v-27zM535 498v8l264 440l14 6l21 -4l10 -10l53 -438l-4 -8l-14 -15h4l-9 -5h-321l-6 3z" />
<glyph unicode="B" horiz-adv-x="1380" d="M55 141q0 -23 2 -26v-4q2 -41 10.5 -72t24.5 -39l25 -27l12 -2q53 -43 107.5 -56t105.5 -13h20q96 0 223.5 21.5t255.5 64.5t240.5 109.5t180.5 156.5q41 53 41 106q0 55 -43 105q-86 123 -226 170l-2 4l-2 23l4 6q78 33 153 69.5t132 89.5q33 29 50 63t22 62q6 25 6 52 q0 63 -39 117.5t-103.5 95t-145.5 67.5t-163 37q-66 10 -144.5 16t-164.5 6q-33 0 -66.5 -2t-64.5 -6h-4q-102 -4 -162 -106q-25 -41 -34 -63.5t-9 -35.5q-59 -229 -100 -387.5t-68 -265t-42 -169t-22.5 -96.5t-8.5 -47t-1 -24zM342 78l8 76l84 321l19 8q156 37 284 37 q168 0 258 -59q16 -8 23.5 -21.5t11.5 -23.5v-10q-12 -51 -70.5 -99.5t-136.5 -90.5t-160.5 -73.5t-144.5 -50.5q-18 -8 -48 -13t-69 -5q-14 0 -28.5 1t-30.5 3zM508 739q20 88 33.5 141.5t26 87t24.5 57.5t31 50l22 23q103 32 242 32h8q133 -10 188.5 -42.5t55.5 -75.5 q0 -47 -57.5 -101.5t-145.5 -99.5t-194.5 -74.5t-204.5 -29.5l-13 6l-10 10z" />
<glyph unicode="C" horiz-adv-x="1249" d="M8 350q0 -16 2 -22q4 -55 13.5 -93t27.5 -73l45 -53q74 -98 184.5 -140.5t225.5 -58.5q33 -4 66.5 -8t70.5 -4q154 0 273.5 52t246.5 148q35 29 50.5 47.5t25.5 38.5v-4q0 100 -86 101h-8q-2 0 -19.5 -4.5t-42 -12.5t-52 -20.5t-48.5 -28.5h4q-53 -29 -118.5 -58.5 t-170.5 -58.5q-18 -6 -75 -6q-33 0 -82 10.5t-142 47.5q-39 37 -72.5 81.5t-43.5 102.5v24q0 25 2 31q12 115 65 225q57 111 125 216.5t148 179.5q57 61 124.5 103t139.5 42h6l184 -133q4 -2 24.5 -13.5t46.5 -24.5t28 -13q47 23 75.5 54.5t28.5 55.5q0 8 -2 13v16 q-12 53 -58 93t-116 75q-55 29 -96 47t-73 29.5t-59.5 16.5t-58.5 5q-33 0 -78 -7t-98 -23q-127 -78 -235.5 -181.5t-191.5 -228.5t-136 -266.5t-70 -292.5v-27z" />
<glyph unicode="D" horiz-adv-x="1363" d="M25 74l2 -2q6 -55 45 -86l196 -66q47 0 90 5t72 12l4 -5l15 11q193 14 363.5 98t298.5 209t203 273.5t75 291.5q0 94 -37 181t-116 158t-203 121t-300 73h-4q-53 14 -122.5 17t-155.5 3l-134 -22q-76 -199 -86 -250q0 -10 -1 -14.5t-5 -14.5q-37 -133 -66.5 -250 t-54 -231.5t-44 -232t-35.5 -251.5v-28zM313 137q6 68 23.5 160t41 191.5t51.5 201t52.5 188.5t45 153.5t30.5 96.5h-2l8 7l17 6q180 0 288.5 -16.5t161.5 -53.5q80 -59 109.5 -111.5t34.5 -93.5l2 -14q-2 -84 -55.5 -177t-142.5 -184.5t-208 -175.5t-250 -145 q-12 -8 -64.5 -26.5t-111.5 -34.5l-12 6l-13 10z" />
<glyph unicode="E" horiz-adv-x="1329" d="M23 47q25 -16 52 -37.5t54 -41t50.5 -33t41.5 -13.5q57 0 103.5 8.5t111.5 18.5h4l633 90q43 4 61.5 10t22.5 10q12 12 17.5 23.5t5.5 34.5v16q0 10 -2 23h-11q-20 23 -65 28.5t-80 10.5q-45 0 -94 -8.5t-97 -8.5q-8 0 -14 1t-14 1q-4 0 -22.5 -2t-43 -3t-49 -3t-41.5 -2 q-76 -4 -152.5 -8t-150.5 -15l-8 3l-19 18l-2 8q2 27 13.5 84t25 117.5t26.5 113t19 68.5l4 2h3l12 4h39q14 -2 24 -2h23h43q33 0 66.5 1t77.5 4t103.5 8.5t145.5 13.5q8 0 27.5 1t41 3t40 3t24.5 1q55 8 67.5 34.5t12.5 55.5v39q-10 41 -59.5 50t-108.5 9h-229 q-78 0 -156 1t-125 8l-14 20l-2 8q4 18 15 63.5t24.5 95.5t26 94t18.5 61h-2l6 4l10 4q23 2 35 3t23.5 2t23.5 2t33 1h82l385 16h78q18 0 20 2q6 6 8 7q47 10 63.5 29.5t16.5 37.5v17q-10 20 -22.5 32.5t-31 19.5t-47 11t-69.5 8q-53 2 -122.5 6t-141.5 7.5t-138.5 5.5 t-111.5 2h-160h-39q-20 0 -43 2q-55 0 -87.5 -6.5t-52 -26.5t-31 -58t-25.5 -102z" />
<glyph unicode="F" horiz-adv-x="1128" d="M-31 20q4 -23 15.5 -43t52.5 -49q16 -10 37.5 -15t68.5 -5q27 8 48.5 42t38 82t28.5 102t24.5 105.5t24.5 92.5t27 59q0 4 1 6t1 4l12 11l17 6h380q23 0 43.5 -1t38.5 -1q43 0 77 9t57 44l24 92q0 4 1 7t1 7q0 39 -62.5 47.5t-224.5 8.5h-303l-2 2q2 2 2 12v2q0 2 2 4 q12 63 28.5 142t33 149t30 118t17.5 50l16 16q47 12 120 19.5t198 7.5h90t106 -2q33 -2 60.5 -3t50.5 -1q53 0 76.5 14.5t23.5 59.5l-4 86v8q-18 18 -53 23t-78 5q-27 0 -54.5 -1t-53.5 -1h-256h-146q-51 0 -73.5 -1t-41.5 -1q-18 0 -45.5 -1t-91.5 -1q-10 2 -30 2 q-39 0 -61.5 -18t-37 -48t-22.5 -67t-17 -76q-53 -264 -90 -445t-60.5 -301t-36.5 -186.5t-19.5 -100.5t-7.5 -43t-1 -15v-19z" />
<glyph unicode="G" horiz-adv-x="1361" d="M-6 332q0 -47 10 -88l25 -84q23 -70 66.5 -108t133.5 -72v2q4 -2 15.5 -6.5t25 -8.5t24.5 -8t15 -6h2l8 -4q53 -16 107.5 -22.5t108.5 -6.5q106 0 197 22.5t149 51.5q70 27 150.5 78t150 111.5t114.5 123t45 113.5l-2 8q-2 10 -2 18v19q0 29 -8 55.5t-45 48.5 q-31 16 -87 19.5t-118 3.5h-75q-61 0 -129 -4t-129.5 -10.5t-113.5 -14.5t-85 -16l2 6q-47 -20 -69.5 -48t-22.5 -52q0 -18 11 -31.5t36 -15.5q29 -20 71.5 -27.5t94.5 -7.5q180 37 266 37q57 0 81.5 -12.5t24.5 -33.5q0 -25 -32.5 -57.5t-85 -63t-118 -57t-130.5 -39.5 q-47 -16 -103.5 -23t-99.5 -7q-29 0 -48 3t-17 9l-2 2h-9q-12 8 -30.5 19.5t-35 24.5t-29.5 28.5t-15 31.5q-23 6 -31 39t-8 76q0 49 10 98.5t27 75.5q84 186 157.5 309t148.5 197t154.5 105.5t174.5 33.5h6q45 0 88 -30.5t81 -68.5t71.5 -68.5t60.5 -30.5h4l84 51l-12 78 q-2 2 -3 10q-6 29 -39.5 78t-86 97t-117 85t-131.5 41h-49q-43 0 -91.5 -3t-62.5 -13q-119 -33 -218 -103.5t-181 -164t-143.5 -201t-102.5 -214t-62.5 -205.5t-21.5 -173z" />
<glyph unicode="H" horiz-adv-x="1423" d="M29 -2q0 -25 5 -36t13 -17q27 -23 61.5 -34t71.5 -11h6q2 0 4.5 1t4.5 1q12 2 28.5 5t30.5 12t25.5 28.5t15.5 56.5q16 76 33.5 152.5t33.5 152.5q4 12 7.5 26.5t13.5 39.5l4 2l14 6q51 2 119 5t136.5 5t131 3t103.5 1l8 -4h-4l16 -16l2 -8q-6 -33 -8 -49.5t-3 -28.5 t-2 -26.5l-3 -43.5l-14 -211q18 -29 53 -50t70 -21q25 0 41 14q35 0 59 20.5t40.5 50t25 63.5t12.5 60h2l2 9v20l172 916q8 20 15 40.5t14.5 49t13.5 68.5t12 102q-8 84 -123 88h-14q-121 0 -131 -66q-33 -92 -80 -293.5t-117 -492.5l-4 -6l-8 -4l-16 -7h4l-496 -8l-18 21 l-2 8q8 45 25.5 112.5t39 140.5t47 141.5t51.5 117.5q29 41 29 70q0 31 -20.5 60.5t-55.5 39.5q-31 12 -94 12q-25 0 -45 -6l-2 6l-18 -10q-68 -12 -89.5 -63.5t-35.5 -127.5q-63 -301 -104.5 -498.5t-66 -319.5t-33.5 -182t-9 -87z" />
<glyph unicode="I" horiz-adv-x="569" d="M10 61q6 -35 31 -59l2 -2h-4q2 0 14 -8l150 -47h24q14 20 22.5 31.5t13.5 21.5t8 22.5t8 34.5q0 2 8 42t23.5 105.5t33.5 149.5t40 174t42 180.5t39 165.5q10 57 28.5 106.5t30.5 96.5q12 39 23.5 88t21.5 97q0 55 -46 96t-107 41h-29q-14 14 -31 14q-39 0 -76.5 -90 t-78.5 -263t-88 -424t-103 -573z" />
<glyph unicode="J" horiz-adv-x="1122" d="M-18 195q0 -49 35.5 -95.5t95.5 -58.5q111 -59 214 -90t195 -31q178 0 298 116t143 355q20 100 34.5 178t26.5 140q12 86 26.5 154.5t30 134t31.5 134t33 156.5q0 55 -17 66q-35 20 -69.5 31.5t-65.5 11.5q-16 0 -26.5 -1t-20.5 -3l-37 -9q-35 -6 -57.5 -42.5t-48 -142 t-58 -299t-86.5 -513.5v-12q0 -37 -15 -81t-43 -82t-64.5 -64.5t-79.5 -26.5q-47 0 -90 35q-29 18 -63 46.5t-68.5 54.5t-71.5 45.5t-72 19.5q-37 0 -65.5 -28t-44.5 -95v-4z" />
<glyph unicode="K" horiz-adv-x="1292" d="M-20 18q6 -41 28 -63q33 -18 56.5 -23.5t46.5 -5.5h24q33 6 55.5 19.5t44 61.5t49 145.5t72.5 269.5l2 4l19 12l10 2q18 -8 57 -37.5t91 -80.5l43 -37q31 -29 60.5 -54.5t55.5 -50.5q57 -47 99.5 -89t80 -75.5t76.5 -58.5t92 -37q84 37 84 100q0 35 -26.5 78t-73.5 95.5 t-112.5 113t-143.5 129.5q-45 41 -92 82t-96 88q-23 2 -23 15q0 20 49 60t111.5 83t120 79t73.5 46q10 10 22.5 21.5t22.5 19.5l394 284q35 25 58.5 45.5t23.5 55.5q-4 45 -47.5 70.5t-83.5 25.5q-31 0 -63 -20.5t-85 -63.5q-18 -16 -36.5 -30.5t-39.5 -28.5 q-51 -37 -74.5 -54.5t-41 -28.5t-36 -22.5t-57.5 -36.5l-409 -284q2 6 6 23.5t8 37t7 35.5t3 18q2 27 10.5 59t18.5 66q12 41 22.5 82t10.5 84v10q0 23 -13.5 43.5t-35 37t-48 25.5t-51.5 9q-4 0 -9 -1t-9 -1h-12q-63 0 -104.5 -40t-41.5 -111v-21q-39 -174 -65.5 -298 t-50 -230.5t-46 -211t-53.5 -239.5q-6 -35 -10 -55.5t-7 -36.5t-6 -35.5t-5 -52.5v-21z" />
<glyph unicode="L" horiz-adv-x="1021" d="M8 55q4 -41 11.5 -65.5t27.5 -40.5v-6q41 -23 69.5 -29t59.5 -6q137 20 241.5 31.5t196.5 21.5q100 10 197.5 24.5t196.5 41.5q10 18 14 30.5t4 28.5q0 41 -25.5 65.5t-54.5 24.5q-10 0 -14 -2q-55 -4 -90 -6t-60.5 -4t-46 -4t-45.5 -6q-2 -2 -8 -2q-55 -6 -90 -10.5 t-70 -7.5t-80 -5t-123 -6h5l-19 6l-8 8l-6 15v4q2 2 2 10v4l8 37v4l215 717l10 10q12 35 26.5 73t28 75.5t22.5 74.5t9 68q0 47 -27.5 76.5t-101.5 29.5q-33 0 -71 -6q-74 -4 -111 -25.5t-47 -76.5v-4q-16 -23 -20.5 -51.5t-4.5 -61.5v2q-20 -80 -34.5 -139.5t-26.5 -111.5 t-22.5 -104t-25 -120t-32.5 -158t-45 -215q-4 -20 -10 -49t-11.5 -57.5t-9.5 -56t-4 -46.5z" />
<glyph unicode="M" horiz-adv-x="1705" d="M-33 8q2 -53 32 -81.5t71 -28.5h47q35 0 49 8l80 133v2l254 686l6 4l24 -4l9 -8q0 -92 1 -152.5t1 -103.5v-113q-2 -20 -3 -45.5t-1 -54.5q0 -41 4 -84t16 -78t34.5 -57.5t59.5 -22.5h8q20 0 60 17q35 14 61.5 30.5t28.5 18.5q23 35 58.5 101.5t76.5 148.5 q35 70 74 142.5t75.5 134t68.5 104.5t52 53l11 2l28 -12l2 -5q-16 -78 -29.5 -140t-21.5 -115.5t-12 -103.5t-4 -105q-2 -6 -3 -33t-1 -58v-41q0 -12 4 -28q6 -41 16 -72t33 -51l18 -19q45 -26 108 -26h5q14 0 39 6q55 4 64.5 23.5t11.5 48.5v43q0 154 19.5 294t57 280 t93 282.5t125.5 298.5v10q0 37 -23.5 68.5t-59.5 55t-81 40t-88 22.5q-57 0 -105.5 -42t-89.5 -89v2q-2 -2 -3 -4t-3 -4q-6 -6 -6 -10q-39 -43 -93.5 -110.5t-119 -156.5t-135 -199t-144.5 -235l-10 -6l-29 4l-6 11q2 100 5.5 167.5t6.5 118t9 93.5t14 94q6 14 12.5 37.5 t12.5 48t9 47t3 35.5q-6 31 -30.5 49t-57.5 27.5t-67.5 13.5t-61.5 6h-25q-16 0 -20 -2q-80 -4 -121 -36t-70 -85q-16 -41 -28.5 -71.5t-23.5 -56.5t-20.5 -49.5t-19.5 -49.5q-29 -68 -55.5 -133.5t-59 -151.5t-76.5 -206t-108 -298h2q-4 -10 -11 -29.5t-15.5 -43t-13.5 -48 t-5 -43.5v-10z" />
<glyph unicode="N" horiz-adv-x="1368" d="M0 10q0 -29 13.5 -52.5t34 -40.5t47 -26.5t50.5 -9.5q41 0 73 22.5t38 76.5v10q8 23 23.5 73t34 116.5t40 144t41 157.5t35.5 156t27 137l10 8l27 2l8 -6q39 -139 81 -257t83 -208t75.5 -149.5t57.5 -79.5q47 -61 92 -89t86 -28q47 0 82 31t53 84q43 137 65.5 208.5 t35 110.5t18.5 59.5t14 55.5q4 23 13.5 58.5t19.5 73.5t20.5 73l16.5 55q6 12 17 46t23.5 82t25 102.5t18.5 107.5q16 37 28.5 81t12.5 85q0 53 -27 80l-151 22q-35 -6 -59.5 -26.5t-42 -48t-28 -61.5t-16.5 -66l-8 -39t-22.5 -101.5t-34 -143.5t-40 -165t-43 -166 t-44.5 -147l-6 -4l-27 -2q-35 80 -62.5 153.5t-49 144t-37 140.5t-27.5 145q-6 12 -7 34t-1 50v33q0 35 -2.5 72t-12.5 67.5t-30.5 51t-55.5 22.5q-109 -6 -172 -25.5t-98 -51t-49.5 -78t-26.5 -105.5q-14 -53 -27.5 -104.5t-25.5 -98.5q-49 -193 -84 -327t-57.5 -224 t-36 -142t-19.5 -81t-8 -41t-2 -20v-17z" />
<glyph unicode="O" d="M2 414q0 -20 2 -27q6 -47 21.5 -97t56.5 -110v2q70 -115 174 -172t268 -84q45 -10 86 -13t88 -3q135 0 246 27.5t193 91.5q92 80 160.5 175t112.5 195.5t65.5 204t21.5 199.5v45q0 10 -1 22.5t-3 22.5q-4 39 -13.5 79t-27.5 77q-43 80 -91 133t-99.5 88t-100.5 52t-92 24 h-133q-141 -16 -242.5 -40t-163.5 -59q-53 -31 -85.5 -51t-49.5 -31q-90 -66 -162.5 -151.5t-124 -181t-79 -195.5t-27.5 -193v-30zM299 342q2 66 23.5 146.5t58.5 164.5t90 166t118.5 150.5t143.5 119t164 70.5q20 6 45.5 10.5t56.5 4.5q59 0 119 -37q51 -37 78 -108 t37 -140q2 -16 3 -33.5t1 -34.5q0 -113 -38 -241.5t-114.5 -240.5t-196.5 -187.5t-282 -81.5q-23 0 -59.5 13t-73.5 32q-82 27 -125 86t-47 133q-2 2 -2 8z" />
<glyph unicode="P" horiz-adv-x="1245" d="M-14 18q0 -16 17 -34.5t44 -35t56.5 -27.5t54.5 -11q18 0 26 4q29 6 46.5 14.5t27.5 20.5t14 31.5t9 48.5q0 53 14 104l53 273l-2 -3l2 5l19 16q78 10 140 21.5t115.5 25.5t100.5 32t92 38q197 88 309.5 188t112.5 240q-10 104 -64.5 176t-171.5 125q-45 20 -112.5 38.5 t-144 34t-156.5 24.5t-150 11h-6q-47 0 -81 -14t-60 -39q-53 -55 -71.5 -114.5t-35.5 -133.5q-8 -47 -18 -100t-21 -105q-33 -160 -61.5 -306t-60.5 -306q-12 -53 -22.5 -114.5t-14.5 -114.5v-13zM393 651q6 37 12.5 72t12.5 70q14 86 27.5 156.5t27.5 120.5t30.5 79 t39.5 29q39 0 90 -4.5t103 -13.5t102.5 -24.5t87.5 -37.5q0 -6 6 -6q2 -2 8 -2q63 -61 64 -115q0 -49 -42 -93t-113 -86t-164 -82t-196 -79l-65 -14l-6 2l-23 22z" />
<glyph unicode="Q" horiz-adv-x="1490" d="M20 393q0 -12 1.5 -24.5t1.5 -22.5q4 -43 14 -86t33.5 -85t65.5 -82t110 -75q111 -59 195.5 -79.5t164.5 -20.5q45 0 76 1t54.5 4t44 7t44.5 13l84 28q35 -12 66 -38.5t63 -49.5q12 -10 35 -28.5t50.5 -37t59 -31.5t60.5 -13q37 0 64 28q4 10 11 33t7 51q2 8 3 14.5 t1 12.5q0 31 -19.5 51.5t-47 34.5t-59.5 24.5t-56 20.5q-2 0 -5 7t-9 44q49 31 112 94h-4q117 117 174.5 275.5t57.5 312.5q0 10 -1.5 43t-9.5 78t-23.5 97.5t-43.5 101.5q-59 100 -140 157.5t-215 81.5q-41 4 -72.5 11.5t-76.5 7.5q-96 0 -196.5 -32t-193.5 -85t-172 -126 t-130 -155q-98 -150 -138.5 -295t-40.5 -268zM260 444q0 104 45 205t118 193t165 170t184 137q35 14 87 25.5t110 11.5q31 0 61 -6q80 -25 119 -99.5t47 -160.5q2 -16 3 -35t1 -39q0 -72 -13 -148.5t-39 -150.5t-63.5 -139.5t-87.5 -114.5l-86 -78q-20 0 -46.5 12.5 t-61.5 32.5q-2 2 -4 2l-4 4v-2q-45 23 -92.5 43.5t-88.5 20.5q-4 2 -14 2q-16 0 -36.5 -10.5t-37 -25.5t-28 -34.5t-11.5 -38.5q0 -35 35 -51q2 -2 5 -3l3 -1q20 -12 35 -17.5t27 -9.5t26.5 -14t36.5 -33q-33 -10 -71.5 -12t-57.5 -2q-70 0 -120 41t-82.5 98t-48 120.5 t-15.5 106.5z" />
<glyph unicode="R" horiz-adv-x="1292" d="M0 12q4 -47 66 -88q10 -8 39.5 -24.5t46.5 -16.5h4q33 0 53 25.5t20 64.5v4l4 9q8 16 28 67t43.5 115.5t48 130.5t44.5 111h6q53 -45 102.5 -88t96.5 -82h-2q4 -4 10 -10.5t23 -18.5q100 -96 194.5 -168t219.5 -125q37 12 62.5 26.5t25.5 55.5q41 8 41 33q0 29 -59.5 76 t-142.5 107t-172 130t-149 143l-2 9l6 18l13 12q100 27 203.5 69t191.5 96.5t149.5 119t77.5 135.5l-10 94q-8 57 -44 94.5t-108 88.5q-160 74 -299 96t-268 22q-35 -2 -71.5 -3t-71.5 -7t-66.5 -21.5t-54.5 -45.5v2q-10 -12 -20.5 -31.5t-18.5 -40t-14 -38t-8 -23.5 q-57 -260 -97.5 -440.5t-67 -300.5t-41 -188.5t-21.5 -105.5t-9 -50t-2 -21v-17zM434 748q0 45 16.5 114.5t37 137t38 119.5t19.5 63q43 0 98 -2t111.5 -10.5t107.5 -22.5t88 -41h-2l4 -4q8 -10 22.5 -21.5t28 -26t23.5 -28.5t12 -29q0 -8 -8 -27.5t-18 -43.5l-82 -92l-4 -3 q-53 -31 -100.5 -51t-95.5 -32.5t-100 -18.5t-114 -10q-33 -27 -53 -27q-29 0 -29 56z" />
<glyph unicode="S" horiz-adv-x="1329" d="M13.5 185q31.5 -44 85 -84t123 -73.5t145 -59t152.5 -40t145 -14.5q16 0 33.5 1t33.5 3q63 0 107.5 14.5t85.5 24.5q78 29 136 69t103 89q39 43 55.5 86t16.5 47q-2 8 -5 28.5t-7 36.5q-29 63 -98.5 118.5t-186.5 78.5q-70 27 -141.5 48.5t-145.5 51.5q-2 2 -10 2 q-57 4 -90 50.5t-33 105.5q0 53 27 94q47 72 122.5 135.5t170.5 92.5h8q31 0 68.5 -3.5t75.5 -12.5t75 -26.5t65 -43.5q47 -37 78 -57.5t52 -24.5h10q53 0 73.5 27.5t20.5 68.5q0 14 -2 29.5t-6 25.5q-12 35 -44 57.5t-98 57.5q-78 41 -150.5 72.5t-168.5 42.5q-14 0 -16 -3 q-49 0 -99.5 -11t-97.5 -29l-37 -19q-117 -55 -207 -131t-129 -147q-33 -61 -54.5 -112.5t-21.5 -98.5q2 -49 27 -97.5t61.5 -90.5t83 -75.5t93.5 -56.5l31.5 -14t23.5 -15q29 -14 61.5 -22t67.5 -16q63 -14 122.5 -31t74.5 -37q35 -16 46 -30.5t13 -30.5v-9 q0 -20 -12.5 -37.5t-29.5 -31t-35.5 -21.5t-31.5 -10q-6 -4 -32.5 -7t-57 -5t-60.5 -3t-42 -1q-27 0 -49.5 2t-48 6t-56 11t-71.5 17q-55 29 -106.5 69t-86.5 93q-14 23 -31.5 44.5t-48.5 37.5v2q-29 -4 -64.5 -7t-58.5 -26l-2 -2q-32 -38 -32 -81q0 -48 31.5 -92z" />
<glyph unicode="T" horiz-adv-x="1193" d="M-33 1264q0 -31 10.5 -65t24.5 -58q43 -10 77 -14.5t79 -4.5h229l19 -22l-3 2l3 -10q-51 -256 -87 -433.5t-59.5 -293t-37 -180t-20.5 -97.5t-10.5 -42t-5.5 -13q0 -20 7.5 -34.5t35.5 -49.5v2q6 -12 32 -20.5t56 -8.5q43 0 82 19.5t39 66.5v15q59 262 97 437t62 286.5 t38 174t24.5 98.5t22.5 57.5t33 53.5l534 29q35 12 50.5 37t15.5 53q0 45 -38 84t-106 39q-23 0 -49 -6q-31 0 -79 2t-101 2h-33h-16t-16 -2q-8 0 -51.5 -1t-96.5 -3t-103.5 -5t-72.5 -5h-162q-59 0 -94 1t-55 1h-35q-27 0 -66 -3t-118 -7q-31 -4 -43.5 -28t-12.5 -54z" />
<glyph unicode="U" horiz-adv-x="1298" d="M14 344q0 -78 24.5 -151.5t92.5 -131.5l14 -6q94 -76 167 -105.5t151 -29.5q10 2 31 2q18 0 39.5 -1t44.5 -1h16q2 2 8 2h8q137 0 232.5 75t161 192.5t108.5 261t78 282.5q33 121 62.5 256t43.5 262q0 37 -2 63.5t-12 67.5q-8 14 -26.5 25.5t-40 20t-44 12.5t-38.5 4 q-20 0 -45 -20.5t-31 -26.5l-70 -336q-10 -66 -23.5 -140.5t-41.5 -191.5q-16 -68 -36 -139.5t-41.5 -137t-43 -118.5t-41.5 -82l-76 -100l-6 -9q-25 -18 -55.5 -28.5t-60.5 -15.5t-53.5 -6t-35.5 -1h-10q-16 0 -44 8.5t-55.5 26.5t-48 46t-20.5 65q0 12 2 20 q0 47 13.5 110.5t35.5 141.5q55 188 89 298t54.5 169t27.5 81.5t11 39t5.5 40t7.5 85.5v4q0 23 -18.5 44t-44 38.5t-55.5 31t-54 19.5q-37 0 -69 -23.5t-79 -97.5l-2 -12v2q-4 -8 -13 -42t-24 -89q-29 -96 -49 -163t-33.5 -116t-23.5 -85t-17.5 -70.5t-14.5 -73.5t-15 -94 q-6 -37 -10.5 -75t-4.5 -77z" />
<glyph unicode="V" horiz-adv-x="1351" d="M70 860q0 -86 5 -186.5t17 -222.5l45 -320q6 -25 14.5 -54.5t21.5 -57t31.5 -52t43.5 -39.5q51 -10 108 -10q55 0 112.5 9.5t103.5 28.5t76 51t30 77v6q127 250 215 412t149.5 265t102.5 163.5t74 109.5q10 20 36.5 54t56 73t55.5 77t34 67q0 16 -6 35.5t-18.5 37 t-29 28.5t-34.5 11q-2 4 -13.5 5.5t-27.5 1.5q-25 0 -49.5 -3.5t-32.5 -11.5q-55 -41 -120.5 -125t-135.5 -189.5t-139.5 -223t-133 -227t-116.5 -202t-90 -145.5l-25 4l-6 10q-6 25 -14.5 58t-12.5 63q-4 41 -7 81t-3 77v139q0 98 8 164t19 113q10 51 13 100t3 84 q-8 53 -56 78.5t-98 25.5h-43q-16 0 -22 -2q-63 -14 -91 -68t-40 -143q-4 -37 -7 -95t-3 -132z" />
<glyph unicode="W" horiz-adv-x="1796" d="M57 524q2 -104 5.5 -216.5t13.5 -229.5q4 -29 16 -56.5t41 -44.5l4 -4v2q52 -34 92 -34h2q33 0 64 10h4q16 -4 27 -4q33 0 59.5 28.5t53 84t56 135t70.5 182.5q27 63 46.5 108t33.5 75t26.5 49.5t22.5 35.5l19 6l20 -4l10 -8q6 -72 8.5 -95.5t4.5 -33.5t4 -21.5t8 -56.5 q8 -45 16.5 -92t18.5 -90q6 -39 18.5 -86t31.5 -93t47 -84t65 -57q33 -10 63.5 -14t52.5 -4q37 0 61.5 1t51.5 9q25 8 40 16.5t25.5 20.5t17.5 30.5t17 49.5h2q27 61 47.5 113.5t43 112t53 134t76 179t111 248t159.5 339.5v2h2v-2q16 27 24.5 51.5t16.5 57.5l-2 2v2 q0 4 -2 6h8q-31 47 -63.5 66.5t-71.5 19.5q-29 0 -70 -10q-43 0 -86 -46t-89 -129t-96 -198t-108 -250q-35 -86 -70.5 -165.5t-74.5 -165.5l-6 -5l-23 5l-10 8q-8 72 -13 123t-7.5 89t-2.5 68v68v137v74t-1 32t-1 9q-2 20 -7 36.5t-21 26.5q-45 27 -96.5 38t-73.5 11 q-76 -10 -136.5 -68.5t-107.5 -131.5q-27 -41 -47.5 -74t-39.5 -67.5t-42 -74.5t-53 -96l-10 -6l-27 8l-6 11q8 152 20.5 232.5t22.5 133.5v-2q4 25 7 44.5t6 42t5 51t4 71.5q-6 51 -53 74.5t-98 23.5q-33 0 -56 -8q-43 -4 -66.5 -16t-35.5 -33.5t-18.5 -53.5t-12.5 -75v-4 q-18 -117 -29.5 -266.5t-11.5 -317.5z" />
<glyph unicode="X" horiz-adv-x="1292" d="M-88 -18q4 -43 90 -60q10 -2 16.5 -3t10.5 -1h22q49 0 109 31q61 70 109 125t85 100q31 37 56.5 65.5t44.5 51.5q20 20 33.5 37.5t23.5 31.5l8 5l23 -3l6 -6q27 -45 72 -111.5t94 -130t96 -110.5t78 -53v-2q33 -6 59 -6q43 0 74 14q37 4 53.5 18.5t16.5 30.5 q-4 37 -29 72t-55.5 67.5t-58 65.5t-38.5 65q-23 33 -42 64t-37.5 68.5t-37 85t-38.5 110.5h-2v2l4 17l-2 -2l4 8v-2q70 78 103.5 116.5t51.5 61.5l19 18l2 2t2 6l6 7q10 12 21.5 24t29 30.5t44 45.5t67.5 70q57 61 97 100t71 66.5t58.5 51t60.5 54.5q10 14 10 27 q0 20 -17.5 39.5t-42 35t-53 24.5t-51.5 9h-8q-20 0 -44 -8t-53.5 -30.5t-64.5 -60.5t-80 -99l-321 -330l-15 -6l-22 6h-2q-43 66 -72 125t-51.5 110.5t-44.5 93t-53 72.5h-19q-18 0 -45 -2t-55.5 -7t-55 -11t-43.5 -15q-25 -10 -32.5 -31.5t-7.5 -43.5q0 -41 14 -74l8 -6 q8 -16 31.5 -62.5t54.5 -112t64.5 -145.5t64.5 -162l2 -6l-4 -16q-68 -84 -117 -145.5t-87 -107.5t-67.5 -85t-59 -79t-63.5 -86t-79 -109z" />
<glyph unicode="Y" horiz-adv-x="1179" d="M-14 1221q0 -33 14 -68t31 -68q29 -43 59.5 -114.5t58 -149.5t48 -152.5t30.5 -123.5v-8l-84 -488q2 -45 60 -80l18 -18q90 -33 137 -33q43 0 63.5 29.5t36 97.5t34 176.5t59.5 263.5q6 31 11 54.5t13.5 44t22.5 43t37 51.5q74 109 192.5 243t302.5 306q8 6 22.5 17 t28 23.5t23.5 27t10 30.5v8q0 2 -1 3t-1 3l-14 27q-12 23 -46 36t-71 13q-57 0 -100 -45q-137 -147 -266 -292.5t-242 -293.5l2 2h-2q-16 29 -37.5 79t-46.5 114q-20 51 -42.5 103.5t-46.5 98.5t-50.5 82.5t-54.5 59.5q-14 4 -34 6t-36 2q-31 0 -61.5 -4t-47.5 -18 q-18 -12 -24 -32t-6 -46v-10z" />
<glyph unicode="Z" horiz-adv-x="1495" d="M12 2q0 -14 17 -43q25 -27 70.5 -37t111.5 -10q211 4 349 17.5t214 13.5h27q41 -2 102.5 -3t118.5 -1h65q12 0 23.5 1t22.5 3q92 2 127.5 21.5t35.5 51.5q0 12 -7 31t-17 35v4q-8 94 -170 94h-146q-27 0 -49 1t-61 5q-18 0 -43 -1t-66 -3t-102.5 -6t-151.5 -10l-32 20v7 l790 745q39 37 86 79t86 87t65.5 87t26.5 79q0 39 -37.5 65.5t-136.5 36.5q-41 0 -102 -6q-10 0 -44 -1t-72 -3t-71.5 -3t-44.5 -1h-114q-25 0 -66 -2t-121 -10q-186 -12 -300.5 -23.5t-178 -26t-85 -32t-21.5 -37.5q0 -14 6 -29v-20q0 -29 5 -57.5t32 -39.5q31 -25 55 -32 t53 -7q16 0 41 2.5t53 6.5q18 0 83 6t142.5 15t153.5 20.5t117 19.5l-4 -4q29 4 52.5 7t45.5 3q41 0 76 -20v-11l-850 -778q-27 -25 -53.5 -52.5t-48 -58t-34.5 -62.5t-13 -62v-8q-4 -14 -7.5 -27.5t-3.5 -36.5z" />
<glyph unicode="[" horiz-adv-x="763" d="M14 1614q0 -25 6.5 -56.5t22.5 -74.5q12 -35 23.5 -67t23.5 -66q14 -39 25.5 -68t17.5 -47l17.5 -143.5t11.5 -102.5q4 -47 6 -74.5t2 -37.5q0 -16 -1 -59.5t-3 -117.5q-2 -6 -2 -18v-66q-2 -23 -10.5 -76t-20.5 -145q-20 -131 -24 -219v-14q0 -70 63 -101 q29 -10 66.5 -20t87.5 -18q41 -4 78.5 -8.5t78.5 -8.5q35 -4 55.5 -5t26.5 -1q57 0 109 51q53 50 53 105q0 33 -10 49q-29 39 -68 49q-25 8 -121 18q-86 6 -116 19q-10 6 -23.5 25.5t-13.5 31.5t2 35t5 47.5t6 46t3 31.5q12 197 12 414q0 51 -1 86.5t-3 56.5 q-10 92 -18 156.5t-14 109.5q-2 10 -9.5 31.5t-17.5 56.5q-20 55 -21 78q0 23 31 39q33 4 56.5 7t39.5 3q25 4 50.5 7t52.5 8q63 6 94 26q86 43 86 105q0 49 -39 80q-12 12 -84 12h-287q-6 -2 -16 -2h-82q-207 0 -207 -168z" />
<glyph unicode="\" horiz-adv-x="1220" d="M-70 1638q0 -51 25 -94q41 -63 74.5 -112.5t58.5 -83.5q104 -150 184 -260.5t134 -184.5q78 -111 123.5 -187.5t66.5 -113.5q53 -104 101 -191t98 -163q35 -57 55 -90t24 -43q63 -117 103 -117q45 0 102 63q60 66 60 109q0 66 -482 860q-33 47 -56 79t-40 54 q-63 86 -111.5 152.5t-80.5 109.5q-14 18 -39 59.5t-64 104.5q-31 51 -58.5 90t-51.5 66q-41 47 -58 47q-168 0 -168 -154z" />
<glyph unicode="]" horiz-adv-x="763" d="M33 180q0 -68 47 -127q47 -53 117 -53q-4 0 34.5 6t124.5 17l136 18q100 16 118 35q43 43 43 67q0 31 -2 33q-18 147 -30.5 257t-22.5 183q-2 4 -2 21v53q-6 135 -6 187q0 98 10 185t27 173q4 18 21.5 67.5t47.5 129.5q52 127 52 182q0 47 -9.5 76.5t-30 46t-54 22.5 t-83.5 6q-35 0 -95 4.5t-148 12.5l-152 18q-25 0 -39 1t-18 1q-25 0 -78 -41q0 -78 28.5 -128t94.5 -66q20 -8 127 -15q39 -2 68.5 -5t50.5 -11q31 -16 30 -39q0 -23 -20 -78q-23 -66 -25 -88l-22 -176q-6 -59 -10.5 -101t-4.5 -65q0 -223 5.5 -368.5t17.5 -221.5 q6 -47 6 -51q0 -51 -59 -61q-72 -12 -126.5 -20.5t-90.5 -12.5q-23 -6 -50.5 -29.5t-27.5 -44.5z" />
<glyph unicode="^" horiz-adv-x="880" d="M45 1243q0 -39 16 -69q35 -68 105 -68q41 0 82 31q37 31 59.5 50t44.5 40q10 10 23.5 20t30.5 25q66 -6 106.5 -23.5t93.5 -52.5l-2 2q8 -4 16.5 -11t18.5 -11q20 -10 38.5 -18.5t39.5 -8.5q31 0 69 22q51 35 52 111q0 53 -25 100v-2q-12 25 -25.5 35t-29.5 21 q-4 4 -14 8l-9 4q-29 23 -44 30t-36 13q-10 4 -25.5 10t-45.5 23h2l-11 4q-35 20 -77.5 41.5t-81.5 25.5q-6 2 -13 2h-14q-41 0 -67.5 -23.5t-40.5 -78.5l-11 -8q-4 -4 -9 -6t-15 -11q-27 -23 -40 -28.5t-24 -11.5q-12 -6 -26.5 -13.5t-38.5 -30.5q-29 -23 -50.5 -59.5 t-21.5 -83.5z" />
<glyph unicode="_" horiz-adv-x="1083" d="M27 -88q0 -100 57 -156.5t158 -56.5h157q16 0 40 1t53 3q129 8 232 15.5t183 15.5q55 2 62 6q39 8 63 65q21 48 21 97q0 106 -140 125q-6 2 -16 2h-29l-319 -27q-80 -6 -120 -8l-40 -2h-287q-18 0 -47 -29q-29 -35 -28 -51z" />
<glyph unicode="`" horiz-adv-x="555" d="M88 1579q0 -18 1 -26.5t5 -18.5q10 -33 22.5 -56.5t30 -43t40 -38t55.5 -42.5q35 -25 58.5 -43.5t33.5 -32.5q31 -39 54.5 -48t31.5 -9h4q39 14 56.5 26.5t17.5 40.5q0 18 -23 68q-16 33 -39.5 69.5t-51.5 72.5t-57.5 65.5t-56.5 48.5q-66 43 -112 43q-33 0 -51.5 -17.5 t-18.5 -58.5z" />
<glyph unicode="a" horiz-adv-x="1261" d="M37 215q0 -55 16.5 -103.5t42.5 -80.5q41 -51 98.5 -71.5t124.5 -20.5q63 0 135 16t144 43t139.5 60.5t122.5 66.5h14q8 -10 10.5 -21.5t2.5 -23.5q0 -23 -4 -43.5t-4 -36.5q0 -63 65 -63q8 0 18.5 4t20.5 4q8 0 12 -2q20 -10 47 -11q29 0 49.5 16.5t33 41t18.5 55.5 t6 61v19l55 383q8 49 14.5 93t17.5 93t28.5 107.5t50.5 136.5q-6 37 -28.5 62.5t-55.5 41t-74 21.5t-86 6q-35 0 -65.5 -2t-53.5 -6q-98 -12 -184 -22.5t-166 -20.5t-155.5 -23.5t-153.5 -31.5q-29 -33 -36 -59.5t-7 -67.5v-52q0 -23 20.5 -29.5t51.5 -6.5q80 0 159.5 14 t159.5 31q66 10 133.5 21t136.5 11h43q10 0 21.5 -1t21.5 -3h4q25 -8 34 -16t9 -17q0 -4 -2 -10t-4 -10q-8 -35 -12 -73t-33 -64l-12 -4q-82 27 -150.5 43t-154.5 18h-10q-72 0 -139.5 -12t-135 -43t-136.5 -83t-142 -130q-41 -47 -58.5 -99.5t-17.5 -105.5zM281 256 q0 33 40.5 68.5t96 66.5t114 51.5t93.5 20.5h8q16 2 32.5 3t32.5 1q61 0 113.5 -16.5t58.5 -57.5l-4 -10q-100 -82 -228 -131t-271 -49h-35q-51 20 -51 53z" />
<glyph unicode="b" horiz-adv-x="1284" d="M90 80q0 -16 2 -21q10 -61 63.5 -82.5t125.5 -21.5q51 0 104 3t100 11q113 25 229.5 55.5t222 79t191.5 116t136 165.5l36 84q25 51 31 97t6 100v63q0 59 -19.5 111.5t-62.5 91.5q-47 25 -109.5 35t-131.5 10q-129 0 -253 -34t-259 -89q16 84 34.5 181.5t18.5 185.5v20 q0 12 -2 23q-16 8 -30.5 13t-28.5 5q-37 -4 -77 -16.5t-77 -20.5q-10 -27 -19.5 -49t-21.5 -63t-28.5 -111t-41 -190.5t-58.5 -303t-81 -448.5zM336 270q0 37 8 70t18.5 65.5t18.5 67.5t8 72l6 8q2 0 8 8l3 2q23 18 66.5 48t92.5 34q98 33 188.5 52.5t172.5 19.5 q51 0 95 -9.5t81 -33.5l4 -4q2 -2 2 -8t2 -9q6 -19 6 -35q0 -47 -21.5 -86.5t-59.5 -75.5t-87 -68t-104 -62q-100 -41 -210 -71t-220 -30h-33q-25 0 -31 2l-8 6q-4 10 -5 18.5t-1 18.5z" />
<glyph unicode="c" horiz-adv-x="1257" d="M57 338q12 -49 22.5 -88t28 -73t46 -63.5t75.5 -60.5q74 -47 148 -69.5t160 -22.5q78 0 163 19q80 14 142.5 29.5t120 36t114 50t123.5 74.5q14 8 22.5 28.5t8.5 43.5q0 20 -6 41.5t-16.5 40t-26 30t-33.5 11.5h-10q-41 -6 -81 -22.5t-81 -35l-82 -37t-80 -28.5 q-59 -14 -121.5 -22.5t-126.5 -8.5q-16 -4 -30 -4h-29q-49 0 -88 13t-64.5 32.5t-41 42t-17.5 43.5q-25 39 -25 90q0 41 15.5 81t39 71.5t49 53t44.5 25.5q72 51 152.5 83t172.5 32q43 0 85 -8t85 -18h3q41 -14 75.5 -36t75.5 -50q2 -2 2 -3l2 -2h4q23 -16 35 -27.5 t41 -11.5q27 0 62.5 16.5t67.5 39t53.5 48.5t21.5 44v2q-8 6 -8 12v2q-76 111 -217.5 177.5t-321.5 66.5q-53 0 -111.5 -7t-117.5 -24q-199 -68 -319 -172t-167 -239q-6 -18 -13 -53t-12 -72t-9.5 -71t-4.5 -50z" />
<glyph unicode="d" horiz-adv-x="1359" d="M82 256q0 -92 32.5 -151.5t100.5 -102.5q35 -20 85 -32.5t108 -12.5q129 0 270 44t262 118l14 -4q4 -8 4 -29q0 -16 -2 -29.5t-2 -27.5q0 -31 21 -49q68 -6 119 -7q109 0 144.5 31t35.5 102q0 41 -6 95q6 10 16 87t39 212q6 31 21.5 91t35 137t41 164t43 168t39 150.5 t27.5 112.5l-14 53q0 16 -36 32.5t-83 16.5q-29 0 -56.5 -8t-50 -27.5t-37 -53t-16.5 -83.5q-4 -29 -13.5 -65.5t-13.5 -71.5q-12 -63 -27.5 -130.5t-37.5 -119.5l-8 -6q-4 -2 -19 -2h-12q-25 0 -47.5 8t-46.5 35q-72 23 -159 44.5t-185 21.5q-66 0 -131.5 -15.5 t-130.5 -52.5q-125 -47 -212.5 -183t-99.5 -339q-8 -33 -10 -63.5t-2 -57.5zM301 377q6 39 11 73.5t18.5 67.5t38 66.5t69.5 72.5q41 35 82 47.5t86 12.5q41 0 89 -10.5t100 -26.5h2q20 -4 41.5 -10t48.5 -11q37 -10 81 -37.5t68 -54.5l2 -4q0 -6 1 -12t1 -12v-47 q0 -25 -7 -45.5t-29 -47.5l-3 -2q-51 -39 -99 -67.5t-98 -49t-104.5 -35t-115.5 -22.5q-47 -6 -84 -10t-68 -4q-37 0 -63 6q-25 4 -38.5 19.5t-20.5 39t-8 50t-1 53.5z" />
<glyph unicode="e" horiz-adv-x="1153" d="M82 305q0 -10 2 -20q0 -82 46 -138.5t106 -97.5q78 -53 163.5 -72.5t184.5 -19.5q129 0 265 29.5t273 74.5h2q33 16 48.5 59.5t15.5 84.5t-16.5 68.5t-51.5 27.5q-31 0 -71.5 -13.5t-81.5 -29.5q-29 -10 -57.5 -20.5t-69.5 -20.5q-86 -18 -163 -32.5t-145 -14.5 q-72 0 -129 21.5t-92 97.5q29 29 83.5 34t99.5 5q98 2 195 9t188.5 31.5t170 75t140.5 140.5q31 39 43 88t12 106q0 59 -22.5 115.5t-73.5 79.5q-57 27 -132 40t-161 13q-53 -4 -111.5 -9t-119 -16.5t-119 -28t-107.5 -42.5q-39 -23 -93 -78t-103 -135t-84 -179.5 t-35 -209.5v-23zM362 575v7q2 39 35 76.5t77 66.5t91 47.5t80 20.5q41 14 68.5 19t48.5 5q20 0 33.5 -4t25.5 -6h23q33 0 65.5 -5t59 -15.5t42 -24.5t15.5 -33v-8l-72 -105q-29 -25 -48 -38t-47 -21t-74 -13t-126 -14q-100 8 -158.5 14.5t-89 11.5t-38.5 9t-11 10z" />
<glyph unicode="f" horiz-adv-x="888" d="M74 4q0 -33 16 -56.5t64 -23.5q37 0 61 8q57 12 87 36t43 55.5t16.5 68.5t7.5 78q12 98 24.5 225t52.5 258q31 14 70 15q10 0 21.5 -1t25.5 -1q10 0 21.5 1t23.5 3q57 8 102.5 12t78 9t54 15.5t34.5 30.5q16 25 16 54q0 20 -4 39.5t-4 35.5q0 53 -19.5 62.5t-66.5 9.5 q-35 -6 -73 -11t-76 -10.5t-71.5 -7.5t-56.5 -2l5 46t14.5 100.5t24 100.5t34.5 46q31 0 77 -1t94 -5t91 -11t68 -20q2 0 26.5 -2t54 -5t56.5 -6t33 -5t11 -3t11 -1q23 0 43.5 13t36 34.5t23.5 48.5t8 53q0 27 -9.5 49.5t-31.5 36.5l-70 47q-10 2 -18 2h-17h-69 q-27 0 -48.5 -1t-41.5 -1h-39q-31 0 -93.5 -1t-132 -3t-134 -3t-99.5 -1q-31 -6 -55.5 -18.5t-44 -46t-35.5 -94t-33 -164.5q-10 -172 -41 -303.5t-63.5 -252t-58 -246.5t-25.5 -286z" />
<glyph unicode="g" horiz-adv-x="1267" d="M70 -193q0 -37 24 -55q31 -25 76 -43t98.5 -31.5t108.5 -19.5t104 -6q119 0 223.5 24.5t225.5 102.5q145 94 214.5 209t94.5 252q23 51 28 94t9 86q16 92 24.5 144t14.5 93q6 53 18.5 93.5t23.5 76t20 73.5t9 87q0 45 -31.5 55.5t-74.5 10.5q-72 0 -104.5 -16.5 t-32.5 -84.5l-13 -10q-61 10 -118 31q-8 4 -16.5 5t-16.5 5q-39 10 -78 20.5t-76 10.5q-8 0 -39.5 -1t-68.5 -2t-73 -4t-52 -8q-41 -6 -90 -18t-103.5 -39t-111 -74t-111.5 -123q-25 -35 -40 -88t-22.5 -110.5t-10.5 -113.5t-3 -95q0 -74 48.5 -139.5t119.5 -100.5 q51 -25 116 -37t136 -12q117 0 237 34t224 99l16 -8q0 -27 -13 -50.5t-31.5 -45t-38 -38.5t-31.5 -32q-57 -51 -132 -77.5t-159 -26.5q-27 0 -52.5 2t-52.5 8q-35 6 -71.5 18.5t-71.5 25.5t-66.5 22.5t-58.5 9.5t-53.5 -18.5t-48 -46t-34.5 -59.5t-13 -59zM332 432 q0 41 13 82t42 78q31 45 76 75.5t97 50t106.5 28t101.5 8.5q57 0 110.5 -2t96.5 -13.5t72.5 -33t39.5 -60.5v-4q0 -92 -71.5 -162t-194.5 -119q-72 -29 -156.5 -43t-156.5 -14q-76 0 -109 12q-35 12 -51 44t-16 73z" />
<glyph unicode="h" horiz-adv-x="1150" d="M53 27q0 -39 47 -56q16 -8 47 -8q51 0 84 3t53.5 18.5t32 47t17.5 91.5q2 29 10 74t21.5 94t30 96t37 82t53 60.5t74.5 47t91 43t105 50.5q31 23 74.5 37t78.5 14q16 0 30.5 -5t18.5 -18v-8q-10 -14 -23 -54t-28.5 -96.5t-32 -123t-30 -133t-23.5 -129t-14 -109.5v-8 q0 -33 27.5 -52.5t80.5 -19.5h17q14 0 18 2q59 10 90 49t31 84l121 721q0 47 -13.5 92t-48.5 93q-71 22 -120 22h-4q-74 0 -141.5 -21.5t-132 -55t-127 -75.5t-126.5 -83q12 66 19.5 114.5t16.5 106t25.5 136.5t45.5 202v10q0 25 -24.5 35t-53.5 10h-35q-39 0 -73.5 -6 t-60.5 -24.5t-40 -50.5t-14 -81q-23 -139 -37.5 -227t-23.5 -144.5t-16 -93.5t-14.5 -72.5t-17.5 -80.5t-25.5 -120t-39 -190.5t-58.5 -289.5z" />
<glyph unicode="i" horiz-adv-x="483" d="M47 51q0 -43 27.5 -57t62.5 -14q61 0 89 15t42.5 51t25.5 96.5t38 150.5l47 184q12 41 23.5 82t24.5 91t29.5 118t39.5 164q0 4 2 6q0 4 1 5t1 5q0 39 -30 56.5t-67 17.5q-49 0 -95 -23.5t-54 -64.5q-33 -119 -57.5 -221.5t-57.5 -223.5q-16 -59 -28.5 -109t-22.5 -98.5 t-19.5 -98.5t-19.5 -111q0 -4 -1 -5t-1 -6v-10zM264 1182q0 -47 41 -68.5t109 -21.5q98 10 144 38.5t56 65.5l7 35q4 16 4 14v8q0 45 -47.5 66.5t-116.5 21.5q-31 0 -66 -10t-63.5 -30.5t-48 -50t-19.5 -68.5z" />
<glyph unicode="j" horiz-adv-x="575" d="M-274 -55q0 -25 6 -51q6 0 25.5 -29t41 -62.5t40 -60.5t24.5 -25q45 -26 89 -26h3q31 0 59.5 11t54 27.5t48 35t45.5 34.5q57 41 110.5 82t95.5 84t67.5 90t25.5 101l182 786q0 2 1 4t1 4q0 41 -37 62.5t-82 21.5q-33 0 -63.5 -12t-48.5 -41q-20 -35 -30.5 -58.5t-19 -53 t-19.5 -73.5t-32 -120q-31 -133 -49 -246t-46 -201t-77 -149.5t-141 -89.5q-10 57 -47 83.5t-82 26.5q-53 0 -99 -38.5t-46 -116.5zM383 1182q0 -47 41 -68.5t108 -21.5h29q74 10 118 38.5t54 65.5l6 35q4 16 4 14v8q0 45 -47 66.5t-116 21.5q-72 0 -125.5 -39.5 t-69.5 -99.5q-2 -2 -2 -12v-8z" />
<glyph unicode="k" horiz-adv-x="1222" d="M53 12q0 -27 14.5 -44t61.5 -17q10 0 20.5 1t20.5 3h4q55 10 91 42t36 71v10q14 55 21.5 80.5t11.5 50t11 61.5t22 115l10 6h20q41 0 74 -5t68 -19q72 -41 128 -83t115 -87q23 -20 33 -25q10 -8 21.5 -16.5t21.5 -18.5q61 -37 101 -77t75 -68q10 -4 33 -4q27 0 56.5 10 t54 28.5t41 44t16.5 56.5q0 20 -4 31q0 16 -19 32l-174 127q-27 23 -64.5 52.5t-72.5 56.5q-33 27 -55.5 45t-42 32.5t-41 28t-51.5 31.5v17q53 45 116.5 78.5t133.5 66.5q29 14 84 37.5t109 54.5t95 68t41 78q0 45 -30.5 89t-92.5 44q-18 0 -42.5 -7.5t-53.5 -25.5 q-39 -25 -66.5 -40t-52 -29.5t-51.5 -29t-63 -36.5q-2 -2 -29 -18.5t-67 -42t-87 -55.5t-87 -54.5t-66.5 -41t-28.5 -16.5q-14 -23 -24 -22q-10 0 -11 29q0 35 12.5 100t29 131t31.5 119t21 63q10 39 24.5 76t37.5 80q2 2 2 18q0 12 -11.5 27.5t-28.5 30t-39.5 23.5t-43.5 9 h-37q-25 0 -47 -16t-53 -70q-10 -47 -15.5 -63t-8.5 -22.5t-6 -12.5t-9 -31q-6 -29 -18.5 -84t-27.5 -121.5t-32.5 -138t-31 -134t-23.5 -106.5t-12 -55q-49 -205 -74 -336t-25 -182z" />
<glyph unicode="l" horiz-adv-x="477" d="M70 53q0 -43 22.5 -76.5t87.5 -33.5h21q72 10 121 50t49 118l6 112q27 285 84 551t143 508q4 10 5 15.5t1 7.5q0 43 -35.5 63.5t-87.5 20.5q-29 0 -108 -23q-23 -10 -33 -18.5t-15 -20.5t-7 -31.5t-9 -50.5q0 -6 -6 -40t-14 -82t-18.5 -102t-19.5 -101.5t-16.5 -81 t-9.5 -39.5q-10 -51 -15 -76t-8 -39t-6 -27.5t-9 -42.5q-12 -47 -21.5 -91t-19 -89t-20.5 -95t-28 -112q-10 -41 -22 -84t-12 -90z" />
<glyph unicode="m" horiz-adv-x="1644" d="M66 18q0 -33 30.5 -47t65.5 -14q37 0 65 14q25 2 43 36t33.5 85t29 114.5t28 124t31 112t38.5 79.5q18 33 42 58.5t57.5 49t83 47t118.5 54.5q41 -10 49 -10h23q23 0 39 -7t18 -20v-2q0 -78 -21.5 -153.5t-48 -149.5t-52 -149.5t-33.5 -153.5v-12q0 -45 35.5 -67.5 t82.5 -22.5t89 24.5t46 71.5q14 45 38 158.5t83 287.5q37 27 73 61t74 61.5t81 47t96 19.5q14 0 17 -14.5t3 -30.5v-25q-2 -20 -11 -59t-25.5 -100.5t-39 -149.5t-51.5 -205q-8 -16 -10 -32.5t-2 -32.5v-35q0 -39 19.5 -53.5t66.5 -14.5q68 0 133 47q25 18 45.5 81t38 149 t31.5 186t23.5 193.5t14.5 169t5 112.5q0 51 -6 100q-27 23 -56.5 30t-60.5 7q-33 0 -78 -14t-95 -36.5t-99 -49.5t-90 -51.5t-70 -44t-37 -27.5l-106 184q-20 20 -58 21q-31 0 -65.5 -11.5t-69.5 -26.5t-65.5 -33.5t-49.5 -33.5q-27 -6 -62.5 -32.5t-111.5 -61.5 q0 31 17.5 77t17.5 85q0 23 -11 40t-44 21q-10 0 -22.5 -1t-24.5 -3h-2q-2 0 -4 -1t-7 -1h-4q-86 -12 -116.5 -47t-30.5 -82q0 -131 -22.5 -238.5t-53.5 -209t-61.5 -205.5t-46.5 -229v-9z" />
<glyph unicode="n" horiz-adv-x="1222" d="M94 27q0 -29 25.5 -39.5t50.5 -10.5q33 0 65.5 15.5t63.5 36.5q29 27 35 59.5t6 67.5q20 88 32.5 144t21.5 96t16.5 69t15.5 59q10 14 51 36t93.5 44.5t103.5 43t82 32.5q18 10 49 20.5t64.5 19.5t67.5 15t60 6q10 0 31 -4q10 -16 10 -41q0 -18 -6 -45.5t-18.5 -70.5 t-29.5 -104.5t-38 -147.5q-23 -66 -40 -126.5t-23 -142.5v-2q0 -82 78 -82q27 0 69 13l2 -6v4q14 2 26.5 3t22.5 1q31 0 48.5 6t23.5 43q12 98 24.5 190.5t22.5 147.5q6 29 8 38t6.5 29.5t14.5 68.5t33 157q4 8 15 55t22.5 101.5t20.5 100.5t9 52q0 37 -24.5 63.5 t-65.5 26.5h-16q-96 0 -187.5 -23.5t-181.5 -58.5t-181 -72.5t-188 -68.5q4 35 9.5 69.5t5.5 69.5q0 23 -29 36t-70 13q-25 0 -51 -7t-47.5 -24.5t-35 -45t-13.5 -68.5v-12q-6 -23 -17.5 -70t-23.5 -100.5t-22.5 -103.5t-14.5 -81q-6 -18 -16 -65t-22.5 -112.5t-24 -145.5 t-19.5 -164v-8z" />
<glyph unicode="o" horiz-adv-x="1314" d="M49 410q0 -27 9.5 -60t20.5 -60.5t21.5 -47t12.5 -17.5q2 -10 26.5 -36.5t59 -56.5t72.5 -55.5t69 -31.5q111 -51 238 -51q49 0 108 8t120.5 23.5t118 37t99.5 46.5q170 102 242.5 211.5t72.5 232.5q0 20 -1 49t-4 60.5t-11 63.5t-23 58l-86 107q-23 18 -43 32.5 t-47.5 27t-70.5 24.5t-111 26q-49 10 -94 16.5t-90 6.5q-145 0 -303 -70q-176 -92 -284 -229t-120 -297q-2 -6 -2 -18zM291 461q0 53 23.5 103t70.5 79q37 31 67.5 56.5t60.5 42t63.5 25.5t76.5 9q16 6 48 10.5t69 4.5q47 0 93 -6.5t75 -22.5q94 -33 141 -79q34 -33 34 -91 q0 -22 -5 -47q0 -45 -36 -85t-85 -87q-4 -4 -6 -7.5t-4 -5.5l-4 -4q-82 -70 -179.5 -104.5t-201.5 -34.5q-84 0 -158 23q-72 35 -107.5 95t-35.5 126z" />
<glyph unicode="p" horiz-adv-x="1312" d="M39 -289q0 -20 8 -33.5t31 -25.5q39 -16 74 -17q68 0 133 50q20 16 26 34.5t6 38.5v70q0 55 9.5 109.5t40.5 93.5l4 4q37 12 96 24q92 8 175 39t181 64q127 55 226.5 112.5t168 121t104.5 134t36 152.5v18t-2 19q0 45 -8 76q-18 78 -71.5 124t-152.5 76 q-53 18 -109.5 24.5t-109.5 6.5q-104 0 -201.5 -13.5t-195.5 -23.5h-2q-47 -4 -87 -12t-81 -41q-57 -147 -100 -299t-77 -305.5t-62.5 -309t-59.5 -311.5zM410 309q6 98 31.5 210t72.5 210q6 16 36 24.5t71 14.5q59 14 125.5 19.5t125.5 5.5q98 0 175 -17.5t106 -56.5l2 -8 q-25 -74 -83 -134.5t-135 -109.5t-163 -86t-166 -66h-4q-37 0 -78 -9t-75 -9h-19q-8 0 -16 4z" />
<glyph unicode="q" horiz-adv-x="1284" d="M88 385q0 -25 2 -48.5t2 -43.5q0 -92 31 -151.5t98 -102.5q76 -45 193 -45q61 0 128.5 10t135 29.5t133.5 47.5t121 62q2 -4 2 -12q0 -12 -7 -35.5t-15.5 -60.5t-16.5 -90.5t-10 -126.5q-8 -25 -8 -51q0 -41 24.5 -63.5t69.5 -22.5q51 0 102 32q51 31 70.5 57.5 t19.5 51.5l-10 37q0 27 7 90t20.5 153.5t34 200t47.5 227.5q16 72 28.5 122t25.5 97.5t31.5 98.5t45.5 125l2 4l6 6v10q0 23 -14.5 38.5t-36 26.5t-45 17t-41.5 8h-19q-35 0 -56.5 -9t-36.5 -27.5t-26.5 -48t-25.5 -68.5l-39 -39q-37 6 -81 24.5t-92 38t-101.5 35 t-110.5 15.5q-66 0 -131.5 -15.5t-130.5 -52.5q-49 -29 -98.5 -77t-92.5 -112.5t-76.5 -144.5t-54.5 -172q-2 -10 -3 -21.5t-1 -23.5zM324 373q0 23 2 45t6 43q6 39 16 69.5t28.5 59t48.5 58.5t75 67q39 33 56 41t44 8h41q41 0 84 -7t90 -18q25 -6 33 -8t14 -4l2 -2 q14 -6 34 -13t40 -16.5t38.5 -23t31.5 -33.5l-31 -123q-6 -23 -26.5 -46.5t-57.5 -70.5q-45 -41 -85 -71.5t-82 -51t-90 -30.5t-110 -10q-80 0 -153 30q-29 10 -39 40t-10 67z" />
<glyph unicode="r" horiz-adv-x="942" d="M86 8q0 -41 29.5 -57.5t66.5 -16.5q55 0 100.5 18.5t61.5 82.5q14 57 26.5 115.5t21.5 109.5t17.5 90t14.5 58q0 18 2 40.5t6 46t11.5 43t19.5 31.5q14 23 35.5 41.5t54.5 37t80 38t115 45.5l178 62q14 8 29.5 10t33.5 2h21q25 0 48 4t44.5 20.5t41 51t34.5 96.5l-2 4h-2 q-23 59 -58 85t-74 26q-35 0 -78.5 -14.5t-91 -36t-95.5 -47t-93 -50.5q-96 -55 -162 -84q0 37 14.5 72t14.5 63q0 20 -12.5 37t-46.5 31q-20 4 -39 5t-39 1q-123 0 -133 -115q-6 -12 -20.5 -69.5t-34 -141.5t-40 -186t-40 -202.5t-36 -191.5t-24.5 -155z" />
<glyph unicode="s" horiz-adv-x="1241" d="M100 621q0 -6 1 -13.5t1 -13.5q0 -104 69 -157.5t185 -53.5q104 0 224 17.5t235 17.5q23 0 44.5 -1t43.5 -5q29 -4 62.5 -18.5t33.5 -39.5q0 -14 -14 -28q-18 -41 -51 -68t-76 -44t-93 -24.5t-101 -7.5q-82 0 -162 23q-25 6 -46.5 17t-37.5 24l-6 4h-2q-27 39 -74 39 q-29 0 -59.5 -14.5t-56 -38t-42 -53t-16.5 -58.5q0 -35 28 -64q102 -37 210 -75.5t218 -38.5q47 0 93.5 5t103.5 17h21q88 0 162.5 39t127 100.5t82 135t29.5 145.5q0 49 -14.5 92t-46 76t-80.5 52.5t-117 19.5q-8 0 -16.5 -1t-16.5 -1l-174 -6q-39 -2 -74.5 -4.5 t-70.5 -6.5q-39 -4 -75 -8t-71 -4q-49 0 -68.5 11.5t-50.5 45.5q4 47 44 84t96.5 61.5t120 38t114.5 13.5q45 0 88 -12.5t85 -32t82 -41t81 -39.5q92 25 130 57.5t38 67.5q0 43 -48 88t-116.5 80t-147.5 57.5t-141 22.5q-45 0 -95 -10.5t-113 -26.5q-96 -25 -183.5 -70 t-153 -103.5t-104.5 -128t-39 -140.5z" />
<glyph unicode="t" horiz-adv-x="954" d="M100 836q0 -29 17 -68q0 -12 9 -21.5t23.5 -16.5t30 -12t25.5 -7l8 -13q-6 -23 -10 -45t-8 -45l-7 -18q-20 -92 -35.5 -177t-15.5 -177q0 -78 17.5 -154t62.5 -139q16 -16 48 -25.5t69 -9.5q35 0 95 20.5t132 54t144.5 77.5t132 92.5t97.5 97.5t38 92q0 23 -11.5 49.5 t-39.5 54.5q-16 14 -38 23.5t-44 9.5q-16 0 -36 -8t-39.5 -21.5t-35.5 -28.5t-24 -30q-25 -29 -59 -63.5t-72.5 -65.5t-78.5 -51.5t-75 -20.5q-8 0 -25 5q-27 8 -36 32.5t-9 57.5q0 27 4 54.5t9.5 51t9.5 41t4 23.5q8 37 15 68.5t13.5 61t10.5 59.5t8 67l6 4q25 10 47.5 14 t53 7t75.5 9.5t117 22.5q63 2 132 7t108 9h18q66 0 118 28t62 73l-14 94q0 47 -24.5 63.5t-65.5 16.5t-82 -10.5t-82 -14.5q-70 -12 -143.5 -23.5t-139.5 -11.5q-8 -2 -20 -2q-25 0 -30 16.5t-5 51.5v12l2 2v2h-2q-2 0 2 4q16 45 16 84q0 27 -12 44.5t-45 17.5 q-18 6 -41.5 13t-48.5 7q-35 0 -61.5 -21.5t-30.5 -82.5q-4 -16 -6 -30.5t-4 -31.5q0 -4 -1 -5t-1 -5v-2q-4 -41 -22.5 -75.5t-76.5 -34.5h-4q-45 -6 -82 -40t-37 -87z" />
<glyph unicode="u" horiz-adv-x="1142" d="M82 35q0 -37 12 -60.5t29 -27.5q20 0 25.5 -2t10.5 -3t14 1t37 7t82 17.5t146 32.5q74 16 127 27.5t91 17.5t62.5 8t41.5 2q18 0 30.5 -1t24.5 -1l2 -19q2 -20 11.5 -43.5t27.5 -43t53 -19.5h6q57 4 88 19.5t31 52.5q0 20 -12 55q10 57 18.5 101.5t17.5 84.5t18 84 t24 105q8 35 18 82t21.5 94t23 87t21.5 63l45 151q14 23 14 58q0 33 -16.5 59.5t-52.5 26.5q-8 0 -25 -4q-6 0 -11 1t-12 1q-41 0 -79.5 -21.5t-55.5 -81.5q-20 -78 -32.5 -124t-21.5 -77.5t-15.5 -55t-13.5 -53.5t-16 -75t-24 -119q-18 -53 -34.5 -79.5t-39 -40t-56 -21.5 t-85.5 -25q-14 -4 -54 -12t-87 -17t-93 -16.5t-73 -7.5q-2 -2 -6 -2q-12 0 -12 23t7 51.5t11 42.5q20 86 30.5 127t18.5 74.5t20.5 82t37.5 146.5q4 6 12 33.5t15 59.5t13.5 58.5t6.5 32.5q0 29 -27 45.5t-67 16.5q-92 0 -136.5 -44t-62.5 -116q-4 -12 -13.5 -60.5 t-20.5 -118t-24.5 -153.5t-25.5 -169t-22.5 -162.5t-16.5 -135.5q0 -6 -1 -11t-1 -9z" />
<glyph unicode="v" horiz-adv-x="1077" d="M113 911q0 -29 12 -70.5t29 -72.5q6 -25 10 -42t10 -36.5t15.5 -47.5t25.5 -73l7 -23q7 -22 16.5 -56.5t19.5 -74.5t18 -77q0 -4 5.5 -24.5t10.5 -43t10 -42t5 -21.5q14 -45 25.5 -81t24 -67.5t25.5 -63.5t32 -69q27 -20 58.5 -29.5t66.5 -9.5q66 0 106 31q20 14 45 53 t47.5 85t42 90t27.5 69q25 39 35 59.5t19 39t23.5 43t45.5 73.5q80 117 132 191.5t86 130t55.5 100.5t39.5 100h2q8 14 8 35q0 35 -35.5 65.5t-80.5 30.5q-20 0 -31 -4q-29 -6 -46.5 -15t-32.5 -27.5t-32.5 -51.5t-45 -86t-69.5 -132t-108 -189q-25 -31 -45 -64t-42.5 -65.5 t-49.5 -63.5t-64 -55l-16 4q-25 8 -42 64.5t-31.5 138t-29 174t-34 170t-47 130t-68.5 52.5h-2q-31 -2 -65.5 -6t-65.5 -26.5t-44 -56.5t-13 -63z" />
<glyph unicode="w" horiz-adv-x="1509" d="M117 911q0 -14 2 -22l98 -811q0 -72 27.5 -94.5t68.5 -22.5q66 0 133 43q98 174 174 332t148 293l18 -6q10 -29 16.5 -51.5t10.5 -39.5q6 -18 9 -31.5t7.5 -26.5t9.5 -28.5t11 -37.5q12 -47 23.5 -97.5t21.5 -95.5t20.5 -82t20.5 -57q4 -47 19.5 -84t70.5 -37q12 0 46 3 t58 11q43 51 92.5 128t99.5 166t100.5 184.5t97.5 186.5t91 172t81 140l-13 84q0 29 -29.5 42t-68.5 13q-43 0 -70.5 -12t-44 -33.5t-28 -50t-23.5 -61.5q-29 -45 -58.5 -101.5t-63 -120t-74.5 -130t-93 -130.5q-23 63 -33 96t-15 53.5t-8 35t-11 39.5q-6 109 -13.5 187.5 t-7.5 92.5v2q0 25 -10 62q-8 6 -29.5 12t-48 10t-53.5 7.5t-43 3.5q-27 0 -44 -5.5t-31.5 -15.5t-28 -25.5t-31.5 -35.5q-6 -12 -17.5 -31t-32 -54.5t-53 -95t-81.5 -153.5q-29 -51 -52.5 -90t-40.5 -39q-12 0 -20 28.5t-10 100.5q-6 12 -10.5 47t-7.5 80t-6 95t-7 92 t-9 70.5t-14 31.5q-10 0 -30.5 5t-44.5 5h-17q-8 0 -16 -4q-57 0 -95 -41t-38 -101z" />
<glyph unicode="x" horiz-adv-x="1208" d="M53 76q0 -20 12.5 -41t32 -36t45 -25.5t50.5 -10.5q18 0 53 19.5t72.5 46t70.5 53.5t49 41q37 35 100.5 90t145.5 102q72 -51 113 -103t86 -112q2 -4 16 -23.5t33.5 -42t41 -40t40.5 -17.5h39q18 0 36.5 3.5t35 13.5t26.5 28.5t10 49.5v12q0 8 -2 16q-31 72 -61.5 115 t-75.5 76q-66 84 -94.5 130t-28.5 75v4q33 29 57.5 50t48 40.5t48 38t57.5 41.5l49 35q33 20 68 49q25 18 44 32.5t38.5 32t41 40t48.5 56.5q0 31 -14.5 60t-37 49t-51 32.5t-57.5 12.5q-23 0 -46.5 -15.5t-51 -40t-59 -53t-70.5 -55.5q-72 -55 -106 -83.5t-59.5 -49 t-55 -44t-91.5 -66.5q-53 57 -96 123.5t-84 138.5q-6 10 -17 26.5t-24.5 32.5t-26 31.5t-20.5 21.5q-8 4 -26.5 11.5t-40.5 7.5q-18 0 -37 -7.5t-34 -24.5t-25.5 -49t-12.5 -81q18 -53 40.5 -95t50.5 -86t62.5 -97.5t75.5 -129.5q-39 -35 -60.5 -56t-42 -39.5t-46 -40 t-74.5 -56.5q-4 -4 -21.5 -18.5t-37 -32t-35.5 -30.5t-18 -13q-31 -23 -56.5 -44.5t-36.5 -56.5q-4 -12 -4 -22z" />
<glyph unicode="y" horiz-adv-x="1097" d="M4 -195q0 -47 24.5 -87t59.5 -40q59 0 108.5 26t102.5 73q72 63 139.5 122.5t142 135.5t161.5 180t196 256q68 92 120 168t99 154q12 16 23.5 33.5t23.5 35.5l62 121q0 29 -22.5 51.5t-55.5 36.5q-23 10 -47.5 17.5t-46.5 7.5q-47 0 -79 -41t-54 -90q-10 -37 -35 -90.5 t-65 -116t-94 -130t-122 -130.5l-14 2q-104 117 -170 248t-101 241q-14 31 -36.5 43t-49.5 12q-12 0 -27.5 -2t-33.5 -8q-45 -14 -79 -49t-34 -70q0 -12 6 -24l3 -2q31 -68 65.5 -126t67 -108.5t60.5 -91.5t44 -71q20 -25 44 -58t42.5 -63.5t30.5 -55t12 -32.5v-2l-2 -5 q-25 -49 -76 -89t-115.5 -85t-134 -102t-131.5 -139q-12 -25 -12 -56z" />
<glyph unicode="z" horiz-adv-x="1155" d="M33 -2q0 -12 2 -23.5t2 -23.5q0 -33 36 -45t66 -12q178 16 313.5 22t231.5 9t154.5 4t81.5 8q16 -4 30 -5h29q86 0 127 39t41 86q0 31 -21 66q-6 29 -20 46t-36.5 26.5t-51.5 13.5t-60 6h-10q-4 0 -7 1t-7 1q-37 0 -84 -9t-100 -20q-55 -10 -113.5 -21t-106.5 -11 q-12 0 -22 -1t-19 -1q-14 0 -23 6t-17 26q18 25 38.5 47.5t50 51t72.5 66.5t107 93q53 49 94 86t81 69t85 66.5t108 82.5q86 63 136.5 112t50.5 82q0 8 -6 19l-43 98q-25 0 -72 -3t-97 -7.5t-97.5 -8.5t-73.5 -8q-88 -14 -154.5 -19t-128.5 -9q-16 -12 -60 -15.5t-97.5 -5.5 t-106.5 -4t-86 -10q-63 -20 -83 -50t-20 -59q0 -25 6.5 -45t6.5 -33q0 -39 26.5 -57t63.5 -18q10 0 18 1t19 3q29 4 58.5 9t62.5 13q66 14 135 26.5t127 14.5q27 0 41 2t22 2q10 0 14.5 -7t14.5 -30q-37 -35 -61.5 -56t-49 -44t-57.5 -51.5t-87 -78.5t-136 -127t-205 -194 q-43 -41 -69.5 -70.5t-40 -52t-18.5 -39t-5 -30.5z" />
<glyph unicode="{" horiz-adv-x="946" d="M127 723q0 -43 26.5 -77t84.5 -34q82 0 109.5 -23.5t27.5 -78.5q0 -16 -1 -30.5t-3 -35.5q-6 -66 -15.5 -127t-17.5 -118v2q-8 -43 -13.5 -82t-7.5 -68q-2 -16 -3 -33.5t-1 -33.5q0 -119 48.5 -181.5t162.5 -62.5q61 0 148 22q-4 -2 5 1.5t15 5.5l-2 -2q18 4 41 11 t42.5 20.5t32.5 34.5t17 56v15q0 39 -23.5 71.5t-64.5 32.5q-14 0 -24.5 -4t-24.5 -10q-47 -25 -78 -25q-25 0 -37 16.5t-12 45.5q0 4 1 8t1 8q4 27 7 53.5t7 61.5q8 53 16.5 121.5t16.5 156.5q2 16 2 31v33q0 61 -15 113.5t-58 103.5q43 37 70.5 84t45 105.5t26.5 129 t17 154.5q4 39 11.5 82t20.5 80t34.5 60.5t56.5 23.5h41q18 0 34.5 3t29 13t21.5 30.5t11 55.5v19q0 63 -26.5 80.5t-71.5 17.5q-90 0 -160.5 -40t-121 -104.5t-80 -147.5t-37.5 -169l-4 -59q-6 -66 -12.5 -115t-24 -83t-50 -51.5t-89.5 -17.5q-35 0 -64 -13t-48.5 -34.5 t-29.5 -48t-10 -53.5z" />
<glyph unicode="|" horiz-adv-x="391" d="M86 -145v-19q0 -37 12.5 -60.5t30.5 -37.5t38.5 -19.5t39.5 -5.5q33 0 60.5 41t41.5 121l2 -2l2 31q2 10 3 23.5t1 29.5l117 1341q0 12 2 30t2 36q4 27 6 55.5t2 59.5q0 55 -16 95t-63 40q-4 0 -9.5 -1t-9.5 -1q-43 -12 -65.5 -27.5t-34.5 -42t-17.5 -67.5t-9.5 -101v2 q-2 -10 -2 -22t-2 -27l-127 -1452v4q-4 -14 -4 -24z" />
<glyph unicode="}" horiz-adv-x="946" d="M129 -125v-16q0 -68 38 -92.5t79 -24.5q70 0 135 36t116.5 94t84 134t39.5 154l16 194q2 25 9 62t25.5 71.5t50.5 60t85 25.5q72 0 108.5 42t36.5 87q0 39 -27.5 70t-84.5 33l-45 4q-6 2 -11.5 4t-13.5 6l2 -2q-10 2 -19.5 7t-16.5 16.5t-11 33t-4 60.5q0 88 13.5 191.5 t35.5 211.5l-2 -2q6 20 8 39t2 37q0 51 -14 98t-45 84t-77 58.5t-110 21.5q-57 0 -96 -3t-86 -15h2q-47 -10 -69.5 -46t-22.5 -77t24.5 -74t84.5 -33q-2 0 4 1l15 2.5t19.5 2.5t16.5 1l57 6q10 0 31 -4h-2q16 -4 21.5 -13.5t5.5 -19.5v-12q0 -6 -2 -13 q-25 -121 -39.5 -238.5t-14.5 -215.5q0 -154 66 -226q-74 -55 -106.5 -142t-41.5 -196l-16 -196q-2 -20 -5 -45t-12.5 -46.5t-25.5 -38t-43 -18.5q-78 -10 -120 -50t-48 -89z" />
<glyph unicode="~" horiz-adv-x="892" d="M109 1071q0 -35 30.5 -60.5t79.5 -25.5q33 0 57.5 18.5t47.5 43.5q16 16 32.5 30.5t30.5 14.5q12 0 33 -31q27 -29 66.5 -58.5t115.5 -29.5q61 0 110.5 11t84 39t56.5 73.5t28 117.5v7q0 29 -34 53t-73 24q-31 0 -57.5 -14t-42.5 -45q-6 -25 -8 -29q-4 -18 -11.5 -39.5 t-25.5 -21.5q-16 0 -29.5 14.5t-30.5 32.5q-23 31 -56.5 59.5t-98.5 28.5q-41 0 -93.5 -17.5t-98.5 -47t-78.5 -66.5t-34.5 -74v-8z" />
<glyph unicode="&#xa1;" horiz-adv-x="821" d="M25 -252q0 -16 9 -33.5t21 -29.5l6 -4q39 -41 77 -55.5t77 -14.5q10 0 26.5 2t37.5 6q51 10 83.5 34.5t53 58.5t33 75t22.5 82q45 186 102.5 358t110.5 353q2 8 6 25.5t9.5 39t8.5 45t3 43.5q-1 53 -21 80l-166 72q-27 -10 -52.5 -32t-45.5 -46.5t-33.5 -50t-15.5 -43.5 q-4 -8 -28.5 -78t-59.5 -169t-77 -214t-79 -215t-62.5 -171t-31.5 -81q-14 -16 -14 -37zM446 1104q0 -57 52 -96l112 -68q-2 2 11.5 4t31 5t30.5 5t11 4q70 14 119 51.5t70 94.5q16 20 16 51q0 18 -10 39q-6 23 -27.5 50.5t-48.5 43.5h-6q-43 12 -94 12q-33 0 -57.5 -2 t-41.5 -4q-29 -6 -55.5 -21.5t-48 -37t-37.5 -45t-22 -45.5q-2 -8 -3.5 -17.5t-1.5 -23.5z" />
<glyph unicode="&#xa2;" horiz-adv-x="714" d="M-49 616q8 -80 40 -136t118 -83q-4 -10 -7.5 -19t-3.5 -22q-35 -104 -35 -147v-14q10 -31 31 -51.5t62 -30.5h20q47 0 75 19.5t42 47.5q6 12 10 25.5t8 34t7.5 50t7.5 72.5v-2q0 6 2 12.5t2 10.5q76 20 130 49t83 43q4 6 12 11l8 6l-2 -3q92 70 92 123v11 q-14 29 -31.5 43t-33.5 24q-16 4 -21 4h-12q-23 0 -45.5 -9t-56.5 -32q-25 -16 -48.5 -27.5t-64.5 -23.5q-35 -16 -57.5 -23.5t-38.5 -7.5h-2q-14 4 -17.5 11.5t-5.5 25.5v8q0 31 12.5 79t34 97.5t50 90.5t59.5 59h6q4 0 45 -12l12 -5q11 -5 15 -7v2q25 -14 42 -21.5 t46 -7.5q23 0 53 10q33 16 46 30.5t13 41.5t-22 65q-39 53 -119 99q2 6 4 14t6 18q2 4 4 9.5t13 13.5q8 14 19 32.5t20.5 39t16.5 40t7 35.5q0 4 -1 10.5t-1 8.5q-16 41 -45 54t-63 13q-49 0 -82 -21.5t-48 -55.5q-12 -23 -19 -37.5t-13 -30.5t-14.5 -43t-22.5 -72 q-98 -37 -164 -104.5t-105.5 -144t-56 -151.5t-16.5 -128v-21z" />
<glyph unicode="&#xa3;" horiz-adv-x="1044" d="M6 143q0 -16 5 -27.5t22 -27.5q47 -49 97 -66.5t132 -17.5h39q16 0 32.5 1t33.5 1q84 6 132 9t80.5 5.5t60.5 3.5t73 3q39 2 87 9t92 20.5t80 33t50 45.5q4 4 6 4t2 -2h2q4 0 5 7.5t1 33.5q0 2 -1 3t-1 3q0 33 -18 56q-39 27 -72 26q-6 0 -16 -1t-21 -1q-6 -2 -28 -2 q-23 0 -32 -1t-34 -3q-31 -4 -72 -8t-85 -7t-89 -6.5t-82 -5.5h-10q18 16 29.5 29.5t21 29t17.5 34t18 47.5q4 12 5 25.5t3 25.5q29 0 55.5 1t47.5 3q10 0 19 1t16 1q35 0 54 1t31.5 4t21.5 9.5t24 14.5q16 14 19 22t3 21q0 10 -5 27.5t-21 37.5q-12 16 -13 17h23q14 0 22 2 h-6q37 8 57.5 14t33 20.5t21.5 42t21 78.5l-4 -2l49 158q2 6 2 14t2 15q8 20 12.5 35.5t4.5 44.5q0 35 -16.5 70.5t-55.5 68.5q-16 12 -61 35.5t-99.5 48t-108.5 43t-89 18.5h-17q-80 -12 -152.5 -58t-131 -104.5t-99.5 -120t-59 -104.5v-2q-6 -20 -10 -38.5t-4 -35.5v-14 q0 -8 2 -14q4 -53 22.5 -99.5t40.5 -87.5h-8q-86 1 -86 -75q6 -14 10 -37t4 -31q12 -37 46 -49t81 -12h33q-12 -27 -39.5 -52.5t-60.5 -47t-65 -38t-52 -24.5q-10 -6 -24 -16l-15 -9q-41 -41 -41 -76zM436 758v10q0 6 4 18v-2q12 51 46 98.5t77 84.5t89 63.5t83 38.5 q6 0 11.5 1t15.5 1q6 0 22 -6v-10q0 -16 -5 -33.5t-9 -34.5q-8 -25 -8 -47l-33 -86q-2 -4 -3 -10t-1 -17q-6 -23 -13 -47t-7 -57q0 -63 43 -107q-25 6 -54.5 8.5t-62.5 2.5q-16 0 -30.5 -1t-33.5 -1h-55q-6 4 -10 6t-8 8q-23 29 -40.5 58.5t-17.5 60.5z" />
<glyph unicode="&#xa4;" horiz-adv-x="727" d="M-39 614q0 -20 10 -32q27 -61 99 -62q4 0 12 1t20 5h-8q49 10 79 16.5t56.5 9.5t59.5 5t90 6q37 6 68.5 8t62.5 2h82q74 18 80 68q2 6 2 21q0 25 -15.5 42t-31.5 23q-27 12 -73 17.5t-89 5.5h-6q31 29 70.5 67.5t84.5 87.5q31 35 59.5 80t51.5 90t36 88t13 74v16 q-6 82 -90 95q-8 0 -20 4q-23 0 -37 10q-6 6 -7.5 8t-3.5 6q-10 10 -16 20.5t-27 18.5l-2 4q-39 16 -75 17q-45 0 -103.5 -26t-128.5 -83q-31 -23 -76 -68t-88 -96t-73.5 -97t-30.5 -71v-10q10 -33 26.5 -52.5t51.5 -27.5l-2 2q10 -2 20 -3t21 -1q25 0 50 10.5t36 34.5 l-2 -6q63 86 98 125t49 51q14 8 14 17q35 35 80 66.5t86 31.5h15q4 -4 4 -10v-19q-8 -31 -15.5 -51t-18.5 -39.5t-28.5 -43t-46.5 -60.5q-59 -76 -119.5 -135.5t-146.5 -118.5h2q-23 -12 -40 -20.5t-46 -16.5h2q-6 -2 -10 -3t-10 -3h2q-25 -6 -48.5 -12.5t-39.5 -28.5 q-6 -10 -12.5 -22.5t-6.5 -24.5v-11z" />
<glyph unicode="&#xa5;" horiz-adv-x="1179" d="M-43 606q6 -41 34.5 -75.5t59.5 -49.5q23 -10 99 -10h65l-8 -51q-20 -2 -36.5 -3t-27.5 -1q-29 -2 -48 -4t-29 -4h4q-35 -6 -59.5 -32t-24.5 -54q0 -66 73 -105q47 -29 107 -35l-23 -133q2 -45 60 -80l18 -18q90 -33 137 -33q31 0 49.5 15.5t31 48t22.5 85t24 123.5 q39 4 74 5.5t68 5.5q23 2 32 2h19h12q43 8 68 49v-2q16 28 16 55q0 45 -19.5 70.5t-58.5 44.5q-31 10 -69.5 15t-87.5 5q4 10 6 21.5t6 23.5l20 2q4 2 13 2q8 0 18 3q8 2 15.5 3t17.5 1q23 4 37 4h22q63 0 85 17.5t22 64.5v20q-2 2 -2 12q0 59 -97 91q-10 4 -20 6l-20 4 q74 104 186.5 228t281.5 284q8 6 22.5 17t28 23.5t23.5 27t10 30.5v8q0 2 -1 3t-1 3l-14 27q-12 23 -46 36t-71 13q-57 0 -100 -45q-137 -147 -265 -291.5t-241 -292.5h-2q-16 29 -37.5 79t-46.5 114q-20 51 -42.5 103.5t-46.5 98.5t-50.5 82.5t-54.5 59.5q-14 4 -34 6 t-36 2q-31 0 -61.5 -4t-47.5 -18q-18 -12 -24 -32t-6 -46v-10q0 -33 14 -68t31 -68q20 -31 40.5 -74.5t41 -95t39 -106.5t34.5 -107q-12 -2 -23 -3t-24 -3q-10 -2 -18 -3t-17 -1l-24 -3t-19 -5q-16 -4 -31.5 -10t-25.5 -10h2q-49 -23 -49 -58z" />
<glyph unicode="&#xa6;" horiz-adv-x="389" d="M88 -203q0 -37 12.5 -60.5t31 -36.5t38.5 -19.5t39 -6.5q35 0 61.5 41t42.5 123l2 -2v29q2 12 3 25.5t4 27.5l28 336q0 12 1 28.5t3 36.5q4 27 6 55.5t2 57.5q0 55 -16 95t-65 40q-2 0 -7.5 -1t-9.5 -1q-43 -10 -66.5 -26.5t-35.5 -43t-16.5 -66.5t-8.5 -97 q-2 -10 -2 -25q0 -12 -2 -24l-39 -445l2 4q-8 -25 -8 -45zM172 844q0 -37 12.5 -60.5t30.5 -38t38.5 -19.5t39.5 -5q35 0 61.5 40t42.5 120l2 28q2 14 3 26.5t4 29.5l28 335q0 12 1 29t3 37q6 49 6 113q0 55 -15 95t-64 40q-2 0 -7.5 -1t-9.5 -1q-43 -10 -66.5 -26.5 t-36 -43t-17.5 -66.5t-9 -100v-24q0 -12 -2 -25l-39 -444q-4 -12 -5 -21.5t-1 -17.5z" />
<glyph unicode="&#xa7;" horiz-adv-x="866" d="M20 938q4 -35 25 -80t39 -67q16 -12 43 -11.5t51.5 7t43 12.5t18.5 4q41 4 94 6t94 2h18q-4 -14 -8 -27.5t-8 -29.5q-12 -43 -19.5 -71t-11.5 -44t-5 -25.5t-1 -17.5q0 -27 10.5 -41t45.5 -14q33 0 53 1t34.5 8t23.5 20.5t20 35.5q6 8 13 32t12 51.5t9 54t6.5 41 t4.5 25.5t6 21q47 2 66.5 5.5t41.5 17.5q39 23 60.5 46.5t21.5 86.5v6q0 45 -17.5 59.5t-47.5 14.5q-12 0 -23.5 -1t-21.5 -3q-23 -8 -37 0q2 10 3 18.5t3 16.5q12 57 23.5 92t20.5 57.5t14 37.5t5 36q-10 35 -32.5 51.5t-53.5 16.5q-37 -4 -63.5 -31t-45 -65t-30.5 -82 t-19 -82.5t-10.5 -65.5t-5.5 -29q-49 -10 -122.5 -17t-133.5 -7q18 31 50 80t63 97t52.5 86t17.5 46q4 10 6 17t2 16q0 63 -60 86q-4 2 -10 3t-18 1q-72 0 -109 -103q-27 -51 -44 -82.5t-28.5 -51t-17.5 -30t-12 -18.5q-35 -51 -58.5 -99t-40.5 -120z" />
<glyph unicode="&#xa8;" horiz-adv-x="839" d="M43 1300q10 -47 55 -78.5t119 -33.5q82 0 133 27.5t51 74.5v2q-6 47 -52 80t-128 33h-4q-78 0 -126 -28.5t-48 -76.5zM449 1303q2 -47 47 -80t122 -35q78 0 131.5 27.5t53.5 74.5v2q-4 47 -52.5 80t-123.5 33h-11q-76 0 -121.5 -27.5t-45.5 -74.5z" />
<glyph unicode="&#xa9;" horiz-adv-x="1656" d="M117 449q0 -106 28.5 -196.5t88 -155t147.5 -100.5t209 -36q47 0 95 7t95 20q166 45 303.5 103.5t247 144.5t192.5 207.5t140 295.5q37 113 37 211q0 135 -58.5 248t-150.5 221q-39 45 -96.5 78t-124 55.5t-136 33.5t-130.5 11q-49 0 -98.5 -14t-96.5 -37.5t-92 -52.5 t-86 -57q-113 -78 -201 -180.5t-151.5 -220t-103.5 -244.5t-54 -256q-2 -23 -3 -43.5t-1 -42.5zM297 535v40t4 43q10 102 58.5 213t119 209.5t156.5 174t172 108.5q20 -14 47 -14q25 0 53.5 12t61 27.5t70.5 29t81 13.5q80 0 146.5 -34t113.5 -93.5t74 -138t27 -169.5v-28 q0 -15 -2 -31q-16 -141 -69.5 -249.5t-145.5 -203.5q-59 -59 -133 -107t-154 -82t-161 -51.5t-154 -17.5q-174 0 -269.5 82t-95.5 267zM465 582q2 -47 15.5 -95.5t42 -86.5t72.5 -62.5t110 -24.5q12 0 25 1t28 3q111 18 198.5 52t180.5 98q12 8 25.5 26.5t24.5 40t19 42 t8 32.5v8q0 31 -22.5 66t-48.5 35q-23 0 -48.5 -20.5t-43.5 -34.5q-29 -18 -62 -38t-67.5 -35.5t-70.5 -25.5t-69 -10q-63 0 -113.5 10t-50.5 58v6q4 37 19.5 65.5t37 54t48.5 50t53 53.5q16 18 49 47t71 54.5t74 44t58 18.5q23 0 25 -21q4 -45 31.5 -62.5t56.5 -17.5 t49 19.5t33.5 47.5t20.5 58.5t9 53.5q2 10 2 30q0 72 -44 110t-121 38q-76 0 -165 -49.5t-170 -121t-144.5 -152.5t-88.5 -144q-23 -49 -40 -100.5t-17 -102.5v-18z" />
<glyph unicode="&#xaa;" horiz-adv-x="700" d="M18 512q0 -33 33 -60.5t99 -27.5l20 -4q10 -2 21.5 -3t23.5 -1q25 0 43 10l246 2l131 2q57 0 87 23.5t30 56.5t-36 59.5t-114 26.5q-6 0 -13 1t-16 1q-10 0 -18 1t-18 1q-25 0 -43 -6h-254q-6 2 -27 2q-10 0 -25.5 -1t-27.5 -3q-8 -2 -15 -2h-8q-59 0 -89 -24.5 t-30 -53.5zM63 848q0 -31 13.5 -65.5t37 -64.5t54.5 -49.5t65 -19.5q84 0 162 29t131 51h2q0 -29 16.5 -46t69.5 -17q55 0 78 29.5t23 88.5l28 404v14q0 51 -15 84t-38.5 51.5t-53.5 25.5t-58 7q-84 0 -177.5 -19.5t-171.5 -72.5h2l-12 -6q-18 -10 -37.5 -23.5t-23.5 -56.5 v-10q0 -37 17.5 -50.5t45.5 -13.5q29 0 61.5 13.5t47.5 19.5q20 6 37.5 12.5t35.5 12.5q35 12 68 21t70 9h10q8 0 10 -4l-4 -47q-203 -14 -336 -80.5t-155 -204.5q0 -4 -1.5 -11t-1.5 -11zM233 860v4q2 25 32 45.5t75 38t100.5 30.5t110.5 23l4 -77q-2 -4 -30.5 -21.5 t-68.5 -38t-86 -36t-83 -15.5h-17q-29 6 -33 12t-4 35zM330 1151q0 2 2 2z" />
<glyph unicode="&#xab;" horiz-adv-x="874" d="M41 633q-4 -41 6 -57.5t29 -26.5l196 -236l7 -6v2q14 -23 27 -35t40 -18h19q23 0 41 16.5t38 65.5v-2q4 8 5.5 13t3.5 11q4 23 -6.5 45.5t-43.5 53.5l-129 155l158 103q47 23 66.5 55.5t21.5 50.5q2 4 2 13q0 8 -6 14q-10 39 -23 51.5t-42 16.5h-7q-35 0 -67 -23 l-244 -160q-33 -14 -59.5 -40.5t-32.5 -61.5zM451 596q-4 -41 6 -57.5t28 -26.5l197 -236l6 -6v2q14 -23 27.5 -35t40.5 -18h18q23 0 41.5 16.5t38.5 65.5v-2q4 8 5 13t3 12q4 23 -6 45t-43 53l-129 156l158 102q47 23 66.5 55.5t21.5 50.5q2 4 2 13q0 8 -6 14 q-10 39 -23.5 51.5t-42.5 16.5h-6q-35 0 -68 -23l-243 -160q-33 -14 -59.5 -40.5t-32.5 -61.5z" />
<glyph unicode="&#xac;" horiz-adv-x="1943" d="M31 100q-4 -25 4 -42t24 -33q23 -18 37.5 -29.5t30.5 -24.5q14 -10 32.5 -16t63.5 6q59 12 125.5 25.5t132.5 25.5q31 6 33 12.5t-2 28.5q-8 18 -15.5 37t-17.5 35q-16 18 -29.5 24.5t-39.5 4.5q-47 -4 -87 -8.5t-87 -10.5q16 63 34.5 133t37 137.5t36.5 130t37 113.5 q6 20 0 31.5t-29 26.5q-53 29 -116 43q-27 8 -39.5 3t-22.5 -28q-20 -61 -42.5 -145t-42 -172.5t-35 -169t-23.5 -138.5zM97.5 1517.5q-5.5 -6.5 2.5 -24.5q10 -16 23.5 -43t34.5 -45q16 -16 30.5 -20.5t38.5 1.5q16 4 40 7.5t50 7.5q-14 -59 -30.5 -130t-29.5 -142.5 t-24.5 -138t-15.5 -113.5q-10 -41 15.5 -58.5t64.5 -30.5q43 -12 69.5 -17t30.5 24q14 74 31.5 153.5t37 161.5t40 163t39.5 152q41 4 81.5 7.5t75.5 7.5q27 4 31 10t0 25q-20 47 -49 81q-10 10 -22.5 15.5t-40.5 5.5q-51 -2 -116 -7t-133.5 -11.5t-134 -14.5t-118.5 -16 q-16 -4 -21.5 -10.5zM438 477q-14 -33 27 -41q16 -2 34.5 -4t32.5 2q18 0 33 7.5t31 21.5q12 12 26.5 32.5t29 44t26.5 48t20 45.5q2 12 3 20.5t1 12.5q0 16 -14 32q-12 10 -27.5 21.5t-31.5 21.5q-23 14 -36 11.5t-24 -21.5q-12 -27 -29.5 -61.5t-36 -69.5t-35.5 -67.5 t-30 -55.5zM543 14.5q10 -12.5 32 -28.5q16 -8 32 -14.5t28 -12.5q25 -8 34 -5t19 21q16 33 31.5 67t38.5 73q55 16 127.5 25.5t144.5 19.5q4 -41 8 -75t9 -65q6 -29 16 -40t33 -17q25 -10 47 -11t49 -1q25 0 32 7t7 26q-6 86 -11.5 181t-9.5 185t-5 171t3 141q0 25 -9 38 t-38 23q-37 10 -81 19.5t-113 13.5q-41 4 -62.5 -9.5t-36.5 -35.5q-39 -61 -84 -144.5t-89 -171.5t-83 -173t-65 -152q-14 -43 -4 -55.5zM659 877q-6 -29 2.5 -43.5t30.5 -24.5q20 -12 47 -19.5t49 -13.5q27 -6 35 -1t13 22q12 49 22 109.5t29 127.5q39 6 79 11.5t78 11.5 q-10 -55 -16 -101.5t-10 -83.5q-10 -37 13.5 -54t64.5 -30q41 -10 68.5 -15t27.5 24q14 82 35.5 174t43 182t43.5 172t38 145q4 20 0 31.5t-29 26.5q-51 33 -106 45q-29 6 -42.5 3t-19.5 -30q-20 -68 -38.5 -155.5t-41.5 -180.5q-35 -4 -72.5 -6t-78.5 -6q23 78 38 143.5 t31 112.5q4 23 -1 34t-29 25q-27 16 -56.5 27.5t-56.5 20.5q-29 8 -43 4t-19 -31q-14 -68 -28.5 -155t-30.5 -176t-33.5 -174t-36.5 -152zM846 293q47 86 88 164t78 139q0 -68 2 -139.5t8 -145.5q-47 -4 -90 -8t-86 -10zM1260 131q-8 -37 1 -52.5t31 -39.5q27 -23 48.5 -38 t54.5 -28q29 -18 51 -19t63 9q33 8 73 22.5t79 32t75 38t60 44.5q35 29 51.5 61t5.5 75q-4 35 -30.5 67.5t-61.5 50.5q57 35 94 66q41 35 67 77t9 91q-10 45 -33.5 76.5t-56.5 60.5q-35 31 -98.5 39t-136 2t-145 -25.5t-126.5 -44.5q-4 -63 -14 -138t-21.5 -149.5 t-22.5 -146.5t-17 -131zM1317 920q-4 -27 3 -45.5t23 -34.5q18 -18 35 -29.5t33 -24.5q14 -10 34.5 -15t63.5 5q59 10 125 23.5t129 25.5q27 6 33 13.5t-4 27.5q-6 18 -13 36t-18 38q-10 16 -26.5 23.5t-44.5 3.5q-47 -4 -89 -7.5t-88 -13.5q10 29 15.5 56.5t15.5 56.5 q55 12 114.5 21.5t117.5 19.5q27 6 34 12t-4 29q-6 18 -13 35.5t-17 35.5q-10 16 -25.5 22.5t-42.5 4.5q-66 0 -113 -8q14 47 25.5 89t26.5 79q63 10 120.5 15t110.5 11q25 4 31 10.5t2 28.5q-4 18 -10.5 33.5t-16.5 36.5q-18 35 -65 35q-104 -4 -209 -22t-183 -36z M1436 115q10 39 18.5 75.5t18.5 75.5q78 27 126 20t56 -28q8 -33 -52.5 -75t-166.5 -68zM1513 420q10 47 20.5 87t25.5 77q78 33 130 35t62 -21q4 -14 -10.5 -36.5t-45 -48.5t-77 -50.5t-105.5 -42.5z" />
<glyph unicode="&#xad;" horiz-adv-x="1099" d="M57 563q0 -8 2 -12v-14q4 -16 11.5 -43t21.5 -43q16 -25 57 -33t101 -8q25 0 51.5 1t56.5 1q27 2 53.5 4t55.5 2h4q12 0 65.5 1t115 3t116.5 5t72 7h41q53 0 77.5 3t45.5 18q18 8 23 17t5 26q-10 23 -20.5 43t-20.5 28q-53 49 -135 62.5t-176 13.5h-88q-20 0 -42 -2 t-42 -2q-51 0 -110.5 -1t-113 -3t-93 -4t-50.5 -4h2q-41 -8 -63.5 -17.5t-22.5 -40.5v-8z" />
<glyph unicode="&#xae;" horiz-adv-x="1818" d="M190 680q0 -158 43 -268q61 -158 216 -271q176 -127 382 -127q211 0 474 140q203 113 311 241q57 68 99 151.5t71 192.5q16 66 28.5 119t16.5 96q2 16 3 31.5t1 32.5q0 141 -70 258q-76 131 -245 223q-244 129 -451 129q-209 0 -414 -119q-426 -248 -460 -735 q-2 -25 -3.5 -48.5t-1.5 -45.5zM393 721q0 16 1 33.5t3 33.5q12 96 45 183q66 186 236 299q172 117 366 116q223 0 398 -155q168 -147 168 -338v-23q0 -10 -2 -22q-12 -111 -88 -236q-72 -123 -164 -196q-195 -156 -436 -156h-27q-12 0 -27 2q-213 16 -342 135 q-131 125 -131 324zM612 471q0 -33 15 -55q53 -41 92 -41q29 0 69 18q43 18 54 109q0 10 1 24.5t3 30.5v47q10 2 18 2h17q41 0 73 -16q43 -23 105 -96q70 -74 112 -99q6 -2 31 -2q61 0 117 64q18 20 18 39v2q0 18 -37 71q-76 80 -112 105q111 45 160 106q68 80 75 166v23 q1 62 -28 123q-72 145 -336 145q-147 0 -307 -43q-76 -20 -86 -109v-14q0 -35 26 -59q0 -45 -11 -143.5t-34 -258.5q-2 -12 -7 -28.5t-11 -35t-11.5 -34.5t-5.5 -29v-12zM872 819q0 41 5.5 91.5t15.5 111.5q90 20 162 20q31 0 61.5 -4t63.5 -12q55 -16 55 -55v-8 q-4 -45 -80 -84q-63 -29 -111 -41q-41 -10 -76.5 -15.5t-66.5 -5.5q-8 0 -15 1t-14 1z" />
<glyph unicode="&#xaf;" horiz-adv-x="499" d="M-141 682q6 -51 71 -74q14 -4 22.5 -5t22.5 -1q20 0 51 3t66 7t69 8.5t60 8.5q10 2 19.5 3t13.5 1q8 0 25 4q41 14 54 30.5t13 39.5q0 4 -1 8t-1 6q-16 35 -39.5 49t-54.5 18l160 498q2 6 4 16.5t8 24.5q10 31 23.5 63.5t13.5 57.5q0 10 -5 20.5t-10 18.5 q-29 33 -56.5 40t-78.5 7q-4 0 -38.5 -1t-79 -6t-85 -17.5t-55.5 -32.5v4q-20 -27 -20 -51q0 -27 20 -41q16 -31 42 -36t48 -5h17l-156 -562h-4q-16 -2 -27.5 -3t-19.5 -1t-16.5 -1t-18.5 -3h2q-59 -23 -59 -73v-23z" />
<glyph unicode="&#xb0;" horiz-adv-x="440" d="M66 1137q0 -61 34.5 -108.5t120.5 -47.5q49 0 96.5 20.5t84 55.5t60 81t27.5 97v2q0 6 1.5 12t1.5 13q0 63 -37 111t-113 48q-63 0 -113.5 -26.5t-85 -66.5t-55 -89t-22.5 -92v-10zM250 1165q2 29 21.5 56.5t58.5 27.5q8 0 8 -14v-8q-2 -33 -24.5 -57.5t-55.5 -24.5 q-8 0 -8 20z" />
<glyph unicode="&#xb1;" horiz-adv-x="944" d="M31 217q0 -20 5 -38.5t13 -37.5q29 -53 127 -53q10 0 32.5 2t37.5 2l567 12q49 0 82 39q27 33 27 88q0 78 -76 97q-51 6 -89 11t-67 3q-80 -4 -141.5 -8t-112.5 -8t-97 -7.5t-95 -3.5q-51 0 -85 -2t-53 -6q-76 -20 -75 -90zM80 938q0 -20 5 -38.5t13 -37.5 q29 -53 127 -53q10 0 33 2t37 2q63 0 63 -47q0 -16 -1 -35.5t-3 -46.5q-6 -49 -6 -80q0 -152 103 -151q43 0 61 22q14 14 39 94q8 33 14 58.5t10 44.5q12 61 41 100q41 53 93 53h153q49 0 82 39q27 33 27 88q0 78 -76 97q-51 6 -89 9t-67 5q-72 6 -82 12q-27 20 -26 70 q0 12 2 31.5t5 41t5 41t2 31.5q0 125 -104 125q-70 0 -95 -82q-4 -18 -6 -53t-6 -84q-4 -41 -7 -66.5t-7 -46.5q-6 -47 -127 -47q-51 0 -85 -2t-52 -6q-76 -20 -76 -90z" />
<glyph unicode="&#xb3;" horiz-adv-x="858" d="M27 741q0 -10 2 -12q33 -74 78 -102.5t114 -53.5q35 -10 70 -15t69 -5q61 0 123 15.5t115 44t93.5 68.5t58.5 89q41 82 41 170t-60 160q29 29 56.5 73t27.5 101q2 51 -17.5 88t-53 59.5t-78.5 30.5t-91 2q-47 0 -98 -9t-100 -29.5t-93 -54.5t-81 -83q10 -41 30.5 -75 t63.5 -34q10 2 29.5 10.5t35.5 18.5q41 29 90.5 54.5t96.5 25.5q16 0 33.5 -4t33.5 -14q-2 -12 -16 -29t-27 -29h5q-31 -16 -65 -25.5t-71 -15.5q-4 0 -5 -1t-3 -1q-37 -10 -72.5 -22.5t-70.5 -40.5q-4 -14 -5 -27.5t-1 -26.5q0 -47 23.5 -73.5t62.5 -26.5q12 0 19 1t18 5 q57 20 106 21q41 6 64.5 -17.5t23.5 -58.5q-10 -43 -41 -76t-73 -52.5t-87 -21.5t-84 19q-23 6 -43 26.5t-36 38.5q-20 27 -39 44.5t-45 17.5q-20 -2 -25.5 -3t-7.5 -3h2q-14 -10 -30.5 -23.5t-31 -31t-24.5 -39t-10 -48.5z" />
<glyph unicode="&#xb4;" horiz-adv-x="507" d="M111 1282q0 -29 16 -40t51 -25l8 -3h7q14 0 30.5 8.5t50.5 49.5q10 14 34 32.5t59 43.5q33 25 55 43t39.5 37.5t30 43t22.5 56.5q2 10 4 18t2 27q0 41 -18.5 58.5t-50.5 17.5q-23 0 -52.5 -11.5t-62.5 -31.5q-27 -18 -55.5 -48t-56 -66t-51 -73t-40.5 -69 q-23 -49 -22 -68z" />
<glyph unicode="&#xb6;" horiz-adv-x="958" d="M94 594q0 -147 69.5 -231t201.5 -84h32q18 0 35 2l-29 -463v-15q0 -63 28 -94t65 -31q16 0 26 5l-2 -2q35 8 58.5 25.5t38 48t23.5 75.5t15 113l86 1081h13q2 0 5 1t7 1q6 0 13 -3t16 -17l-99 -1170v-18q0 -61 28 -92t67 -31h10t16 4l-2 -2q35 8 58.5 24.5t38 47 t22.5 76.5t14 114l74 1159v6q0 41 -27.5 65.5t-66.5 39t-82 18.5t-72 4q-109 0 -224.5 -41t-213.5 -118.5t-165 -191.5t-75 -259v2q-2 -12 -2 -27v-22z" />
<glyph unicode="&#xb7;" horiz-adv-x="323" d="M88 694q0 -23 7 -39t18 -30q41 -31 76.5 -42.5t54.5 -11.5q29 0 55.5 7.5t46.5 17.5q39 20 64.5 53t27.5 72q0 70 -76 100q-20 10 -42.5 17.5t-45.5 7.5q-14 0 -22 -1t-21 -3q-55 -10 -96 -47t-47 -84v-17z" />
<glyph unicode="&#xba;" horiz-adv-x="919" d="M33 903q0 -66 29.5 -125t76.5 -98q49 -41 114.5 -59.5t137.5 -18.5q53 0 107 6q92 18 157.5 47t124.5 58q12 6 22.5 11t22.5 9h-2q86 39 119 115t33 162q0 59 -12 112l-2 2q-12 55 -45 92t-76 62t-91.5 41t-93.5 31q-37 10 -67.5 13t-59.5 3q-88 0 -159.5 -31.5t-129 -81 t-101.5 -112t-77 -123.5q-29 -63 -28 -115zM49 438q0 -8 2 -12v-14q4 -16 11.5 -43t21.5 -43q16 -25 57 -33t101 -8q25 0 51 1t57 1h6q31 0 82 1t103.5 3t95.5 5t57 7h41q53 0 78 3t45 18q18 8 23.5 17t5.5 26q-10 23 -20.5 43t-20.5 28q-53 49 -135 62.5t-176 13.5h-89 q-20 0 -41.5 -2t-42.5 -2q-102 0 -154 -1t-75 -5h2q-41 -8 -63.5 -17.5t-22.5 -40.5v-8zM354 930q0 39 15.5 65.5t37 47t47 35t46.5 26.5q6 4 24 4q20 0 46 -8t48.5 -22.5t39 -34t16.5 -39.5q0 -12 -6 -21l-2 -2q-14 -29 -45 -48.5t-68 -31.5t-75 -17t-64 -5q-23 0 -38.5 6 t-19.5 24q0 4 -1 9.5t-1 11.5z" />
<glyph unicode="&#xbb;" horiz-adv-x="874" d="M39 340q0 -8 6 -14q10 -39 23.5 -51.5t42.5 -16.5h6q33 0 67 23l244 159q33 14 59.5 41t32.5 62q4 41 -6 57t-29 27l-196 235l-6 6v-2q-14 23 -27.5 35t-40.5 19h-18q-23 0 -41.5 -16.5t-38.5 -65.5v2q-4 -8 -5 -13.5t-3 -11.5q-4 -23 6 -45t43 -53l129 -156l-158 -102 q-47 -23 -66.5 -55.5t-21.5 -51.5q-2 -4 -2 -12zM449 303q0 -8 6 -14q10 -39 23 -51.5t42 -16.5h6q33 0 68 23l244 159q33 14 59.5 41t32.5 62q4 41 -6.5 57.5t-28.5 26.5l-197 235l-6 6v-2q-14 23 -27.5 35.5t-39.5 18.5h-19q-23 0 -41 -16.5t-39 -65.5v2q-4 -8 -5 -13.5 t-3 -11.5q-4 -23 6.5 -45t42.5 -53l129 -156l-157 -102q-47 -23 -66.5 -55.5t-21.5 -51.5q-2 -4 -2 -12z" />
<glyph unicode="&#xbc;" horiz-adv-x="1452" d="M-23 692q0 -59 74 -78q8 -8 33 -8q27 0 63.5 3t73.5 8.5t70 9.5t51 6q10 4 13 5t16 1q37 16 48 32.5t11 35.5v14q-10 29 -32.5 42t-45.5 19l168 439q3 12 15 24l-5 -2q14 29 32 68t18 63v10q0 14 -13 27q-23 33 -50.5 38t-74.5 5q-2 0 -32.5 -1t-70.5 -5t-79 -14.5 t-55 -28.5q-12 -12 -16.5 -26.5t-4.5 -26.5q0 -14 4 -27q14 -31 47 -36t56 -5l-178 -500q-4 0 -6.5 -1t-6.5 -1q-14 -2 -24 -4t-31 -6l2 2q-41 -8 -55.5 -33.5t-14.5 -48.5zM219 102q0 -47 24.5 -68.5t82.5 -21.5q27 0 47 12.5t35.5 31t26.5 40t20 39.5q2 6 7 16.5t9 22.5 t9 22.5t7 14.5q18 45 51 105.5t73 131t85 146.5t90 149q72 123 133.5 227.5t92.5 170.5v6q6 23 14 48t8 48q0 39 -20.5 65.5t-69.5 26.5q-72 0 -102.5 -28.5t-40.5 -63.5q-27 -43 -71 -118.5t-96 -170t-109.5 -199t-108.5 -201.5t-92 -179t-64 -133q-41 -82 -41 -140z M684 391q4 -35 24.5 -80t39.5 -67q16 -12 42.5 -11.5t51 7t43 12.5t18.5 4q41 4 94.5 6t94.5 2h18q-4 -14 -8 -27.5t-8 -29.5q-12 -43 -19.5 -70.5t-11.5 -44t-5 -26t-1 -17.5q0 -27 10 -41t45 -14q33 0 53.5 1t34.5 8t23.5 20.5t19.5 35.5q6 8 13.5 32t12.5 51.5t9 54t6 41 t4 25.5t6 22q47 2 66.5 5t42.5 17q39 23 60.5 46.5t21.5 86.5v6q0 45 -17.5 59.5t-48.5 14.5q-12 0 -23.5 -1t-21.5 -3q-23 -8 -37 0q2 10 3 18.5t3 16.5q12 57 23.5 92t21 57.5t14.5 38t5 35.5q-10 35 -32.5 51.5t-53.5 16.5q-37 -4 -63.5 -31t-45 -64.5t-31 -81.5 t-19.5 -83t-10 -66t-5 -29q-49 -10 -123 -17t-133 -7q18 31 50 80t62.5 97t52 86t17.5 46q4 10 6 17.5t2 15.5q0 63 -59 86q-4 2 -10 3t-19 1q-72 0 -108 -102q-27 -51 -44.5 -83t-28.5 -51.5t-17.5 -30t-12.5 -18.5q-35 -51 -58.5 -99t-39.5 -120z" />
<glyph unicode="&#xbd;" horiz-adv-x="1452" d="M-23 692q0 -59 74 -78q8 -8 33 -8q27 0 63.5 3t73.5 8.5t70 9.5t51 6q10 4 13 5t16 1q37 16 48 32.5t11 35.5v14q-10 29 -32.5 42t-45.5 19l168 439q3 12 15 24l-5 -2q14 29 32 68t18 63v10q0 14 -13 27q-23 33 -50.5 38t-74.5 5q-2 0 -32.5 -1t-70.5 -5t-79 -14.5 t-55 -28.5q-12 -12 -16.5 -26.5t-4.5 -26.5q0 -14 4 -27q14 -31 47 -36t56 -5l-178 -500q-4 0 -6.5 -1t-6.5 -1q-14 -2 -24 -4t-31 -6l2 2q-41 -8 -55.5 -33.5t-14.5 -48.5zM219 102q0 -47 24.5 -68.5t82.5 -21.5q27 0 47 12.5t35.5 31t26.5 40t20 39.5q2 6 7 16.5t9 22.5 t9 22.5t7 14.5q18 45 51 105.5t73 131t85 146.5t90 149q72 123 133.5 227.5t92.5 170.5v6q6 23 14 48t8 48q0 39 -20.5 65.5t-69.5 26.5q-72 0 -102.5 -28.5t-40.5 -63.5q-27 -43 -71 -118.5t-96 -170t-109.5 -199t-108.5 -201.5t-92 -179t-64 -133q-41 -82 -41 -140z M639 59q0 -8 1 -16t9 -16q27 -61 99 -62q4 0 12 1t20 5h-8q49 10 79 16.5t56.5 9.5t59 5t90.5 6q37 6 68.5 8t62.5 2h82q74 18 80 68q2 6 2 20q0 25 -15.5 42.5t-31.5 23.5q-27 12 -73 17.5t-89 5.5h-6q31 29 70.5 67.5t84.5 87.5q31 35 59.5 80t51 90t36 88t13.5 74v16 q-6 82 -90 95q-8 0 -21 4q-23 0 -36 10q-8 8 -11 14q-10 10 -16 20.5t-27 18.5l-2 4q-39 16 -75 17q-45 0 -103.5 -26t-128.5 -83q-31 -23 -76 -68t-88 -96t-73.5 -97t-30.5 -71v-10q10 -33 26.5 -52.5t51.5 -27.5l-2 2q10 -2 20 -3t21 -1q25 0 50 10.5t36 34.5l-3 -6 q63 86 98.5 125t49.5 51q14 8 14 17q35 35 80 66.5t86 31.5h15q4 -4 4 -10v-19q-8 -31 -15.5 -51t-18.5 -39.5t-28.5 -43t-46.5 -60.5q-59 -76 -119.5 -135.5t-146.5 -118.5h2q-23 -12 -40 -20.5t-46 -16.5h2q-6 -2 -10 -3t-11 -3h2q-25 -6 -48 -12.5t-40 -28.5 q-6 -10 -12 -22.5t-6 -24.5v-11z" />
<glyph unicode="&#xbe;" horiz-adv-x="1683" d="M-31 750q0 -10 2 -13q33 -74 78 -102.5t115 -52.5q35 -10 69.5 -15.5t69.5 -5.5q61 0 122.5 15.5t115 44t93.5 68.5t58 89q41 82 41 170t-59 160q29 29 56.5 73t27.5 101q2 51 -17.5 88t-53.5 59.5t-79 30.5t-90 2q-47 0 -98 -9t-100.5 -29.5t-93.5 -54.5t-81 -83 q10 -41 31 -74.5t64 -33.5q10 2 29.5 10t35.5 18q41 29 90 54.5t97 25.5q16 0 33.5 -4t33.5 -14q-2 -12 -16.5 -28.5t-26.5 -29.5h4q-31 -16 -64.5 -25t-70.5 -16q-4 0 -5 -1t-3 -1q-37 -10 -73 -22t-71 -41q-4 -14 -5 -27.5t-1 -25.5q0 -47 23.5 -74t62.5 -27q12 0 19.5 1 t17.5 5q57 20 107 21q41 6 64.5 -17.5t23.5 -58.5q-10 -43 -41 -75.5t-73 -52t-87 -21.5t-84 18q-23 6 -43 26.5t-37 39.5q-20 27 -38.5 44t-45.5 17q-20 -2 -25 -3t-8 -3h3q-14 -10 -31 -23.5t-31 -31t-24.5 -39t-10.5 -47.5zM451 102q0 -47 24.5 -68.5t81.5 -21.5 q27 0 47.5 12.5t35.5 31t26.5 40t19.5 39.5q2 6 7 16.5t9.5 22.5t9.5 22.5t7 14.5q18 45 51 105.5t73 131t85 146.5t90 149q72 123 133 227.5t92 170.5v6q6 23 14.5 48t8.5 48q0 39 -20.5 65.5t-69.5 26.5q-72 0 -103 -28.5t-41 -63.5q-27 -43 -70.5 -118.5t-96 -170 t-110 -199t-108.5 -201.5t-92 -179t-63 -133q-41 -82 -41 -140zM915 391q4 -35 25 -80t39 -67q16 -12 43 -11.5t51.5 7t43 12.5t18.5 4q41 4 94 6t94 2h18q-4 -14 -8 -27.5t-8 -29.5q-12 -43 -19.5 -70.5t-11.5 -44t-5 -26t-1 -17.5q0 -27 10.5 -41t44.5 -14q33 0 53.5 1 t35 8t23.5 20.5t20 35.5q6 8 13 32t12 51.5t9 54t6.5 41t4.5 25.5t6 22q47 2 66.5 5t41.5 17q39 23 60.5 46.5t21.5 86.5v6q0 45 -17.5 59.5t-47.5 14.5q-12 0 -23.5 -1t-21.5 -3q-23 -8 -37 0q2 10 3 18.5t3 16.5q12 57 23.5 92t20.5 57.5t14 38t5 35.5q-10 35 -32.5 51.5 t-53.5 16.5q-37 -4 -63.5 -31t-45 -64.5t-30.5 -81.5t-19.5 -83t-10.5 -66t-5 -29q-49 -10 -122.5 -17t-133.5 -7q18 31 50 80t63 97t52.5 86t17.5 46q4 10 6 17.5t2 15.5q0 63 -60 86q-4 2 -10 3t-18 1q-72 0 -109 -102q-27 -51 -44 -83t-28.5 -51.5t-17.5 -30t-12 -18.5 q-35 -51 -58.5 -99t-40.5 -120z" />
<glyph unicode="&#xbf;" horiz-adv-x="1382" d="M31 -117q0 -84 57 -159q82 -102 197 -125q41 -8 97 -12.5t132 -4.5q131 0 191 15h-3q203 27 269 49q324 92 366 231q2 6 3 11.5t1 15.5q0 16 -1 39.5t-6 44t-15 35t-29 14.5q-25 27 -57 26q-29 0 -67 -17t-87 -46q-45 -29 -69.5 -48.5t-28.5 -21.5q-35 -12 -57.5 -23 t-42 -20.5t-41 -15.5t-52.5 -10q-70 -10 -122 -15.5t-88 -5.5h-5q-266 0 -266 92q0 8 4 25q39 119 307 209q31 10 53.5 17t45.5 12q37 6 84 14t108 22q12 4 24.5 6.5t27.5 6.5q20 4 37.5 8t33.5 8q14 4 23.5 6t17.5 4q47 10 83 51t50 85q4 10 7.5 28.5t5.5 52.5q2 14 3 26.5 t1 25.5v43q0 37 4 70.5t4 60.5q0 31 -11.5 48t-45.5 21q-16 2 -33 2h-27q-72 0 -91 -21.5t-19 -74.5q0 -23 -3.5 -49.5t-7.5 -58.5l-14 -31q-10 -8 -21.5 -15.5t-27.5 -11.5l-18 -3q-19 -3 -40 -7q-72 -10 -152.5 -35.5t-172.5 -64.5q-100 -41 -176 -84t-129 -86 q-61 -53 -117 -131q-4 -4 -5 -8.5t-5 -8.5q-25 -41 -44.5 -73.5t-29.5 -61.5h2q-8 -23 -10 -41t-2 -35zM969 985q0 -45 39 -82q45 -39 108 -39q119 0 166 68q35 35 41 53q8 31 13 57.5t5 51.5q0 113 -118 112q-74 0 -150 -57q-77 -57 -100 -129l2 2q-4 -10 -5 -18.5 t-1 -18.5z" />
<glyph unicode="&#xc0;" horiz-adv-x="1286" d="M10 12q0 -23 11.5 -42t30 -32.5t40 -20.5t41.5 -7q53 0 96 21.5t72 84.5q23 47 38 83t28.5 63.5t28 50.5t34.5 43l8 2h23q4 0 6 1t6 1q49 2 111 6q86 4 174 8.5t139 4.5h23l14 -7h2l8 -8l4 -6l10 -61l21 -105q8 -43 20.5 -68.5t31 -40t43 -20.5t59.5 -12q12 0 27.5 4 t37.5 14q35 14 50.5 46t15.5 67q0 29 -11 53l-2 4q-170 1219 -239 1245q-16 4 -29.5 7.5t-36.5 3.5h-6v2q-96 -14 -153.5 -37t-92.5 -53.5t-56.5 -71.5t-45.5 -90q-20 -43 -46 -92t-59 -99q-51 -84 -113.5 -185t-124 -207.5t-116.5 -209t-94 -186.5q-14 -35 -21.5 -63.5 t-7.5 -63.5v-27zM535 498v8l264 440l14 6l21 -4l10 -10l53 -438l-4 -8l-14 -15h4l-9 -4h-321l-6 2zM682 1810q0 -18 1 -26t5 -19q10 -33 22.5 -56t30 -42.5t40 -38t55.5 -43.5q35 -25 58.5 -43t33.5 -33q31 -39 54.5 -48t31.5 -9h4q39 14 56.5 26.5t17.5 41.5q0 18 -23 67 q-16 33 -39.5 70t-51.5 72.5t-57.5 65.5t-56.5 48q-66 43 -112 43q-33 0 -51.5 -17.5t-18.5 -58.5z" />
<glyph unicode="&#xc1;" horiz-adv-x="1286" d="M10 12q0 -23 11.5 -42t30 -32.5t40 -20.5t41.5 -7q53 0 96 21.5t72 84.5q23 47 38 83t28.5 63.5t28 50.5t34.5 43l8 2h23q4 0 6 1t6 1q49 2 111 6q86 4 174 8.5t139 4.5h23l14 -7h2l8 -8l4 -6l10 -61l21 -105q8 -43 20.5 -68.5t31 -40t43 -20.5t59.5 -12q12 0 27.5 4 t37.5 14q35 14 50.5 46t15.5 67q0 29 -11 53l-2 4q-170 1219 -239 1245q-16 4 -29.5 7.5t-36.5 3.5h-6v2q-96 -14 -153.5 -37t-92.5 -53.5t-56.5 -71.5t-45.5 -90q-20 -43 -46 -92t-59 -99q-51 -84 -113.5 -185t-124 -207.5t-116.5 -209t-94 -186.5q-14 -35 -21.5 -63.5 t-7.5 -63.5v-27zM535 498v8l264 440l14 6l21 -4l10 -10l53 -438l-4 -8l-14 -15h4l-9 -4h-321l-6 2zM727 1507q0 -29 16.5 -40t51.5 -25l8 -2h6q14 0 30.5 8t51.5 49q10 14 33.5 32.5t58.5 43.5q33 25 55.5 43t40 37.5t29.5 43t22 56.5q2 10 4.5 18.5t2.5 26.5 q0 41 -18.5 58.5t-51.5 17.5q-23 0 -52.5 -11.5t-62.5 -31.5q-27 -18 -55.5 -48t-56 -66t-51 -72.5t-39.5 -69.5q-23 -49 -23 -68z" />
<glyph unicode="&#xc2;" horiz-adv-x="1286" d="M10 12q0 -23 11.5 -42t30 -32.5t40 -20.5t41.5 -7q53 0 96 21.5t72 84.5q23 47 38 83t28.5 63.5t28 50.5t34.5 43l8 2h23q4 0 6 1t6 1q49 2 111 6q86 4 174 8.5t139 4.5h23l14 -7h2l8 -8l4 -6l10 -61l21 -105q8 -43 20.5 -68.5t31 -40t43 -20.5t59.5 -12q12 0 27.5 4 t37.5 14q35 14 50.5 46t15.5 67q0 29 -11 53l-2 4q-170 1219 -239 1245q-16 4 -29.5 7.5t-36.5 3.5h-6v2q-96 -14 -153.5 -37t-92.5 -53.5t-56.5 -71.5t-45.5 -90q-20 -43 -46 -92t-59 -99q-51 -84 -113.5 -185t-124 -207.5t-116.5 -209t-94 -186.5q-14 -35 -21.5 -63.5 t-7.5 -63.5v-27zM535 498v8l264 440l14 6l21 -4l10 -10l53 -438l-4 -8l-14 -15h4l-9 -4h-321l-6 2zM590 1548q0 -33 10 -53q27 -53 70 -53q27 0 57 24q23 23 37 38.5t31 31.5q8 8 16 16.5t20 18.5q43 -4 73 -19.5t83 -56.5q12 -8 24.5 -14t28.5 -6q20 0 43 18q37 27 37 86 q0 23 -5 41t-11 37v-2q-10 20 -18.5 28.5t-18.5 14.5q6 -4 -11.5 15.5t-50 44t-78.5 46t-100 21.5h-6q-29 0 -46 -18.5t-27 -61.5q0 -10 -14.5 -20.5t-33 -20.5t-37 -21.5t-26.5 -21.5q-18 -16 -32.5 -46t-14.5 -67z" />
<glyph unicode="&#xc3;" horiz-adv-x="1286" d="M10 12q0 -23 11.5 -42t30 -32.5t40 -20.5t41.5 -7q53 0 96 21.5t72 84.5q23 47 38 83t28.5 63.5t28 50.5t34.5 43l8 2h23q4 0 6 1t6 1q49 2 111 6q86 4 174 8.5t139 4.5h23l14 -7h2l8 -8l4 -6l10 -61l21 -105q8 -43 20.5 -68.5t31 -40t43 -20.5t59.5 -12q12 0 27.5 4 t37.5 14q35 14 50.5 46t15.5 67q0 29 -11 53l-2 4q-170 1219 -239 1245q-16 4 -29.5 7.5t-36.5 3.5h-6v2q-96 -14 -153.5 -37t-92.5 -53.5t-56.5 -71.5t-45.5 -90q-20 -43 -46 -92t-59 -99q-51 -84 -113.5 -185t-124 -207.5t-116.5 -209t-94 -186.5q-14 -35 -21.5 -63.5 t-7.5 -63.5v-27zM535 498v8l264 440l14 6l21 -4l10 -10l53 -438l-4 -8l-14 -15h4l-9 -4h-321l-6 2zM573 1513q0 -29 24 -49t65 -20q27 0 45 14.5t36 32.5q10 10 22.5 20.5t20.5 10.5l6 -6q5 -7 13 -13q20 -23 51 -45t90 -22q94 0 148.5 37t64.5 143v4q0 25 -27.5 43 t-58.5 18q-25 0 -47 -11t-33 -36q-2 -4 -3 -10t-3 -10q-4 -12 -8 -25.5t-14 -13.5t-18.5 10t-18.5 23v-2q-18 23 -44 45t-77 22q-33 0 -72 -13t-74.5 -35.5t-60.5 -50.5t-27 -56v-5z" />
<glyph unicode="&#xc4;" horiz-adv-x="1286" d="M10 12q0 -23 11.5 -42t30 -32.5t40 -20.5t41.5 -7q53 0 96 21.5t72 84.5q23 47 38 83t28.5 63.5t28 50.5t34.5 43l8 2h23q4 0 6 1t6 1q49 2 111 6q86 4 174 8.5t139 4.5h23l14 -7h2l8 -8l4 -6l10 -61l21 -105q8 -43 20.5 -68.5t31 -40t43 -20.5t59.5 -12q12 0 27.5 4 t37.5 14q35 14 50.5 46t15.5 67q0 29 -11 53l-2 4q-170 1219 -239 1245q-16 4 -29.5 7.5t-36.5 3.5h-6v2q-96 -14 -153.5 -37t-92.5 -53.5t-56.5 -71.5t-45.5 -90q-20 -43 -46 -92t-59 -99q-51 -84 -113.5 -185t-124 -207.5t-116.5 -209t-94 -186.5q-14 -35 -21.5 -63.5 t-7.5 -63.5v-27zM481 1554q10 -47 55.5 -78.5t118.5 -33.5q82 0 133.5 27.5t51.5 74.5v2q-6 47 -52.5 80t-128.5 33h-4q-78 0 -126 -28.5t-48 -76.5zM535 498v8l264 440l14 6l21 -4l10 -10l53 -438l-4 -8l-14 -15h4l-9 -4h-321l-6 2zM887 1556q2 -47 47 -79.5t123 -34.5 q78 0 131 27.5t53 74.5v2q-4 47 -52 80t-124 33h-10q-76 0 -122 -27.5t-46 -75.5z" />
<glyph unicode="&#xc5;" horiz-adv-x="1286" d="M10 12q0 -23 11.5 -42t30 -32.5t40 -20.5t41.5 -7q53 0 96 21.5t72 84.5q23 47 38 83t28.5 63.5t28 50.5t34.5 43l8 2h23q4 0 6 1t6 1q49 2 111 6q86 4 174 8.5t139 4.5h23l14 -7h2l8 -8l4 -6l10 -61l21 -105q8 -43 20.5 -68.5t31 -40t43 -20.5t59.5 -12q12 0 27.5 4 t37.5 14q35 14 50.5 46t15.5 67q0 29 -11 53l-2 4q-170 1219 -239 1245q-16 4 -29.5 7.5t-36.5 3.5h-6v2q-96 -14 -153.5 -37t-92.5 -53.5t-56.5 -71.5t-45.5 -90q-20 -43 -46 -92t-59 -99q-51 -84 -113.5 -185t-124 -207.5t-116.5 -209t-94 -186.5q-14 -35 -21.5 -63.5 t-7.5 -63.5v-27zM535 498v8l264 440l14 6l21 -4l10 -10l53 -438l-4 -8l-14 -15h4l-9 -4h-321l-6 2zM670 1591q0 -61 34.5 -108t120.5 -47q49 0 96.5 20.5t84 55t60.5 80.5t28 98v2q0 6 1 12t1 12q0 63 -37 111.5t-113 48.5q-63 0 -113.5 -26.5t-85 -66.5t-55 -89t-22.5 -92 v-11zM854 1620q2 29 21.5 56.5t58.5 27.5q8 0 8 -14v-9q-2 -33 -24.5 -57.5t-55.5 -24.5q-8 0 -8 21z" />
<glyph unicode="&#xc6;" horiz-adv-x="2140" d="M10 12q0 -23 11.5 -42t30 -32.5t40 -20.5t41.5 -7q53 0 96 21.5t72 84.5q23 47 38 83t28.5 63.5t28 50.5t34.5 43l8 2h23q4 0 6 1t6 1q49 2 111 6q86 4 174 8.5t139 4.5h23l14 -7h2l8 -8l4 -6l10 -61l21 -105q8 -43 20.5 -68.5t31 -40t43 -20.5t59.5 -12q25 0 59 16 q10 -4 18.5 -6t14.5 -2q57 0 100 8t107 19h4l602 90q43 4 59.5 10t18.5 10q10 12 11 23.5t-7 34.5q-4 18 -17 39h-10q-27 23 -73 28.5t-83 9.5q-45 0 -92 -8t-94 -8q-8 0 -15 1t-16 1q-4 0 -21.5 -2t-41 -3t-47 -3t-39.5 -2q-74 -4 -149.5 -8t-145.5 -15l-8 2l-27 17 q-10 78 -19.5 148.5t-19.5 135.5q-4 37 -6 67t-2 42l4 2h2l12 4h39q14 -2 25 -2h22h43q33 0 67 1t77 4t101.5 8t139.5 14q8 0 28 1t40.5 3t38.5 3t25 1q51 8 55 34.5t-6 55.5l-15 39q-23 41 -74 50t-110 9h-229q-78 0 -156 1t-129 7l-20 21l-5 8q-2 18 -6 63.5t-7 95.5 t-4 94t-1 61h-2l4 4l10 4q23 2 35 3t21.5 2t20.5 2t32 1h82l383 16h78q18 0 20 2l2 6q47 10 57.5 30t3.5 38l-6 16q-16 20 -32.5 32.5t-38 20t-51 11.5t-72.5 8q-86 0 -208 7t-249 11.5t-242.5 1t-187.5 -21.5q-53 -16 -86 -38.5t-56.5 -50.5t-41 -61.5t-35.5 -72.5 q-20 -43 -46 -92t-59 -99q-51 -84 -113.5 -185t-124 -207.5t-116.5 -209t-94 -186.5q-14 -35 -21.5 -63.5t-7.5 -63.5v-27zM535 498v8l264 440l14 6l21 -4l10 -10l53 -438l-4 -8l-14 -15h4l-9 -4h-321l-6 2z" />
<glyph unicode="&#xc7;" horiz-adv-x="1249" d="M8 350q0 -16 2 -22q4 -55 13.5 -93t27.5 -73l45 -53q72 -94 175.5 -136.5t213.5 -60.5l-147 -111q-23 -14 -31 -20t-8 -29q0 -2 51 -2h121h39t18 -2q-68 -18 -113.5 -42.5t-75.5 -49.5t-42 -47.5t-12 -34.5q0 -35 51 -51.5t127 -16.5q66 0 140.5 11.5t137 32t103.5 49 t41 63.5v23q0 41 -27 71.5t-63 55.5q-35 16 -68 28.5t-74 16.5l54 43q129 10 235.5 61t220.5 137q35 29 50.5 47.5t25.5 38.5q-4 96 -86 97h-8q-2 0 -19.5 -4.5t-42 -12.5t-52 -20.5t-48.5 -28.5h4q-53 -29 -118.5 -58.5t-170.5 -58.5q-18 -6 -75 -6q-33 0 -82 10.5 t-142 47.5q-39 37 -72.5 81.5t-43.5 102.5v24q0 25 2 31q12 115 65 225q57 111 125 216.5t148 179.5q57 61 124.5 103t139.5 42h6l184 -133q4 -2 24.5 -13.5t46.5 -24.5t28 -13q47 23 75.5 54.5t28.5 55.5q0 8 -2 13v16q-12 53 -58 93t-116 75q-55 29 -96 47t-73 29.5 t-59.5 16.5t-58.5 5q-33 0 -78 -7t-98 -23q-127 -78 -235.5 -181.5t-191.5 -228.5t-136 -266.5t-70 -292.5v-27z" />
<glyph unicode="&#xc8;" horiz-adv-x="1329" d="M23 47q25 -16 52 -37.5t54 -41t50.5 -33t41.5 -13.5q57 0 103.5 8.5t111.5 18.5h4l633 90q43 4 61.5 10t22.5 10q12 12 17.5 23.5t5.5 34.5v16q0 10 -2 23h-11q-20 23 -65 28.5t-80 10.5q-45 0 -94 -8.5t-97 -8.5q-8 0 -14 1t-14 1q-4 0 -22.5 -2t-43 -3t-49 -3t-41.5 -2 q-76 -4 -152.5 -8t-150.5 -15l-8 3l-19 18l-2 8q2 27 13.5 84t25 117.5t26.5 113t19 68.5l4 2h3l12 4h39q14 -2 24 -2h23h43q33 0 66.5 1t77.5 4t103.5 8.5t145.5 13.5q8 0 27.5 1t41 3t40 3t24.5 1q55 8 67.5 34.5t12.5 55.5v39q-10 41 -59.5 50t-108.5 9h-229 q-78 0 -156 1t-125 8l-14 20l-2 8q4 18 15 63.5t24.5 95.5t26 94t18.5 61h-2l6 4l10 4q23 2 35 3t23.5 2t23.5 2t33 1h82l385 16h78q18 0 20 2q6 6 8 7q47 10 63.5 29.5t16.5 37.5v17q-10 20 -22.5 32.5t-31 19.5t-47 11t-69.5 8q-53 2 -122.5 6t-141.5 7.5t-138.5 5.5 t-111.5 2h-160h-39q-20 0 -43 2q-55 0 -87.5 -6.5t-52 -26.5t-31 -58t-25.5 -102zM559 1802q0 -18 1 -26.5t5 -18.5q10 -33 22.5 -56.5t30 -43t40 -37.5t55.5 -43q35 -25 58.5 -43t33.5 -33q31 -39 54.5 -48t31.5 -9h4q39 14 56.5 26.5t17.5 40.5q0 18 -23 68 q-16 33 -39.5 70t-51.5 72.5t-57.5 65.5t-56.5 48q-66 43 -112 43q-33 0 -51.5 -17.5t-18.5 -58.5z" />
<glyph unicode="&#xc9;" horiz-adv-x="1329" d="M23 47q25 -16 52 -37.5t54 -41t50.5 -33t41.5 -13.5q57 0 103.5 8.5t111.5 18.5h4l633 90q43 4 61.5 10t22.5 10q12 12 17.5 23.5t5.5 34.5v16q0 10 -2 23h-11q-20 23 -65 28.5t-80 10.5q-45 0 -94 -8.5t-97 -8.5q-8 0 -14 1t-14 1q-4 0 -22.5 -2t-43 -3t-49 -3t-41.5 -2 q-76 -4 -152.5 -8t-150.5 -15l-8 3l-19 18l-2 8q2 27 13.5 84t25 117.5t26.5 113t19 68.5l4 2h3l12 4h39q14 -2 24 -2h23h43q33 0 66.5 1t77.5 4t103.5 8.5t145.5 13.5q8 0 27.5 1t41 3t40 3t24.5 1q55 8 67.5 34.5t12.5 55.5v39q-10 41 -59.5 50t-108.5 9h-229 q-78 0 -156 1t-125 8l-14 20l-2 8q4 18 15 63.5t24.5 95.5t26 94t18.5 61h-2l6 4l10 4q23 2 35 3t23.5 2t23.5 2t33 1h82l385 16h78q18 0 20 2q6 6 8 7q47 10 63.5 29.5t16.5 37.5v17q-10 20 -22.5 32.5t-31 19.5t-47 11t-69.5 8q-53 2 -122.5 6t-141.5 7.5t-138.5 5.5 t-111.5 2h-160h-39q-20 0 -43 2q-55 0 -87.5 -6.5t-52 -26.5t-31 -58t-25.5 -102zM616 1495q0 -29 16.5 -40t51.5 -25l8 -3h6q14 0 30.5 8.5t51.5 49.5q10 14 34 32.5t58 43.5q33 25 55.5 43t40 37.5t30 43t22.5 56.5q2 10 4 18t2 27q0 41 -18.5 58.5t-51.5 17.5 q-23 0 -52.5 -11.5t-61.5 -31.5q-27 -18 -55.5 -48t-56.5 -66t-51.5 -73t-39.5 -69q-23 -49 -23 -68z" />
<glyph unicode="&#xca;" horiz-adv-x="1329" d="M23 47q25 -16 52 -37.5t54 -41t50.5 -33t41.5 -13.5q57 0 103.5 8.5t111.5 18.5h4l633 90q43 4 61.5 10t22.5 10q12 12 17.5 23.5t5.5 34.5v16q0 10 -2 23h-11q-20 23 -65 28.5t-80 10.5q-45 0 -94 -8.5t-97 -8.5q-8 0 -14 1t-14 1q-4 0 -22.5 -2t-43 -3t-49 -3t-41.5 -2 q-76 -4 -152.5 -8t-150.5 -15l-8 3l-19 18l-2 8q2 27 13.5 84t25 117.5t26.5 113t19 68.5l4 2h3l12 4h39q14 -2 24 -2h23h43q33 0 66.5 1t77.5 4t103.5 8.5t145.5 13.5q8 0 27.5 1t41 3t40 3t24.5 1q55 8 67.5 34.5t12.5 55.5v39q-10 41 -59.5 50t-108.5 9h-229 q-78 0 -156 1t-125 8l-14 20l-2 8q4 18 15 63.5t24.5 95.5t26 94t18.5 61h-2l6 4l10 4q23 2 35 3t23.5 2t23.5 2t33 1h82l385 16h78q18 0 20 2q6 6 8 7q47 10 63.5 29.5t16.5 37.5v17q-10 20 -22.5 32.5t-31 19.5t-47 11t-69.5 8q-53 2 -122.5 6t-141.5 7.5t-138.5 5.5 t-111.5 2h-160h-39q-20 0 -43 2q-55 0 -87.5 -6.5t-52 -26.5t-31 -58t-25.5 -102zM520 1561q0 -33 10 -54q27 -53 70 -53q27 0 57 25q23 23 37.5 38t30.5 31l16.5 16.5t20.5 18.5q43 -4 72.5 -19.5t83.5 -56.5q12 -8 24 -14t29 -6q20 0 43 18q37 27 37 86q0 23 -5.5 41.5 t-11.5 36.5v-2q-10 20 -18 28.5t-19 14.5q6 -4 -11 15.5t-50 44t-79 46t-99 21.5h-6q-29 0 -46.5 -18.5t-27.5 -61.5q0 -10 -14.5 -20.5t-33 -20.5t-37 -21.5t-26.5 -21.5q-18 -16 -32.5 -46t-14.5 -66z" />
<glyph unicode="&#xcb;" horiz-adv-x="1329" d="M23 47q25 -16 52 -37.5t54 -41t50.5 -33t41.5 -13.5q57 0 103.5 8.5t111.5 18.5h4l633 90q43 4 61.5 10t22.5 10q12 12 17.5 23.5t5.5 34.5v16q0 10 -2 23h-11q-20 23 -65 28.5t-80 10.5q-45 0 -94 -8.5t-97 -8.5q-8 0 -14 1t-14 1q-4 0 -22.5 -2t-43 -3t-49 -3t-41.5 -2 q-76 -4 -152.5 -8t-150.5 -15l-8 3l-19 18l-2 8q2 27 13.5 84t25 117.5t26.5 113t19 68.5l4 2h3l12 4h39q14 -2 24 -2h23h43q33 0 66.5 1t77.5 4t103.5 8.5t145.5 13.5q8 0 27.5 1t41 3t40 3t24.5 1q55 8 67.5 34.5t12.5 55.5v39q-10 41 -59.5 50t-108.5 9h-229 q-78 0 -156 1t-125 8l-14 20l-2 8q4 18 15 63.5t24.5 95.5t26 94t18.5 61h-2l6 4l10 4q23 2 35 3t23.5 2t23.5 2t33 1h82l385 16h78q18 0 20 2q6 6 8 7q47 10 63.5 29.5t16.5 37.5v17q-10 20 -22.5 32.5t-31 19.5t-47 11t-69.5 8q-53 2 -122.5 6t-141.5 7.5t-138.5 5.5 t-111.5 2h-160h-39q-20 0 -43 2q-55 0 -87.5 -6.5t-52 -26.5t-31 -58t-25.5 -102zM434 1581q10 -47 55.5 -79t118.5 -34q82 0 133.5 28t51.5 75v2q-6 47 -52.5 80t-128.5 33h-4q-78 0 -126 -29t-48 -76zM840 1583q2 -47 47 -80t123 -35q78 0 131 28t53 75v2q-4 47 -52 80 t-124 33h-10q-76 0 -122 -28t-46 -75z" />
<glyph unicode="&#xcc;" horiz-adv-x="569" d="M10 61q6 -35 31 -59l2 -2h-4q2 0 14 -8l150 -47h24q14 20 22.5 31.5t13.5 21.5t8 22.5t8 34.5q0 2 8 42t23.5 105.5t33.5 149.5t40 174t42 180.5t39 165.5q10 57 28.5 106.5t30.5 96.5q12 39 23.5 88t21.5 97q0 55 -46 96t-107 41h-29q-14 14 -31 14q-39 0 -76.5 -90 t-78.5 -263t-88 -424t-103 -573zM229 1849q0 -18 1 -26t6 -19q10 -33 22 -56.5t29.5 -42.5t40 -37.5t55.5 -43.5q35 -25 58.5 -43t33.5 -33q31 -39 54.5 -48t31.5 -9h4q39 14 56.5 26.5t17.5 41.5q0 18 -23 67q-16 33 -39.5 70t-51 72.5t-57.5 65.5t-56 48q-66 43 -113 43 q-33 0 -51.5 -17.5t-18.5 -58.5z" />
<glyph unicode="&#xcd;" horiz-adv-x="569" d="M10 61q6 -35 31 -59l2 -2h-4q2 0 14 -8l150 -47h24q14 20 22.5 31.5t13.5 21.5t8 22.5t8 34.5q0 2 8 42t23.5 105.5t33.5 149.5t40 174t42 180.5t39 165.5q10 57 28.5 106.5t30.5 96.5q12 39 23.5 88t21.5 97q0 55 -46 96t-107 41h-29q-14 14 -31 14q-39 0 -76.5 -90 t-78.5 -263t-88 -424t-103 -573zM287 1546q0 -29 16 -40t51 -25l8 -2h7q14 0 30.5 8t51.5 49q10 14 33.5 32.5t58.5 43.5q33 25 55.5 43t39.5 37.5t29.5 43t22.5 56.5q2 10 4 18.5t2 26.5q0 41 -18.5 58.5t-50.5 17.5q-23 0 -52.5 -11.5t-62.5 -31.5q-27 -18 -55.5 -48 t-56 -66t-51 -72.5t-40.5 -69.5q-23 -49 -22 -68z" />
<glyph unicode="&#xce;" horiz-adv-x="569" d="M10 61q6 -35 31 -59l2 -2h-4q2 0 14 -8l150 -47h24q14 20 22.5 31.5t13.5 21.5t8 22.5t8 34.5q0 2 8 42t23.5 105.5t33.5 149.5t40 174t42 180.5t39 165.5q10 57 28.5 106.5t30.5 96.5q12 39 23.5 88t21.5 97q0 55 -46 96t-107 41h-29q-14 14 -31 14q-39 0 -76.5 -90 t-78.5 -263t-88 -424t-103 -573zM166 1571q0 -33 10 -53q27 -53 70 -54q27 0 57 25q23 23 37 38t31 32l16 16t21 18q43 -4 72.5 -19t82.5 -56q12 -8 24.5 -14.5t28.5 -6.5q20 0 43 19q37 27 37 86q0 23 -5 41t-11 36v-2q-10 20 -18.5 28.5t-18.5 14.5q6 -4 -11.5 15.5 t-50 44t-78.5 46t-100 21.5h-6q-29 0 -46 -18.5t-27 -61.5q0 -10 -14.5 -20t-33 -20.5t-37 -21.5t-26.5 -22q-18 -16 -32.5 -45.5t-14.5 -66.5z" />
<glyph unicode="&#xcf;" horiz-adv-x="569" d="M10 61q6 -35 31 -59l2 -2h-4q2 0 14 -8l150 -47h24q14 20 22.5 31.5t13.5 21.5t8 22.5t8 34.5q0 2 8 42t23.5 105.5t33.5 149.5t40 174t42 180.5t39 165.5q10 57 28.5 106.5t30.5 96.5q12 39 23.5 88t21.5 97q0 55 -46 96t-107 41h-29q-14 14 -31 14q-39 0 -76.5 -90 t-78.5 -263t-88 -424t-103 -573zM76 1597q10 -47 55 -78.5t119 -33.5q82 0 133 27.5t51 74.5v2q-6 47 -52 80t-128 33h-4q-78 0 -126 -28.5t-48 -76.5zM481 1599q2 -47 47 -79.5t123 -34.5q78 0 131.5 27.5t53.5 74.5v2q-4 47 -52.5 80t-124.5 33h-10q-76 0 -122 -27.5 t-46 -75.5z" />
<glyph unicode="&#xd0;" horiz-adv-x="1454" d="M-150 737q6 -43 13.5 -74t21.5 -47q16 -25 57.5 -33t100.5 -8h59q-25 -113 -43 -227.5t-34 -245.5v-28l2 -2q6 -55 45 -86l196 -66q47 0 90 4t76 8q197 18 371 104.5t304 211.5t205 274.5t75 292.5q0 94 -37 181t-116 158t-203 121t-300 73h-4q-53 14 -122.5 17t-155.5 3 l-134 -22q-76 -199 -86 -250q0 -10 -1 -14.5t-5 -14.5q-20 -72 -36.5 -135.5t-32.5 -126.5q-78 -2 -141.5 -4t-80.5 -6h3q-41 -8 -64 -17.5t-23 -40.5zM313 137q8 86 33 205t55 244q35 2 72 3t69.5 3t56.5 4t34 4h41q53 0 77.5 3t45.5 18q18 8 23 17t5 26q-10 23 -20 43 t-21 28q-53 49 -135 62.5t-176 13.5h-12q31 111 57.5 196t38.5 121h-2l8 7l17 6q180 0 288.5 -16.5t161.5 -53.5q80 -59 109.5 -111.5t34.5 -93.5l2 -14q-2 -84 -55.5 -177t-142.5 -184.5t-208 -175.5t-250 -145q-12 -8 -64.5 -26.5t-111.5 -34.5z" />
<glyph unicode="&#xd1;" horiz-adv-x="1368" d="M0 10q0 -29 13.5 -52.5t34 -40.5t47 -26.5t50.5 -9.5q41 0 73 22.5t38 76.5v10q8 23 23.5 73t34 116.5t40 144t41 157.5t35.5 156t27 137l10 8l27 2l8 -6q39 -139 81 -257t83 -208t75.5 -149.5t57.5 -79.5q47 -61 92 -89t86 -28q47 0 82 31t53 84q43 137 65.5 208.5 t35 110.5t18.5 59.5t14 55.5q4 23 13.5 58.5t19.5 73.5t20.5 73l16.5 55q6 12 17 46t23.5 82t25 102.5t18.5 107.5q16 37 28.5 81t12.5 85q0 53 -27 80l-151 22q-35 -6 -59.5 -26.5t-42 -48t-28 -61.5t-16.5 -66l-8 -39t-22.5 -101.5t-34 -143.5t-40 -165t-43 -166 t-44.5 -147l-6 -4l-27 -2q-35 80 -62.5 153.5t-49 144t-37 140.5t-27.5 145q-6 12 -7 34t-1 50v33q0 35 -2.5 72t-12.5 67.5t-30.5 51t-55.5 22.5q-109 -6 -172 -25.5t-98 -51t-49.5 -78t-26.5 -105.5q-14 -53 -27.5 -104.5t-25.5 -98.5q-49 -193 -84 -327t-57.5 -224 t-36 -142t-19.5 -81t-8 -41t-2 -20v-17zM612 1513q0 -29 23.5 -49t64.5 -20q27 0 45.5 14.5t36.5 32.5q10 10 22.5 20.5t20.5 10.5l5 -6q6 -7 14 -13q20 -23 51 -45t90 -22q94 0 148.5 37t64.5 143v4q0 25 -27.5 43t-58.5 18q-25 0 -47.5 -11t-32.5 -36q-2 -4 -3 -10t-3 -10 q-4 -12 -8 -25.5t-14 -13.5t-18.5 10t-18.5 23v-2q-18 23 -44 45t-77 22q-33 0 -72 -13t-74.5 -35.5t-60.5 -50.5t-27 -56v-5z" />
<glyph unicode="&#xd2;" d="M2 414q0 -20 2 -27q6 -47 21.5 -97t56.5 -110v2q70 -115 174 -172t268 -84q45 -10 86 -13t88 -3q135 0 246 27.5t193 91.5q92 80 160.5 175t112.5 195.5t65.5 204t21.5 199.5v45q0 10 -1 22.5t-3 22.5q-4 39 -13.5 79t-27.5 77q-43 80 -91 133t-99.5 88t-100.5 52t-92 24 h-133q-141 -16 -242.5 -40t-163.5 -59q-53 -31 -85.5 -51t-49.5 -31q-90 -66 -162.5 -151.5t-124 -181t-79 -195.5t-27.5 -193v-30zM299 342q2 66 23.5 146.5t58.5 164.5t90 166t118.5 150.5t143.5 119t164 70.5q20 6 45.5 10.5t56.5 4.5q59 0 119 -37q51 -37 78 -108 t37 -140q2 -16 3 -33.5t1 -34.5q0 -113 -38 -241.5t-114.5 -240.5t-196.5 -187.5t-282 -81.5q-23 0 -59.5 13t-73.5 32q-82 27 -125 86t-47 133q-2 2 -2 8zM737 1788q0 -18 1 -26.5t5 -18.5q10 -33 22.5 -56.5t30 -43t40 -38t55.5 -42.5q35 -25 58.5 -43.5t33.5 -32.5 q31 -39 54.5 -48t31.5 -9h4q39 14 56.5 26t17.5 41q0 18 -23 68q-16 33 -39.5 69.5t-51 72.5t-57.5 65.5t-56 48.5q-66 43 -113 43q-33 0 -51.5 -17.5t-18.5 -58.5z" />
<glyph unicode="&#xd3;" d="M2 414q0 -20 2 -27q6 -47 21.5 -97t56.5 -110v2q70 -115 174 -172t268 -84q45 -10 86 -13t88 -3q135 0 246 27.5t193 91.5q92 80 160.5 175t112.5 195.5t65.5 204t21.5 199.5v45q0 10 -1 22.5t-3 22.5q-4 39 -13.5 79t-27.5 77q-43 80 -91 133t-99.5 88t-100.5 52t-92 24 h-133q-141 -16 -242.5 -40t-163.5 -59q-53 -31 -85.5 -51t-49.5 -31q-90 -66 -162.5 -151.5t-124 -181t-79 -195.5t-27.5 -193v-30zM299 342q2 66 23.5 146.5t58.5 164.5t90 166t118.5 150.5t143.5 119t164 70.5q20 6 45.5 10.5t56.5 4.5q59 0 119 -37q51 -37 78 -108 t37 -140q2 -16 3 -33.5t1 -34.5q0 -113 -38 -241.5t-114.5 -240.5t-196.5 -187.5t-282 -81.5q-23 0 -59.5 13t-73.5 32q-82 27 -125 86t-47 133q-2 2 -2 8zM692 1479q0 -29 16.5 -40.5t51.5 -25.5l8 -2h6q14 0 30.5 8t51.5 49q10 14 33.5 33t58.5 43q33 25 55.5 43.5t40 38 t29.5 43t23 55.5q2 10 4 18.5t2 26.5q0 41 -18.5 58.5t-51.5 17.5q-23 0 -52.5 -11t-61.5 -32q-27 -18 -55.5 -48t-56.5 -65.5t-51.5 -72.5t-39.5 -70q-23 -49 -23 -67z" />
<glyph unicode="&#xd4;" d="M2 414q0 -20 2 -27q6 -47 21.5 -97t56.5 -110v2q70 -115 174 -172t268 -84q45 -10 86 -13t88 -3q135 0 246 27.5t193 91.5q92 80 160.5 175t112.5 195.5t65.5 204t21.5 199.5v45q0 10 -1 22.5t-3 22.5q-4 39 -13.5 79t-27.5 77q-43 80 -91 133t-99.5 88t-100.5 52t-92 24 h-133q-141 -16 -242.5 -40t-163.5 -59q-53 -31 -85.5 -51t-49.5 -31q-90 -66 -162.5 -151.5t-124 -181t-79 -195.5t-27.5 -193v-30zM299 342q2 66 23.5 146.5t58.5 164.5t90 166t118.5 150.5t143.5 119t164 70.5q20 6 45.5 10.5t56.5 4.5q59 0 119 -37q51 -37 78 -108 t37 -140q2 -16 3 -33.5t1 -34.5q0 -113 -38 -241.5t-114.5 -240.5t-196.5 -187.5t-282 -81.5q-23 0 -59.5 13t-73.5 32q-82 27 -125 86t-47 133q-2 2 -2 8zM705 1530q0 -33 10 -53q27 -53 69 -54q27 0 58 25q23 23 37 38t30 32q8 8 16.5 16t20.5 18q43 -4 73 -19t83 -56 q12 -8 24.5 -14.5t28.5 -6.5q20 0 43 19q37 27 37 86q0 23 -5 41t-11 36v-2q-10 20 -18.5 28.5t-18.5 14.5q6 -4 -11.5 15.5t-50.5 44t-79 46t-99 21.5h-6q-29 0 -46.5 -18.5t-27.5 -61.5q0 -10 -14 -20t-32.5 -20.5t-37 -21.5t-26.5 -22q-18 -16 -32.5 -45.5t-14.5 -66.5z " />
<glyph unicode="&#xd5;" d="M2 414q0 -20 2 -27q6 -47 21.5 -97t56.5 -110v2q70 -115 174 -172t268 -84q45 -10 86 -13t88 -3q135 0 246 27.5t193 91.5q92 80 160.5 175t112.5 195.5t65.5 204t21.5 199.5v45q0 10 -1 22.5t-3 22.5q-4 39 -13.5 79t-27.5 77q-43 80 -91 133t-99.5 88t-100.5 52t-92 24 h-133q-141 -16 -242.5 -40t-163.5 -59q-53 -31 -85.5 -51t-49.5 -31q-90 -66 -162.5 -151.5t-124 -181t-79 -195.5t-27.5 -193v-30zM299 342q2 66 23.5 146.5t58.5 164.5t90 166t118.5 150.5t143.5 119t164 70.5q20 6 45.5 10.5t56.5 4.5q59 0 119 -37q51 -37 78 -108 t37 -140q2 -16 3 -33.5t1 -34.5q0 -113 -38 -241.5t-114.5 -240.5t-196.5 -187.5t-282 -81.5q-23 0 -59.5 13t-73.5 32q-82 27 -125 86t-47 133q-2 2 -2 8zM590 1509q0 -29 23.5 -49t64.5 -20q27 0 45 14t37 33q10 10 22.5 20.5t20.5 10.5l5 -6q5 -7 13 -13q20 -23 51 -45 t91 -22q94 0 148.5 37t64.5 143v4q0 25 -28 43t-58 18q-25 0 -47.5 -11t-32.5 -36q-2 -4 -3 -10t-3 -10l-8.5 -25.5t-14.5 -13.5t-18.5 10t-18.5 23v-2q-18 23 -44 45t-77 22q-33 0 -71.5 -13.5t-74.5 -36t-60.5 -50t-26.5 -56.5v-4z" />
<glyph unicode="&#xd6;" d="M2 414q0 -20 2 -27q6 -47 21.5 -97t56.5 -110v2q70 -115 174 -172t268 -84q45 -10 86 -13t88 -3q135 0 246 27.5t193 91.5q92 80 160.5 175t112.5 195.5t65.5 204t21.5 199.5v45q0 10 -1 22.5t-3 22.5q-4 39 -13.5 79t-27.5 77q-43 80 -91 133t-99.5 88t-100.5 52t-92 24 h-133q-141 -16 -242.5 -40t-163.5 -59q-53 -31 -85.5 -51t-49.5 -31q-90 -66 -162.5 -151.5t-124 -181t-79 -195.5t-27.5 -193v-30zM299 342q2 66 23.5 146.5t58.5 164.5t90 166t118.5 150.5t143.5 119t164 70.5q20 6 45.5 10.5t56.5 4.5q59 0 119 -37q51 -37 78 -108 t37 -140q2 -16 3 -33.5t1 -34.5q0 -113 -38 -241.5t-114.5 -240.5t-196.5 -187.5t-282 -81.5q-23 0 -59.5 13t-73.5 32q-82 27 -125 86t-47 133q-2 2 -2 8zM520 1530q10 -47 55.5 -79t118.5 -34q82 0 133.5 28t51.5 75v2q-6 47 -52.5 79.5t-128.5 32.5h-4q-78 0 -126 -28.5 t-48 -75.5zM926 1532q2 -47 47 -80t123 -35q78 0 131 28t53 75v2q-4 47 -52 79.5t-124 32.5h-10q-76 0 -122 -27.5t-46 -74.5z" />
<glyph unicode="&#xd7;" horiz-adv-x="1003" d="M63 487q37 -35 70 -34q14 4 42 15t73 34q35 20 61.5 36.5t46.5 28.5q57 41 123 51q76 10 121 -34l131 -131q41 -41 105 -35q51 6 96 51q68 68 18 147q-39 49 -67.5 85t-51.5 61q-61 70 -61 82q-6 39 37 82q8 10 27.5 25.5t40 30.5t40 29.5t29.5 24.5q104 106 14 197 q-57 59 -147 10q-20 -14 -52 -39.5t-77 -66.5q-37 -31 -61.5 -51.5t-45.5 -34.5q-47 -35 -149 69q-43 43 -73.5 70t-51.5 39q-82 49 -143 -12q-29 -33 -47 -80q-18 -72 63 -154q10 -10 30.5 -27.5t33.5 -27.5q51 -55 12 -94q-27 -27 -72 -66q-27 -20 -45 -36.5t-29 -26.5 q-129 -129 -41 -218z" />
<glyph unicode="&#xd8;" d="M2 414q0 -20 2 -27q6 -47 21.5 -97t56.5 -110v2q18 -33 39.5 -59.5t44.5 -48.5q-14 -18 -28.5 -37t-31.5 -39q-37 -53 -36 -96q0 -49 34.5 -77t88.5 -28q39 0 82.5 20.5t78.5 63.5q14 18 27.5 35.5t28.5 34.5q51 -14 114 -25q45 -10 86 -13t88 -3q135 0 246 27.5 t193 91.5q92 80 160.5 175t112.5 195.5t65.5 204t21.5 199.5v45q0 10 -1 22.5t-3 22.5q-4 39 -13.5 79t-27.5 77q-6 10 -12 22t-15 23q49 39 88 91t39 134v20q0 19 -2 23q-6 47 -43 67.5t-84 20.5q-31 0 -62.5 -8t-53.5 -25q-37 -25 -67 -50.5t-58 -53.5q-31 14 -58.5 21 t-54.5 12h-133q-141 -16 -242.5 -40t-163.5 -59q-53 -31 -85.5 -51t-49.5 -31q-90 -66 -162.5 -151.5t-124 -181t-79 -195.5t-27.5 -193v-30zM299 342q2 66 23.5 146.5t58.5 164.5t90 166t118.5 150.5t143.5 119t164 70.5q20 6 45.5 10.5t56.5 4.5q14 0 27.5 -2.5t28.5 -6.5 q-14 -18 -26.5 -36.5t-27.5 -34.5q-37 -49 -75.5 -100.5t-85.5 -98.5v2q-16 -18 -37 -39.5t-39 -42.5q-43 -47 -85 -91t-77 -91l2 2q-49 -59 -90 -109.5t-77 -94.5t-66.5 -83t-59.5 -78q-10 35 -10 64q-2 2 -2 8zM522 90q170 211 342 413t365 408q2 -6 2 -12t2 -10 q2 -16 3 -33.5t1 -34.5q0 -113 -38 -241.5t-114.5 -240.5t-196.5 -187.5t-282 -81.5q-16 0 -37.5 5t-46.5 15z" />
<glyph unicode="&#xd9;" horiz-adv-x="1298" d="M14 344q0 -78 24.5 -151.5t92.5 -131.5l14 -6q94 -76 167 -105.5t151 -29.5q10 2 31 2q18 0 39.5 -1t44.5 -1h16q2 2 8 2h8q137 0 232.5 75t161 192.5t108.5 261t78 282.5q33 121 62.5 256t43.5 262q0 37 -2 63.5t-12 67.5q-8 14 -26.5 25.5t-40 20t-44 12.5t-38.5 4 q-20 0 -45 -20.5t-31 -26.5l-70 -336q-10 -66 -23.5 -140.5t-41.5 -191.5q-16 -68 -36 -139.5t-41.5 -137t-43 -118.5t-41.5 -82l-76 -100l-6 -9q-25 -18 -55.5 -28.5t-60.5 -15.5t-53.5 -6t-35.5 -1h-10q-16 0 -44 8.5t-55.5 26.5t-48 46t-20.5 65q0 12 2 20 q0 47 13.5 110.5t35.5 141.5q55 188 89 298t54.5 169t27.5 81.5t11 39t5.5 40t7.5 85.5v4q0 23 -18.5 44t-44 38.5t-55.5 31t-54 19.5q-37 0 -69 -23.5t-79 -97.5l-2 -12v2q-4 -8 -13 -42t-24 -89q-29 -96 -49 -163t-33.5 -116t-23.5 -85t-17.5 -70.5t-14.5 -73.5t-15 -94 q-6 -37 -10.5 -75t-4.5 -77zM520 1769q0 -18 1 -26t5 -19q10 -33 22.5 -56t30 -42.5t40 -38t55.5 -43.5q35 -25 58.5 -43t33.5 -33q31 -39 54.5 -48t31.5 -9h4q39 14 56.5 26.5t17.5 41.5q0 18 -23 67q-16 33 -39.5 70t-51.5 72.5t-57.5 65.5t-56.5 48q-66 43 -112 43 q-33 0 -51.5 -17.5t-18.5 -58.5z" />
<glyph unicode="&#xda;" horiz-adv-x="1298" d="M14 344q0 -78 24.5 -151.5t92.5 -131.5l14 -6q94 -76 167 -105.5t151 -29.5q10 2 31 2q18 0 39.5 -1t44.5 -1h16q2 2 8 2h8q137 0 232.5 75t161 192.5t108.5 261t78 282.5q33 121 62.5 256t43.5 262q0 37 -2 63.5t-12 67.5q-8 14 -26.5 25.5t-40 20t-44 12.5t-38.5 4 q-20 0 -45 -20.5t-31 -26.5l-70 -336q-10 -66 -23.5 -140.5t-41.5 -191.5q-16 -68 -36 -139.5t-41.5 -137t-43 -118.5t-41.5 -82l-76 -100l-6 -9q-25 -18 -55.5 -28.5t-60.5 -15.5t-53.5 -6t-35.5 -1h-10q-16 0 -44 8.5t-55.5 26.5t-48 46t-20.5 65q0 12 2 20 q0 47 13.5 110.5t35.5 141.5q55 188 89 298t54.5 169t27.5 81.5t11 39t5.5 40t7.5 85.5v4q0 23 -18.5 44t-44 38.5t-55.5 31t-54 19.5q-37 0 -69 -23.5t-79 -97.5l-2 -12v2q-4 -8 -13 -42t-24 -89q-29 -96 -49 -163t-33.5 -116t-23.5 -85t-17.5 -70.5t-14.5 -73.5t-15 -94 q-6 -37 -10.5 -75t-4.5 -77zM621 1483q0 -29 16 -40t51 -26l8 -2h6q14 0 31 8.5t51 49.5q10 14 34 32.5t59 42.5q33 25 55 43.5t39.5 38t30 43t22.5 56.5q2 10 4 18t2 27q0 41 -18.5 58t-50.5 17q-23 0 -52.5 -11t-62.5 -32q-27 -18 -55.5 -47.5t-56 -65.5t-51.5 -73 t-40 -70q-23 -49 -22 -67z" />
<glyph unicode="&#xdb;" horiz-adv-x="1298" d="M14 344q0 -78 24.5 -151.5t92.5 -131.5l14 -6q94 -76 167 -105.5t151 -29.5q10 2 31 2q18 0 39.5 -1t44.5 -1h16q2 2 8 2h8q137 0 232.5 75t161 192.5t108.5 261t78 282.5q33 121 62.5 256t43.5 262q0 37 -2 63.5t-12 67.5q-8 14 -26.5 25.5t-40 20t-44 12.5t-38.5 4 q-20 0 -45 -20.5t-31 -26.5l-70 -336q-10 -66 -23.5 -140.5t-41.5 -191.5q-16 -68 -36 -139.5t-41.5 -137t-43 -118.5t-41.5 -82l-76 -100l-6 -9q-25 -18 -55.5 -28.5t-60.5 -15.5t-53.5 -6t-35.5 -1h-10q-16 0 -44 8.5t-55.5 26.5t-48 46t-20.5 65q0 12 2 20 q0 47 13.5 110.5t35.5 141.5q55 188 89 298t54.5 169t27.5 81.5t11 39t5.5 40t7.5 85.5v4q0 23 -18.5 44t-44 38.5t-55.5 31t-54 19.5q-37 0 -69 -23.5t-79 -97.5l-2 -12v2q-4 -8 -13 -42t-24 -89q-29 -96 -49 -163t-33.5 -116t-23.5 -85t-17.5 -70.5t-14.5 -73.5t-15 -94 q-6 -37 -10.5 -75t-4.5 -77zM502 1546q0 -33 10 -53q27 -53 70 -53q27 0 57 24q23 23 37 38.5t31 31.5q8 8 16 16.5t20 18.5q43 -4 73 -19.5t83 -56.5q12 -8 24.5 -14t28.5 -6q20 0 43 18q37 27 37 86q0 23 -5 41t-11 37v-2q-10 20 -18.5 28.5t-18.5 14.5q6 -4 -11.5 15.5 t-50 44t-78.5 46t-100 21.5h-6q-29 0 -46 -18.5t-28 -61.5q0 -10 -14 -20.5t-32.5 -20.5t-37 -21.5t-26.5 -21.5q-18 -16 -32.5 -46t-14.5 -67z" />
<glyph unicode="&#xdc;" horiz-adv-x="1298" d="M14 344q0 -78 24.5 -151.5t92.5 -131.5l14 -6q94 -76 167 -105.5t151 -29.5q10 2 31 2q18 0 39.5 -1t44.5 -1h16q2 2 8 2h8q137 0 232.5 75t161 192.5t108.5 261t78 282.5q33 121 62.5 256t43.5 262q0 37 -2 63.5t-12 67.5q-8 14 -26.5 25.5t-40 20t-44 12.5t-38.5 4 q-20 0 -45 -20.5t-31 -26.5l-70 -336q-10 -66 -23.5 -140.5t-41.5 -191.5q-16 -68 -36 -139.5t-41.5 -137t-43 -118.5t-41.5 -82l-76 -100l-6 -9q-25 -18 -55.5 -28.5t-60.5 -15.5t-53.5 -6t-35.5 -1h-10q-16 0 -44 8.5t-55.5 26.5t-48 46t-20.5 65q0 12 2 20 q0 47 13.5 110.5t35.5 141.5q55 188 89 298t54.5 169t27.5 81.5t11 39t5.5 40t7.5 85.5v4q0 23 -18.5 44t-44 38.5t-55.5 31t-54 19.5q-37 0 -69 -23.5t-79 -97.5l-2 -12v2q-4 -8 -13 -42t-24 -89q-29 -96 -49 -163t-33.5 -116t-23.5 -85t-17.5 -70.5t-14.5 -73.5t-15 -94 q-6 -37 -10.5 -75t-4.5 -77zM371 1606q10 -47 55 -79t119 -34q82 0 133 27.5t51 74.5v2q-6 47 -52 80t-128 33h-4q-78 0 -126 -28.5t-48 -75.5zM776 1608q2 -47 47 -80t123 -35q78 0 131 27.5t53 74.5v2q-4 47 -52 80t-124 33h-10q-76 0 -122 -27.5t-46 -74.5z" />
<glyph unicode="&#xdd;" horiz-adv-x="1179" d="M-14 1221q0 -33 14 -68t31 -68q29 -43 59.5 -114.5t58 -149.5t48 -152.5t30.5 -123.5v-8l-84 -488q2 -45 60 -80l18 -18q90 -33 137 -33q43 0 63.5 29.5t36 97.5t34 176.5t59.5 263.5q6 31 11 54.5t13.5 44t22.5 43t37 51.5q74 109 192.5 243t302.5 306q8 6 22.5 17 t28 23.5t23.5 27t10 30.5v8q0 2 -1 3t-1 3l-14 27q-12 23 -46 36t-71 13q-57 0 -100 -45q-137 -147 -265 -291.5t-241 -292.5h-2q-16 29 -37.5 79t-46.5 114q-20 51 -42.5 103.5t-46.5 98.5t-50.5 82.5t-54.5 59.5q-14 4 -34 6t-36 2q-31 0 -61.5 -4t-47.5 -18 q-18 -12 -24 -32t-6 -46v-10zM438 1421q0 -29 16.5 -40t51.5 -25l8 -2h6q14 0 30.5 8t51.5 49q10 14 33.5 32.5t58.5 43.5q33 25 55.5 43t40 37.5t29.5 43t23 56.5q2 10 4 18.5t2 26.5q0 41 -18.5 58.5t-51.5 17.5q-23 0 -52.5 -11.5t-61.5 -31.5q-27 -18 -55.5 -48 t-56.5 -66t-51.5 -72.5t-39.5 -69.5q-23 -49 -23 -68z" />
<glyph unicode="&#xde;" horiz-adv-x="1146" d="M10 61q6 -35 31 -59l2 -2h-2l12 -8l150 -47h24q14 20 22.5 31.5t13.5 21.5t8 22.5t8 34.5q0 8 18 92h49q74 10 134.5 21.5t112.5 25t97 31t90 37.5q197 88 309.5 188.5t112.5 239.5q-10 104 -64.5 176t-170.5 125q-37 16 -86.5 31.5t-107.5 28t-120.5 22.5t-124.5 17 q10 37 20.5 82t20.5 88q0 55 -46 96t-107 41h-29q-14 14 -31 14q-39 0 -76.5 -90t-78.5 -263t-88 -424t-103 -573zM358 373q6 37 20.5 106.5t30 143t29 138t21.5 91.5q23 47 49 47q39 0 90 -4t103.5 -13.5t102.5 -24.5t87 -38q0 -6 6 -6q2 -2 8 -2q63 -61 64 -115 q0 -49 -42 -93t-113 -86t-164 -82t-195 -79l-66 -14l-6 2l-23 23z" />
<glyph unicode="&#xdf;" horiz-adv-x="1202" d="M125 -29q-8 -51 21.5 -83.5t76.5 -32.5h13q53 6 96 45t51 86q2 23 0 32l213 1037q2 12 10 38.5t24.5 56.5t41 55.5t61.5 35.5q29 8 55.5 13.5t47.5 5.5q23 0 39 -11.5t16 -42.5q-16 -16 -31.5 -30.5t-32.5 -28.5q-59 -57 -116.5 -125t-71.5 -162l-6 -37q-4 -10 -6 -19 t-4 -20q-6 -47 14 -104t63 -107.5t104.5 -84t139.5 -33.5h2q10 0 18.5 -8.5t4.5 -26.5q-23 -49 -38.5 -80t-28.5 -49.5t-28.5 -26.5t-39.5 -14h-5q-25 0 -56.5 24.5t-78.5 65.5q-33 23 -73 22q-41 0 -82 -20t-58 -72l2 4q-4 -10 -5 -15t-3 -11q-6 -43 18.5 -82t67.5 -69.5 t97.5 -48t105.5 -17.5h41q66 10 130 39.5t119.5 80t97.5 124t65 171.5v3q8 55 -4.5 100t-39 76.5t-64.5 48t-79 16.5q-106 0 -158.5 39t-42.5 98q4 35 32 72t81 76q37 27 58.5 44t35 30.5t20.5 27t17 31.5v-2l10 18v-2q29 55 35 97q8 61 -13.5 107t-64.5 77t-100 47t-117 16 q-23 0 -46 -2t-42 -6q-96 -18 -161.5 -64t-110.5 -109.5t-73 -141.5t-46 -162l-12 -51l-31 -12l4 2l-24 -7h2q-20 -4 -38 -9t-33 -17.5t-27.5 -32.5t-20.5 -57q0 -4 -2 -9.5t-2 -9.5q-8 -47 15.5 -66.5t57.5 -19.5q25 0 48 6l-144 -686v-2q-6 -10 -8 -19t-4 -20z" />
<glyph unicode="&#xe0;" horiz-adv-x="1230" d="M37 215q0 -55 16.5 -103.5t42.5 -80.5q41 -51 98.5 -71.5t124.5 -20.5q63 0 135 16t144 43t139.5 60.5t122.5 66.5h14q8 -10 10.5 -21.5t2.5 -23.5q0 -23 -4 -43.5t-4 -36.5q0 -63 65 -63q8 0 18.5 4t20.5 4q8 0 12 -2q20 -10 47 -11q29 0 49.5 16.5t33 41t18.5 55.5 t6 61v19l55 383q8 49 14.5 93t17.5 93t28.5 107.5t50.5 136.5q-6 37 -28.5 62.5t-55.5 41t-74 21.5t-86 6q-35 0 -65.5 -2t-53.5 -6q-98 -12 -184 -22.5t-166 -20.5t-155.5 -23.5t-153.5 -31.5q-29 -33 -36 -59.5t-7 -67.5v-52q0 -23 20.5 -29.5t51.5 -6.5q80 0 159.5 14 t159.5 31q66 10 133.5 21t136.5 11h43q10 0 21.5 -1t21.5 -3h4q25 -8 34 -16t9 -17q0 -4 -2 -10t-4 -10q-8 -35 -12 -73t-33 -64l-12 -4q-82 27 -150.5 43t-154.5 18h-10q-72 0 -139.5 -12t-135 -43t-136.5 -83t-142 -130q-41 -47 -58.5 -99.5t-17.5 -105.5zM281 256 q0 33 40.5 68.5t96 66.5t114 51.5t93.5 20.5h8q16 2 32.5 3t32.5 1q61 0 113.5 -16.5t58.5 -57.5l-4 -10q-100 -82 -228 -131t-271 -49h-35q-51 20 -51 53zM559 1526q0 -18 1 -26.5t5 -18.5q10 -33 22.5 -56.5t30 -43t40 -38t55.5 -43.5q35 -25 58.5 -43t33.5 -32 q31 -39 54.5 -48.5t31.5 -9.5h4q39 14 56.5 26.5t17.5 41.5q0 18 -23 68q-16 33 -39.5 69.5t-51.5 72.5t-57.5 65.5t-56.5 48.5q-66 43 -112 43q-33 0 -51.5 -17.5t-18.5 -58.5z" />
<glyph unicode="&#xe1;" horiz-adv-x="1230" d="M37 215q0 -55 16.5 -103.5t42.5 -80.5q41 -51 98.5 -71.5t124.5 -20.5q63 0 135 16t144 43t139.5 60.5t122.5 66.5h14q8 -10 10.5 -21.5t2.5 -23.5q0 -23 -4 -43.5t-4 -36.5q0 -63 65 -63q8 0 18.5 4t20.5 4q8 0 12 -2q20 -10 47 -11q29 0 49.5 16.5t33 41t18.5 55.5 t6 61v19l55 383q8 49 14.5 93t17.5 93t28.5 107.5t50.5 136.5q-6 37 -28.5 62.5t-55.5 41t-74 21.5t-86 6q-35 0 -65.5 -2t-53.5 -6q-98 -12 -184 -22.5t-166 -20.5t-155.5 -23.5t-153.5 -31.5q-29 -33 -36 -59.5t-7 -67.5v-52q0 -23 20.5 -29.5t51.5 -6.5q80 0 159.5 14 t159.5 31q66 10 133.5 21t136.5 11h43q10 0 21.5 -1t21.5 -3h4q25 -8 34 -16t9 -17q0 -4 -2 -10t-4 -10q-8 -35 -12 -73t-33 -64l-12 -4q-82 27 -150.5 43t-154.5 18h-10q-72 0 -139.5 -12t-135 -43t-136.5 -83t-142 -130q-41 -47 -58.5 -99.5t-17.5 -105.5zM281 256 q0 33 40.5 68.5t96 66.5t114 51.5t93.5 20.5h8q16 2 32.5 3t32.5 1q61 0 113.5 -16.5t58.5 -57.5l-4 -10q-100 -82 -228 -131t-271 -49h-35q-51 20 -51 53zM670 1223q0 -29 16 -40.5t51 -25.5l8 -2h7q14 0 30.5 8t51.5 49q10 14 33.5 33t58.5 43q33 25 55.5 43.5t39.5 38 t29.5 43t22.5 55.5q2 10 4 18.5t2 26.5q0 41 -18.5 58.5t-50.5 17.5q-23 0 -52.5 -11t-62.5 -32q-27 -18 -55.5 -48t-56 -65.5t-51 -72.5t-40.5 -70q-23 -49 -22 -67z" />
<glyph unicode="&#xe2;" horiz-adv-x="1230" d="M37 215q0 -55 16.5 -103.5t42.5 -80.5q41 -51 98.5 -71.5t124.5 -20.5q63 0 135 16t144 43t139.5 60.5t122.5 66.5h14q8 -10 10.5 -21.5t2.5 -23.5q0 -23 -4 -43.5t-4 -36.5q0 -63 65 -63q8 0 18.5 4t20.5 4q8 0 12 -2q20 -10 47 -11q29 0 49.5 16.5t33 41t18.5 55.5 t6 61v19l55 383q8 49 14.5 93t17.5 93t28.5 107.5t50.5 136.5q-6 37 -28.5 62.5t-55.5 41t-74 21.5t-86 6q-35 0 -65.5 -2t-53.5 -6q-98 -12 -184 -22.5t-166 -20.5t-155.5 -23.5t-153.5 -31.5q-29 -33 -36 -59.5t-7 -67.5v-52q0 -23 20.5 -29.5t51.5 -6.5q80 0 159.5 14 t159.5 31q66 10 133.5 21t136.5 11h43q10 0 21.5 -1t21.5 -3h4q25 -8 34 -16t9 -17q0 -4 -2 -10t-4 -10q-8 -35 -12 -73t-33 -64l-12 -4q-82 27 -150.5 43t-154.5 18h-10q-72 0 -139.5 -12t-135 -43t-136.5 -83t-142 -130q-41 -47 -58.5 -99.5t-17.5 -105.5zM281 256 q0 33 40.5 68.5t96 66.5t114 51.5t93.5 20.5h8q16 2 32.5 3t32.5 1q61 0 113.5 -16.5t58.5 -57.5l-4 -10q-100 -82 -228 -131t-271 -49h-35q-51 20 -51 53zM563 1268q0 -33 10 -54q27 -53 70 -53q27 0 57 25q23 23 37.5 38t30.5 31l16.5 16.5t20.5 18.5q43 -4 72.5 -19.5 t83.5 -56.5q12 -8 24 -14t29 -6q20 0 43 18q37 27 37 86q0 23 -5.5 41.5t-11.5 36.5v-2q-10 20 -18 28.5t-19 14.5q6 -4 -11 15.5t-50 44t-79 46t-99 21.5h-6q-29 0 -46.5 -18.5t-27.5 -61.5q0 -10 -14.5 -20t-33 -20.5t-37 -21.5t-26.5 -22q-18 -16 -32.5 -45.5 t-14.5 -66.5z" />
<glyph unicode="&#xe3;" horiz-adv-x="1230" d="M37 215q0 -55 16.5 -103.5t42.5 -80.5q41 -51 98.5 -71.5t124.5 -20.5q63 0 135 16t144 43t139.5 60.5t122.5 66.5h14q8 -10 10.5 -21.5t2.5 -23.5q0 -23 -4 -43.5t-4 -36.5q0 -63 65 -63q8 0 18.5 4t20.5 4q8 0 12 -2q20 -10 47 -11q29 0 49.5 16.5t33 41t18.5 55.5 t6 61v19l55 383q8 49 14.5 93t17.5 93t28.5 107.5t50.5 136.5q-6 37 -28.5 62.5t-55.5 41t-74 21.5t-86 6q-35 0 -65.5 -2t-53.5 -6q-98 -12 -184 -22.5t-166 -20.5t-155.5 -23.5t-153.5 -31.5q-29 -33 -36 -59.5t-7 -67.5v-52q0 -23 20.5 -29.5t51.5 -6.5q80 0 159.5 14 t159.5 31q66 10 133.5 21t136.5 11h43q10 0 21.5 -1t21.5 -3h4q25 -8 34 -16t9 -17q0 -4 -2 -10t-4 -10q-8 -35 -12 -73t-33 -64l-12 -4q-82 27 -150.5 43t-154.5 18h-10q-72 0 -139.5 -12t-135 -43t-136.5 -83t-142 -130q-41 -47 -58.5 -99.5t-17.5 -105.5zM281 256 q0 33 40.5 68.5t96 66.5t114 51.5t93.5 20.5h8q16 2 32.5 3t32.5 1q61 0 113.5 -16.5t58.5 -57.5l-4 -10q-100 -82 -228 -131t-271 -49h-35q-51 20 -51 53zM549 1243q0 -29 23.5 -49t64.5 -20q27 0 45 14t37 33q10 10 22.5 20t20.5 10l5 -6t13 -12q20 -23 51 -45.5t91 -22.5 q94 0 148.5 37.5t64.5 143.5v4q0 25 -28 43t-58 18q-25 0 -47.5 -11t-32.5 -36q-2 -4 -3 -10t-3 -11q-4 -12 -8.5 -25t-14.5 -13t-18.5 10t-18.5 22v-2q-18 23 -43.5 45.5t-77.5 22.5q-33 0 -71.5 -13.5t-74.5 -36t-60.5 -50t-26.5 -56.5v-4z" />
<glyph unicode="&#xe4;" horiz-adv-x="1230" d="M37 215q0 -55 16.5 -103.5t42.5 -80.5q41 -51 98.5 -71.5t124.5 -20.5q63 0 135 16t144 43t139.5 60.5t122.5 66.5h14q8 -10 10.5 -21.5t2.5 -23.5q0 -23 -4 -43.5t-4 -36.5q0 -63 65 -63q8 0 18.5 4t20.5 4q8 0 12 -2q20 -10 47 -11q29 0 49.5 16.5t33 41t18.5 55.5 t6 61v19l55 383q8 49 14.5 93t17.5 93t28.5 107.5t50.5 136.5q-6 37 -28.5 62.5t-55.5 41t-74 21.5t-86 6q-35 0 -65.5 -2t-53.5 -6q-98 -12 -184 -22.5t-166 -20.5t-155.5 -23.5t-153.5 -31.5q-29 -33 -36 -59.5t-7 -67.5v-52q0 -23 20.5 -29.5t51.5 -6.5q80 0 159.5 14 t159.5 31q66 10 133.5 21t136.5 11h43q10 0 21.5 -1t21.5 -3h4q25 -8 34 -16t9 -17q0 -4 -2 -10t-4 -10q-8 -35 -12 -73t-33 -64l-12 -4q-82 27 -150.5 43t-154.5 18h-10q-72 0 -139.5 -12t-135 -43t-136.5 -83t-142 -130q-41 -47 -58.5 -99.5t-17.5 -105.5zM281 256 q0 33 40.5 68.5t96 66.5t114 51.5t93.5 20.5h8q16 2 32.5 3t32.5 1q61 0 113.5 -16.5t58.5 -57.5l-4 -10q-100 -82 -228 -131t-271 -49h-35q-51 20 -51 53zM473 1298q10 -47 55 -78.5t119 -33.5q82 0 133 27.5t51 74.5v2q-6 47 -52 80t-128 33h-4q-78 0 -126 -28.5 t-48 -76.5zM879 1300q2 -47 47 -79.5t123 -34.5q78 0 131 27.5t53 74.5v2q-4 47 -52 80t-124 33h-10q-76 0 -122 -27.5t-46 -75.5z" />
<glyph unicode="&#xe5;" horiz-adv-x="1230" d="M37 215q0 -55 16.5 -103.5t42.5 -80.5q41 -51 98.5 -71.5t124.5 -20.5q63 0 135 16t144 43t139.5 60.5t122.5 66.5h14q8 -10 10.5 -21.5t2.5 -23.5q0 -23 -4 -43.5t-4 -36.5q0 -63 65 -63q8 0 18.5 4t20.5 4q8 0 12 -2q20 -10 47 -11q29 0 49.5 16.5t33 41t18.5 55.5 t6 61v19l55 383q8 49 14.5 93t17.5 93t28.5 107.5t50.5 136.5q-6 37 -28.5 62.5t-55.5 41t-74 21.5t-86 6q-35 0 -65.5 -2t-53.5 -6q-98 -12 -184 -22.5t-166 -20.5t-155.5 -23.5t-153.5 -31.5q-29 -33 -36 -59.5t-7 -67.5v-52q0 -23 20.5 -29.5t51.5 -6.5q80 0 159.5 14 t159.5 31q66 10 133.5 21t136.5 11h43q10 0 21.5 -1t21.5 -3h4q25 -8 34 -16t9 -17q0 -4 -2 -10t-4 -10q-8 -35 -12 -73t-33 -64l-12 -4q-82 27 -150.5 43t-154.5 18h-10q-72 0 -139.5 -12t-135 -43t-136.5 -83t-142 -130q-41 -47 -58.5 -99.5t-17.5 -105.5zM281 256 q0 33 40.5 68.5t96 66.5t114 51.5t93.5 20.5h8q16 2 32.5 3t32.5 1q61 0 113.5 -16.5t58.5 -57.5l-4 -10q-100 -82 -228 -131t-271 -49h-35q-51 20 -51 53zM653 1309q0 -61 35 -108.5t121 -47.5q49 0 96 20.5t84 55.5t60.5 81t27.5 97v2q0 6 1 12t1 13q0 63 -36.5 111 t-112.5 48q-63 0 -113.5 -26.5t-85.5 -66.5t-55.5 -89t-22.5 -92v-10zM838 1337q2 29 21.5 56.5t58.5 27.5q8 0 8 -14v-8q-2 -33 -24.5 -57.5t-55.5 -24.5q-8 0 -8 20z" />
<glyph unicode="&#xe6;" horiz-adv-x="2158" d="M78 215q0 -55 16.5 -103.5t42.5 -80.5q41 -51 98.5 -71.5t124.5 -20.5q63 0 135 16t144 43t139.5 60.5t122.5 66.5h14q8 -10 10.5 -21.5t2.5 -23.5q0 -23 -4 -43.5t-4 -36.5q0 -63 65 -63q8 0 18.5 4t20.5 4q8 0 12 -2q20 -10 47 -11q47 0 72 40t31 89q70 -39 144.5 -52 t160.5 -13q129 0 265 29.5t274 74.5h2q33 16 48 59.5t15 84.5t-16.5 68.5t-50.5 27.5q-31 0 -72 -13.5t-82 -29.5q-29 -10 -57.5 -20.5t-69.5 -20.5q-86 -18 -163 -32.5t-144 -14.5q-72 0 -129.5 21.5t-91.5 95.5v2q29 29 83 34t99 5q98 2 195.5 9t188.5 31.5t170 74.5 t140 141q31 39 43 88t12 106q0 59 -22.5 115.5t-73.5 79.5q-57 27 -132 40t-161 13q-98 -8 -211.5 -23.5t-212.5 -56.5q-29 47 -91 65.5t-134 18.5q-35 0 -65.5 -2t-53.5 -6q-98 -12 -184 -22.5t-166 -20.5t-155.5 -23.5t-153.5 -31.5q-29 -33 -36 -59.5t-7 -67.5v-52 q0 -23 20.5 -29.5t50.5 -6.5q80 0 160 14t160 31q66 10 133.5 21t136.5 11h43q10 0 21.5 -1t21.5 -3h4q25 -8 34 -16t9 -17q0 -4 -2 -10t-4 -10q-6 -25 -8 -51.5t-12 -48.5q-2 -4 -2 -6t-2 -5q-10 -16 -21 -26l-12 -4q-82 27 -151.5 43t-163.5 18q-72 0 -139.5 -12t-135 -43 t-136.5 -83t-142 -130q-41 -47 -58.5 -99.5t-17.5 -105.5zM322 256q0 33 40.5 68.5t97 66.5t116 51.5t98.5 20.5q16 2 32.5 3t32.5 1q61 0 113.5 -16.5t58.5 -57.5l-4 -10q-100 -82 -228 -131t-271 -49h-35q-51 20 -51 53zM1270 614v7q2 39 34.5 76.5t76.5 66.5t91.5 47 t79.5 20q41 14 69 19.5t48 5.5t33.5 -4t26.5 -6h22q33 0 65.5 -5t59.5 -15.5t42 -25t15 -32.5v-8l-71 -105q-29 -25 -48.5 -38t-47 -21t-73.5 -13t-126 -14q-100 8 -158.5 14.5t-89.5 11.5t-39 9t-10 10z" />
<glyph unicode="&#xe7;" horiz-adv-x="1257" d="M57 338q12 -49 22.5 -88t28 -73t46 -63.5t75.5 -60.5q92 -61 189 -80l-152 -114q-23 -14 -31 -20.5t-8 -28.5q0 -2 52 -3h120h39t19 -2q-68 -18 -114 -42.5t-75.5 -49t-42 -47t-12.5 -35.5q0 -35 51 -51t127 -16q66 0 140.5 11t137 31.5t103.5 49.5t41 63v23 q0 41 -26.5 71.5t-63.5 55.5q-35 16 -67.5 28.5t-73.5 16.5l67 57q12 2 25.5 3t25.5 6q80 14 142.5 29.5t120 36t114 50t123.5 74.5q14 8 22.5 28.5t8.5 43.5q0 20 -6 41.5t-16.5 40t-26 30t-33.5 11.5h-10q-41 -6 -81 -22.5t-81 -35l-82 -37t-80 -28.5 q-59 -14 -121.5 -22.5t-126.5 -8.5q-16 -4 -30 -4h-29q-49 0 -88 13t-64.5 32.5t-41 42t-17.5 43.5q-25 39 -25 90q0 41 15.5 81t39 71.5t49 53t44.5 25.5q72 51 152.5 83t172.5 32q43 0 85 -8t85 -18h3q41 -14 75.5 -36t75.5 -50q2 -2 2 -3l2 -2h4q23 -16 35 -27.5 t41 -11.5q27 0 62.5 16.5t67.5 39t53.5 48.5t21.5 44v2q-8 6 -8 12v2q-76 111 -217.5 177.5t-321.5 66.5q-53 0 -111.5 -7t-117.5 -24q-199 -68 -319 -172t-167 -239q-6 -18 -13 -53t-12 -72t-9.5 -71t-4.5 -50z" />
<glyph unicode="&#xe8;" horiz-adv-x="1153" d="M82 305q0 -10 2 -20q0 -82 46 -138.5t106 -97.5q78 -53 163.5 -72.5t184.5 -19.5q129 0 265 29.5t273 74.5h2q33 16 48.5 59.5t15.5 84.5t-16.5 68.5t-51.5 27.5q-31 0 -71.5 -13.5t-81.5 -29.5q-29 -10 -57.5 -20.5t-69.5 -20.5q-86 -18 -163 -32.5t-145 -14.5 q-72 0 -129 21.5t-92 97.5q29 29 83.5 34t99.5 5q98 2 195 9t188.5 31.5t170 75t140.5 140.5q31 39 43 88t12 106q0 59 -22.5 115.5t-73.5 79.5q-57 27 -132 40t-161 13q-53 -4 -111.5 -9t-119 -16.5t-119 -28t-107.5 -42.5q-39 -23 -93 -78t-103 -135t-84 -179.5 t-35 -209.5v-23zM362 575v7q2 39 35 76.5t77 66.5t91 47.5t80 20.5q41 14 68.5 19t48.5 5q20 0 33.5 -4t25.5 -6h23q33 0 65.5 -5t59 -15.5t42 -24.5t15.5 -33v-8l-72 -105q-29 -25 -48 -38t-47 -21t-74 -13t-126 -14q-100 8 -158.5 14.5t-89 11.5t-38.5 9t-11 10zM469 1466 q0 -18 1 -26t5 -19q10 -33 22.5 -56.5t30 -42.5t40 -37.5t55.5 -43.5q35 -25 58.5 -43t33.5 -33q31 -39 54.5 -48t31.5 -9h4q39 14 56.5 26.5t17.5 41.5q0 18 -23 67q-16 33 -39.5 70t-51.5 72.5t-57.5 65.5t-56.5 48q-66 43 -112 43q-33 0 -51.5 -17.5t-18.5 -58.5z" />
<glyph unicode="&#xe9;" horiz-adv-x="1153" d="M82 305q0 -10 2 -20q0 -82 46 -138.5t106 -97.5q78 -53 163.5 -72.5t184.5 -19.5q129 0 265 29.5t273 74.5h2q33 16 48.5 59.5t15.5 84.5t-16.5 68.5t-51.5 27.5q-31 0 -71.5 -13.5t-81.5 -29.5q-29 -10 -57.5 -20.5t-69.5 -20.5q-86 -18 -163 -32.5t-145 -14.5 q-72 0 -129 21.5t-92 97.5q29 29 83.5 34t99.5 5q98 2 195 9t188.5 31.5t170 75t140.5 140.5q31 39 43 88t12 106q0 59 -22.5 115.5t-73.5 79.5q-57 27 -132 40t-161 13q-53 -4 -111.5 -9t-119 -16.5t-119 -28t-107.5 -42.5q-39 -23 -93 -78t-103 -135t-84 -179.5 t-35 -209.5v-23zM362 575v7q2 39 35 76.5t77 66.5t91 47.5t80 20.5q41 14 68.5 19t48.5 5q20 0 33.5 -4t25.5 -6h23q33 0 65.5 -5t59 -15.5t42 -24.5t15.5 -33v-8l-72 -105q-29 -25 -48 -38t-47 -21t-74 -13t-126 -14q-100 8 -158.5 14.5t-89 11.5t-38.5 9t-11 10zM608 1204 q0 -29 16.5 -40t51.5 -25l8 -2h6q14 0 30.5 8t51.5 49q10 14 33.5 32.5t58.5 43.5q33 25 55.5 43t40 37.5t29.5 43t23 56.5q2 10 4 18.5t2 26.5q0 41 -18.5 58.5t-51.5 17.5q-23 0 -52.5 -11.5t-61.5 -31.5q-27 -18 -55.5 -48t-56.5 -66t-51.5 -72.5t-39.5 -69.5 q-23 -49 -23 -68z" />
<glyph unicode="&#xea;" horiz-adv-x="1153" d="M82 305q0 -10 2 -20q0 -82 46 -138.5t106 -97.5q78 -53 163.5 -72.5t184.5 -19.5q129 0 265 29.5t273 74.5h2q33 16 48.5 59.5t15.5 84.5t-16.5 68.5t-51.5 27.5q-31 0 -71.5 -13.5t-81.5 -29.5q-29 -10 -57.5 -20.5t-69.5 -20.5q-86 -18 -163 -32.5t-145 -14.5 q-72 0 -129 21.5t-92 97.5q29 29 83.5 34t99.5 5q98 2 195 9t188.5 31.5t170 75t140.5 140.5q31 39 43 88t12 106q0 59 -22.5 115.5t-73.5 79.5q-57 27 -132 40t-161 13q-53 -4 -111.5 -9t-119 -16.5t-119 -28t-107.5 -42.5q-39 -23 -93 -78t-103 -135t-84 -179.5 t-35 -209.5v-23zM362 575v7q2 39 35 76.5t77 66.5t91 47.5t80 20.5q41 14 68.5 19t48.5 5q20 0 33.5 -4t25.5 -6h23q33 0 65.5 -5t59 -15.5t42 -24.5t15.5 -33v-8l-72 -105q-29 -25 -48 -38t-47 -21t-74 -13t-126 -14q-100 8 -158.5 14.5t-89 11.5t-38.5 9t-11 10zM543 1249 q0 -33 10 -53q27 -53 70 -53q27 0 57 24q23 23 37 38.5t31 31.5q8 8 16 16.5t20 18.5q43 -4 73 -19.5t83 -56.5q12 -8 24.5 -14t28.5 -6q20 0 43 18q37 27 37 86q0 23 -5 41t-11 37v-2q-10 20 -18.5 28.5t-18.5 14.5q6 -4 -11.5 15.5t-50 44t-78.5 46t-100 21.5h-6 q-29 0 -46 -18.5t-28 -61.5q0 -10 -14 -20.5t-32.5 -20.5t-37 -21.5t-26.5 -21.5q-18 -16 -32.5 -46t-14.5 -67z" />
<glyph unicode="&#xeb;" horiz-adv-x="1153" d="M82 305q0 -10 2 -20q0 -82 46 -138.5t106 -97.5q78 -53 163.5 -72.5t184.5 -19.5q129 0 265 29.5t273 74.5h2q33 16 48.5 59.5t15.5 84.5t-16.5 68.5t-51.5 27.5q-31 0 -71.5 -13.5t-81.5 -29.5q-29 -10 -57.5 -20.5t-69.5 -20.5q-86 -18 -163 -32.5t-145 -14.5 q-72 0 -129 21.5t-92 97.5q29 29 83.5 34t99.5 5q98 2 195 9t188.5 31.5t170 75t140.5 140.5q31 39 43 88t12 106q0 59 -22.5 115.5t-73.5 79.5q-57 27 -132 40t-161 13q-53 -4 -111.5 -9t-119 -16.5t-119 -28t-107.5 -42.5q-39 -23 -93 -78t-103 -135t-84 -179.5 t-35 -209.5v-23zM362 575v7q2 39 35 76.5t77 66.5t91 47.5t80 20.5q41 14 68.5 19t48.5 5q20 0 33.5 -4t25.5 -6h23q33 0 65.5 -5t59 -15.5t42 -24.5t15.5 -33v-8l-72 -105q-29 -25 -48 -38t-47 -21t-74 -13t-126 -14q-100 8 -158.5 14.5t-89 11.5t-38.5 9t-11 10zM416 1288 q10 -47 55 -78.5t119 -33.5q82 0 133 27.5t51 74.5v2q-6 47 -52 80t-128 33h-4q-78 0 -126 -29t-48 -76zM821 1290q2 -47 47 -79.5t123 -34.5q78 0 131.5 27.5t53.5 74.5v2q-4 47 -52.5 80t-124.5 33h-10q-76 0 -122 -28t-46 -75z" />
<glyph unicode="&#xec;" horiz-adv-x="475" d="M12 51q0 -43 28 -57t62 -14q61 0 89 15t42.5 51t25.5 96.5t38 150.5l47 184q12 41 23.5 82t25 91t29.5 118t39 164q0 4 2 6q0 4 1 5t1 5q0 39 -29.5 56.5t-66.5 17.5q-49 0 -95.5 -23.5t-54.5 -64.5q-33 -119 -57.5 -221.5t-57.5 -223.5q-16 -59 -28.5 -109t-22.5 -98.5 t-19 -98.5t-20 -111q0 -4 -1 -5t-1 -6v-10zM115 1479q0 -18 1 -26.5t5 -18.5q10 -33 22.5 -56.5t29.5 -43t40 -38t55 -43.5q35 -25 58.5 -43t33.5 -32q31 -39 54.5 -48.5t31.5 -9.5h5q39 14 56 26.5t17 41.5q0 18 -22 67q-16 33 -40 70t-51.5 73t-57 65.5t-56.5 47.5 q-66 43 -113 43q-33 0 -51 -17t-18 -58z" />
<glyph unicode="&#xed;" horiz-adv-x="475" d="M12 51q0 -43 28 -57t62 -14q61 0 89 15t42.5 51t25.5 96.5t38 150.5l47 184q12 41 23.5 82t25 91t29.5 118t39 164q0 4 2 6q0 4 1 5t1 5q0 39 -29.5 56.5t-66.5 17.5q-49 0 -95.5 -23.5t-54.5 -64.5q-33 -119 -57.5 -221.5t-57.5 -223.5q-16 -59 -28.5 -109t-22.5 -98.5 t-19 -98.5t-20 -111q0 -4 -1 -5t-1 -6v-10zM190 1192q0 -29 16.5 -40t51.5 -26l8 -2h6q14 0 30.5 8.5t51.5 49.5q10 14 34 32.5t58 42.5q33 25 55.5 43.5t40 38t30 43t22.5 56.5q2 10 4 18t2 27q0 41 -18.5 58.5t-51.5 17.5q-23 0 -52 -11.5t-62 -31.5q-27 -18 -55.5 -48 t-56.5 -66t-51.5 -73t-39.5 -69q-23 -49 -23 -68z" />
<glyph unicode="&#xee;" horiz-adv-x="475" d="M12 51q0 -43 28 -57t62 -14q61 0 89 15t42.5 51t25.5 96.5t38 150.5l47 184q12 41 23.5 82t25 91t29.5 118t39 164q0 4 2 6q0 4 1 5t1 5q0 39 -29.5 56.5t-66.5 17.5q-49 0 -95.5 -23.5t-54.5 -64.5q-33 -119 -57.5 -221.5t-57.5 -223.5q-16 -59 -28.5 -109t-22.5 -98.5 t-19 -98.5t-20 -111q0 -4 -1 -5t-1 -6v-10zM94 1257q0 -33 10 -53q27 -53 70 -53q27 0 57 25q23 23 37.5 38t30.5 31l16.5 16.5t20.5 18.5q43 -4 72.5 -19.5t83.5 -56.5q12 -8 24 -14t29 -6q20 0 43 18q37 27 37 86q0 23 -5.5 41.5t-11.5 36.5v-2q-10 20 -18 28.5t-19 14.5 q6 -4 -11 15.5t-50 44t-79 46t-99 21.5h-6q-29 0 -46.5 -18.5t-27.5 -61.5q0 -10 -14.5 -20.5t-33 -20.5t-36.5 -21.5t-27 -21.5q-18 -16 -32.5 -46t-14.5 -67z" />
<glyph unicode="&#xef;" horiz-adv-x="475" d="M12 51q0 -43 28 -57t62 -14q61 0 89 15t42.5 51t25.5 96.5t38 150.5l47 184q12 41 23.5 82t25 91t29.5 118t39 164q0 4 2 6q0 4 1 5t1 5q0 39 -29.5 56.5t-66.5 17.5q-49 0 -95.5 -23.5t-54.5 -64.5q-33 -119 -57.5 -221.5t-57.5 -223.5q-16 -59 -28.5 -109t-22.5 -98.5 t-19 -98.5t-20 -111q0 -4 -1 -5t-1 -6v-10zM43 1300q10 -47 55 -78.5t119 -33.5q82 0 133 27.5t51 74.5v2q-6 47 -52 80t-128 33h-4q-78 0 -126 -28.5t-48 -76.5zM449 1303q2 -47 47 -80t122 -35q78 0 131.5 27.5t53.5 74.5v2q-4 47 -52.5 80t-123.5 33h-11 q-76 0 -121.5 -27.5t-45.5 -74.5z" />
<glyph unicode="&#xf0;" horiz-adv-x="1288" d="M82 782q2 -123 24.5 -218t63.5 -173t101.5 -145.5t140.5 -136.5q43 -35 84 -62t79 -47q141 -72 252 -46t199 126q29 33 52.5 64.5t41.5 68.5q27 49 42.5 101.5t29.5 117.5q25 104 29 198.5t-9.5 184.5t-46 179t-84.5 184q-6 10 -11 17t-9 15q16 20 29.5 43t23.5 58 q2 10 4 18t2 27q0 41 -18.5 58.5t-50.5 17.5q-23 0 -52.5 -11.5t-62.5 -31.5q-8 -4 -10 -9q-16 16 -31.5 30.5t-36.5 33.5v-2q-29 29 -57 43q-37 18 -72 14t-61 -39h2q-4 -4 -7.5 -7t-7.5 -11q-14 -27 -11 -59.5t16.5 -66.5t35 -64.5t45.5 -49.5q12 -12 21 -18 q-10 -14 -16.5 -26.5t-12.5 -24.5q-23 -49 -22 -68q0 -29 16 -40t51 -26l8 -2h7q14 0 30.5 8.5t50.5 49.5q23 -35 41.5 -74t34.5 -88q2 -10 5 -17.5t8 -17.5q23 -68 37 -124t-1 -103q-45 72 -97 142.5t-111.5 135t-127 119.5t-143.5 94l-26 13q-78 35 -140.5 32.5 t-136.5 -53.5q-31 -23 -53.5 -50.5t-38.5 -62.5q-49 -92 -43 -219zM281 753.5q-6 36.5 0 59.5l10 16q16 35 49 32t72 -23q43 -23 88 -51.5t84 -63.5q14 -8 24 -16q94 -72 146.5 -168.5t87.5 -188.5q4 -33 0 -50t-8 -30q-12 -25 -40 -31t-58.5 0.5t-62.5 18.5t-55 23 q-45 25 -110.5 82t-118.5 139q-25 39 -47.5 84t-38.5 88t-22 79.5z" />
<glyph unicode="&#xf1;" horiz-adv-x="1222" d="M94 27q0 -29 25.5 -39.5t50.5 -10.5q33 0 65.5 15.5t63.5 36.5q29 27 35 59.5t6 67.5q20 88 32.5 144t21.5 96t16.5 69t15.5 59q10 14 51 36t93.5 44.5t103.5 43t82 32.5q18 10 49 20.5t64.5 19.5t67.5 15t60 6q10 0 31 -4q10 -16 10 -41q0 -18 -6 -45.5t-18.5 -70.5 t-29.5 -104.5t-38 -147.5q-23 -66 -40 -126.5t-23 -142.5v-2q0 -82 78 -82q27 0 69 13l2 -6v4q14 2 26.5 3t22.5 1q31 0 48.5 6t23.5 43q12 98 24.5 190.5t22.5 147.5q6 29 8 38t6.5 29.5t14.5 68.5t33 157q4 8 15 55t22.5 101.5t20.5 100.5t9 52q0 37 -24.5 63.5 t-65.5 26.5h-16q-96 0 -187.5 -23.5t-181.5 -58.5t-181 -72.5t-188 -68.5q4 35 9.5 69.5t5.5 69.5q0 23 -29 36t-70 13q-25 0 -51 -7t-47.5 -24.5t-35 -45t-13.5 -68.5v-12q-6 -23 -17.5 -70t-23.5 -100.5t-22.5 -103.5t-14.5 -81q-6 -18 -16 -65t-22.5 -112.5t-24 -145.5 t-19.5 -164v-8zM575 1227q0 -29 24 -49.5t65 -20.5q27 0 45 14.5t36 32.5q10 10 22.5 20.5t20.5 10.5l6 -6q5 -6 13 -12q20 -23 51 -45.5t90 -22.5q94 0 148.5 37t64.5 143v4q0 25 -27.5 43.5t-58.5 18.5q-25 0 -47 -11.5t-33 -35.5q-2 -4 -3 -10.5t-3 -10.5 q-4 -12 -8 -25.5t-14 -13.5t-18.5 10.5t-18.5 22.5v-2q-18 23 -44 45t-77 22q-33 0 -72 -13t-74.5 -35.5t-60 -50t-27.5 -56.5v-4z" />
<glyph unicode="&#xf2;" horiz-adv-x="1245" d="M49 410q0 -27 9.5 -60t20.5 -60.5t21.5 -47t12.5 -17.5q2 -10 26.5 -36.5t59 -56.5t72.5 -55.5t69 -31.5q111 -51 238 -51q49 0 108 8t120.5 23.5t118 37t99.5 46.5q170 102 242.5 211.5t72.5 232.5q0 20 -1 49t-4 60.5t-11 63.5t-23 58l-86 107q-23 18 -43 32.5 t-47.5 27t-70.5 24.5t-111 26q-49 10 -94 16.5t-90 6.5q-145 0 -303 -70q-176 -92 -284 -229t-120 -297q-2 -6 -2 -18zM291 461q0 53 23.5 103t70.5 79q37 31 67.5 56.5t60.5 42t63.5 25.5t76.5 9q16 6 48 10.5t69 4.5q47 0 93 -6.5t75 -22.5q94 -33 141 -79t29 -138 q0 -45 -36 -85t-85 -87q-4 -4 -6 -7.5t-4 -5.5l-4 -4q-82 -70 -179.5 -104.5t-201.5 -34.5q-84 0 -158 23q-72 35 -107.5 95t-35.5 126zM514 1458q0 -18 1 -26.5t5 -18.5q10 -33 22.5 -56.5t30 -43t40 -38t55.5 -42.5q35 -25 58.5 -43.5t33.5 -32.5q31 -39 54.5 -48t31.5 -9 h4q39 14 56.5 26.5t17.5 40.5q0 18 -23 68q-16 33 -39.5 69.5t-51.5 72.5t-57.5 66t-56.5 48q-66 43 -112 43q-33 0 -51.5 -17.5t-18.5 -58.5z" />
<glyph unicode="&#xf3;" horiz-adv-x="1245" d="M49 410q0 -27 9.5 -60t20.5 -60.5t21.5 -47t12.5 -17.5q2 -10 26.5 -36.5t59 -56.5t72.5 -55.5t69 -31.5q111 -51 238 -51q49 0 108 8t120.5 23.5t118 37t99.5 46.5q170 102 242.5 211.5t72.5 232.5q0 20 -1 49t-4 60.5t-11 63.5t-23 58l-86 107q-23 18 -43 32.5 t-47.5 27t-70.5 24.5t-111 26q-49 10 -94 16.5t-90 6.5q-145 0 -303 -70q-176 -92 -284 -229t-120 -297q-2 -6 -2 -18zM291 461q0 53 23.5 103t70.5 79q37 31 67.5 56.5t60.5 42t63.5 25.5t76.5 9q16 6 48 10.5t69 4.5q47 0 93 -6.5t75 -22.5q94 -33 141 -79t29 -138 q0 -45 -36 -85t-85 -87q-4 -4 -6 -7.5t-4 -5.5l-4 -4q-82 -70 -179.5 -104.5t-201.5 -34.5q-84 0 -158 23q-72 35 -107.5 95t-35.5 126zM520 1180q0 -29 16.5 -40.5t51.5 -25.5l8 -2h6q14 0 30.5 8t51.5 49q10 14 33.5 33t58.5 43q33 25 55.5 43.5t40 38t29.5 43t23 55.5 q2 10 4 18.5t2 26.5q0 41 -18.5 58.5t-51.5 17.5q-23 0 -52.5 -11t-62.5 -32q-27 -18 -55 -48t-56 -65.5t-51.5 -72.5t-39.5 -70q-23 -49 -23 -67z" />
<glyph unicode="&#xf4;" horiz-adv-x="1245" d="M49 410q0 -27 9.5 -60t20.5 -60.5t21.5 -47t12.5 -17.5q2 -10 26.5 -36.5t59 -56.5t72.5 -55.5t69 -31.5q111 -51 238 -51q49 0 108 8t120.5 23.5t118 37t99.5 46.5q170 102 242.5 211.5t72.5 232.5q0 20 -1 49t-4 60.5t-11 63.5t-23 58l-86 107q-23 18 -43 32.5 t-47.5 27t-70.5 24.5t-111 26q-49 10 -94 16.5t-90 6.5q-145 0 -303 -70q-176 -92 -284 -229t-120 -297q-2 -6 -2 -18zM291 461q0 53 23.5 103t70.5 79q37 31 67.5 56.5t60.5 42t63.5 25.5t76.5 9q16 6 48 10.5t69 4.5q47 0 93 -6.5t75 -22.5q94 -33 141 -79t29 -138 q0 -45 -36 -85t-85 -87q-4 -4 -6 -7.5t-4 -5.5l-4 -4q-82 -70 -179.5 -104.5t-201.5 -34.5q-84 0 -158 23q-72 35 -107.5 95t-35.5 126zM453 1196q0 -33 10 -53q27 -53 69 -53q27 0 58 24q23 23 37 38t30 32q8 8 16.5 16t20.5 19q43 -4 73 -19.5t83 -56.5q12 -8 24.5 -14.5 t28.5 -6.5q20 0 43 19q37 27 37 86q0 23 -5 41t-11 37v-2q-10 20 -18.5 28t-18.5 15q6 -4 -11.5 15t-50 44t-79 46.5t-99.5 21.5h-6q-29 0 -46 -18.5t-28 -61.5q0 -10 -14 -20.5t-32.5 -21t-37 -21.5t-26.5 -21q-18 -16 -32.5 -46t-14.5 -67z" />
<glyph unicode="&#xf5;" horiz-adv-x="1245" d="M49 410q0 -27 9.5 -60t20.5 -60.5t21.5 -47t12.5 -17.5q2 -10 26.5 -36.5t59 -56.5t72.5 -55.5t69 -31.5q111 -51 238 -51q49 0 108 8t120.5 23.5t118 37t99.5 46.5q170 102 242.5 211.5t72.5 232.5q0 20 -1 49t-4 60.5t-11 63.5t-23 58l-86 107q-23 18 -43 32.5 t-47.5 27t-70.5 24.5t-111 26q-49 10 -94 16.5t-90 6.5q-145 0 -303 -70q-176 -92 -284 -229t-120 -297q-2 -6 -2 -18zM291 461q0 53 23.5 103t70.5 79q37 31 67.5 56.5t60.5 42t63.5 25.5t76.5 9q16 6 48 10.5t69 4.5q47 0 93 -6.5t75 -22.5q94 -33 141 -79t29 -138 q0 -45 -36 -85t-85 -87q-4 -4 -6 -7.5t-4 -5.5l-4 -4q-82 -70 -179.5 -104.5t-201.5 -34.5q-84 0 -158 23q-72 35 -107.5 95t-35.5 126zM428 1184q0 -29 23.5 -49.5t64.5 -20.5q27 0 45.5 14.5t36.5 32.5q10 10 22.5 20.5t20.5 10.5l5 -6t13 -12q20 -23 51 -45.5t91 -22.5 q94 0 148.5 37t64.5 143v4q0 25 -28 43.5t-58 18.5q-25 0 -47.5 -11.5t-32.5 -35.5q-2 -4 -3 -10.5t-3 -10.5l-8.5 -25.5t-14.5 -13.5t-18 10.5t-19 22.5v-2q-18 23 -43.5 45t-76.5 22q-33 0 -72 -13t-75 -35.5t-60.5 -50t-26.5 -56.5v-4z" />
<glyph unicode="&#xf6;" horiz-adv-x="1245" d="M49 410q0 -27 9.5 -60t20.5 -60.5t21.5 -47t12.5 -17.5q2 -10 26.5 -36.5t59 -56.5t72.5 -55.5t69 -31.5q111 -51 238 -51q49 0 108 8t120.5 23.5t118 37t99.5 46.5q170 102 242.5 211.5t72.5 232.5q0 20 -1 49t-4 60.5t-11 63.5t-23 58l-86 107q-23 18 -43 32.5 t-47.5 27t-70.5 24.5t-111 26q-49 10 -94 16.5t-90 6.5q-145 0 -303 -70q-176 -92 -284 -229t-120 -297q-2 -6 -2 -18zM291 461q0 53 23.5 103t70.5 79q37 31 67.5 56.5t60.5 42t63.5 25.5t76.5 9q16 6 48 10.5t69 4.5q47 0 93 -6.5t75 -22.5q94 -33 141 -79t29 -138 q0 -45 -36 -85t-85 -87q-4 -4 -6 -7.5t-4 -5.5l-4 -4q-82 -70 -179.5 -104.5t-201.5 -34.5q-84 0 -158 23q-72 35 -107.5 95t-35.5 126zM358 1239q10 -47 55.5 -79t118.5 -34q82 0 133.5 28t51.5 75v2q-6 47 -52.5 79.5t-127.5 32.5h-5q-78 0 -126 -28.5t-48 -75.5z M764 1241q2 -47 47 -80t123 -35q78 0 131 28t53 75v2q-4 47 -52 79.5t-124 32.5h-10q-76 0 -122 -27.5t-46 -74.5z" />
<glyph unicode="&#xf7;" horiz-adv-x="1099" d="M57 670q0 -8 2 -13v-14q4 -16 11.5 -43t21.5 -43q16 -25 57 -33t101 -8q25 0 51.5 1t56.5 1q27 2 53.5 4t55.5 2h4q12 0 65.5 1t115 3t116.5 5.5t72 7.5h41q53 0 77.5 3t45.5 17q18 8 23 17.5t5 25.5q-10 23 -20.5 43.5t-20.5 28.5q-53 49 -135 62.5t-176 13.5h-88 q-20 0 -42 -2t-42 -2q-51 0 -110.5 -1.5t-113 -3.5t-93 -4t-50.5 -4h2q-41 -8 -63.5 -17t-22.5 -40v-8zM311 295q0 -23 7.5 -39t17.5 -31q41 -31 77 -42t54 -11q29 0 55.5 7t46.5 18q39 20 64.5 53t28.5 72q0 70 -76 100q-20 10 -43 17t-45 7q-14 0 -22.5 -1t-20.5 -3 q-55 -10 -96.5 -47t-47.5 -84v-16zM414 961q0 -23 7 -39.5t17 -30.5q41 -31 77 -42t54 -11q29 0 55.5 7t47.5 17q39 20 64.5 53t27.5 72q0 70 -76 100q-20 10 -42.5 17.5t-45.5 7.5q-14 0 -22.5 -1t-20.5 -3q-55 -10 -96 -47t-47 -84v-16z" />
<glyph unicode="&#xf8;" horiz-adv-x="1245" d="M-25 -211q0 -49 35 -76.5t88 -27.5q39 0 83 20.5t79 63.5q47 59 95 118.5t98 118.5q61 -12 125 -12q49 0 108 8t120.5 23.5t118 37t99.5 46.5q170 102 242.5 211.5t72.5 232.5q0 20 -1 49t-4 60.5t-11 63.5t-23 58l-81 101q2 2 3 4t3 4q20 23 36.5 35t34.5 26 q29 20 57.5 45t52.5 54.5t38 67.5t14 85v21q0 18 -2 22q-6 47 -43 67.5t-84 20.5q-31 0 -62.5 -8t-54.5 -24q-96 -66 -160.5 -143t-125.5 -158q-45 10 -86 15t-82 5q-145 0 -303 -70q-176 -92 -284 -229t-120 -297q-2 -6 -2 -18q0 -27 9.5 -60t20.5 -60.5t21.5 -47 t12.5 -17.5q2 -10 26.5 -36.5t59.5 -55.5q-29 -37 -57.5 -76t-59.5 -82q-16 -23 -33.5 -45t-36.5 -45q-37 -53 -37 -96zM291 461q0 53 23.5 103t70.5 79q37 31 67.5 56.5t60.5 42t63.5 25.5t76.5 9q33 11 101 15l-9 -9v2q-16 -18 -36.5 -39.5t-38.5 -42.5q-43 -47 -85 -91 t-77 -91l2 2q-51 -61 -93 -112.5t-77 -96.5q-25 33 -37 71t-12 77zM625 217q104 123 208.5 245t217.5 245q39 -29 53 -66t4 -96q0 -45 -36 -85t-85 -87q-4 -4 -6 -7.5t-4 -5.5l-4 -4q-76 -66 -165 -99.5t-183 -39.5z" />
<glyph unicode="&#xf9;" horiz-adv-x="1083" d="M82 35q0 -37 12 -60.5t29 -27.5q20 0 25.5 -2t10.5 -3t14 1t37 7t82 17.5t146 32.5q74 16 127 27.5t91 17.5t62.5 8t41.5 2q18 0 30.5 -1t24.5 -1l2 -19q2 -20 11.5 -43.5t27.5 -43t53 -19.5h6q57 4 88 19.5t31 52.5q0 20 -12 55q10 57 18.5 101.5t17.5 84.5t18 84 t24 105q8 35 18 82t21.5 94t23 87t21.5 63l45 151q14 23 14 58q0 33 -16.5 59.5t-52.5 26.5q-8 0 -25 -4q-6 0 -11 1t-12 1q-41 0 -79.5 -21.5t-55.5 -81.5q-20 -78 -32.5 -124t-21.5 -77.5t-15.5 -55t-13.5 -53.5t-16 -75t-24 -119q-18 -53 -34.5 -79.5t-39 -40t-56 -21.5 t-85.5 -25q-14 -4 -54 -12t-87 -17t-93 -16.5t-73 -7.5q-2 -2 -6 -2q-12 0 -12 23t7 51.5t11 42.5q20 86 30.5 127t18.5 74.5t20.5 82t37.5 146.5q4 6 12 33.5t15 59.5t13.5 58.5t6.5 32.5q0 29 -27 45.5t-67 16.5q-92 0 -136.5 -44t-62.5 -116q-4 -12 -13.5 -60.5 t-20.5 -118t-24.5 -153.5t-25.5 -169t-22.5 -162.5t-16.5 -135.5q0 -6 -1 -11t-1 -9zM461 1442q0 -18 1 -26.5t5 -18.5q10 -33 22.5 -56.5t30 -43t40 -38t54.5 -42.5q35 -25 58.5 -43.5t34.5 -32.5q31 -39 54 -48.5t32 -9.5h4q39 14 56 26.5t17 41.5q0 18 -22 68 q-16 33 -40 69.5t-51.5 72.5t-57 65.5t-56.5 48.5q-66 43 -113 43q-33 0 -51 -17.5t-18 -58.5z" />
<glyph unicode="&#xfa;" horiz-adv-x="1083" d="M82 35q0 -37 12 -60.5t29 -27.5q20 0 25.5 -2t10.5 -3t14 1t37 7t82 17.5t146 32.5q74 16 127 27.5t91 17.5t62.5 8t41.5 2q18 0 30.5 -1t24.5 -1l2 -19q2 -20 11.5 -43.5t27.5 -43t53 -19.5h6q57 4 88 19.5t31 52.5q0 20 -12 55q10 57 18.5 101.5t17.5 84.5t18 84 t24 105q8 35 18 82t21.5 94t23 87t21.5 63l45 151q14 23 14 58q0 33 -16.5 59.5t-52.5 26.5q-8 0 -25 -4q-6 0 -11 1t-12 1q-41 0 -79.5 -21.5t-55.5 -81.5q-20 -78 -32.5 -124t-21.5 -77.5t-15.5 -55t-13.5 -53.5t-16 -75t-24 -119q-18 -53 -34.5 -79.5t-39 -40t-56 -21.5 t-85.5 -25q-14 -4 -54 -12t-87 -17t-93 -16.5t-73 -7.5q-2 -2 -6 -2q-12 0 -12 23t7 51.5t11 42.5q20 86 30.5 127t18.5 74.5t20.5 82t37.5 146.5q4 6 12 33.5t15 59.5t13.5 58.5t6.5 32.5q0 29 -27 45.5t-67 16.5q-92 0 -136.5 -44t-62.5 -116q-4 -12 -13.5 -60.5 t-20.5 -118t-24.5 -153.5t-25.5 -169t-22.5 -162.5t-16.5 -135.5q0 -6 -1 -11t-1 -9zM618 1155q0 -29 16.5 -40t51.5 -25l8 -3h6q14 0 31 8.5t51 49.5q10 14 34 32.5t58 43.5q33 25 55.5 43t40 37.5t30 43t22.5 56.5q2 10 4 18t2 27q0 41 -18.5 58.5t-51.5 17.5 q-23 0 -52 -11.5t-62 -31.5q-27 -18 -55.5 -48t-56 -66t-51.5 -73t-40 -69q-23 -49 -23 -68z" />
<glyph unicode="&#xfb;" horiz-adv-x="1083" d="M82 35q0 -37 12 -60.5t29 -27.5q20 0 25.5 -2t10.5 -3t14 1t37 7t82 17.5t146 32.5q74 16 127 27.5t91 17.5t62.5 8t41.5 2q18 0 30.5 -1t24.5 -1l2 -19q2 -20 11.5 -43.5t27.5 -43t53 -19.5h6q57 4 88 19.5t31 52.5q0 20 -12 55q10 57 18.5 101.5t17.5 84.5t18 84 t24 105q8 35 18 82t21.5 94t23 87t21.5 63l45 151q14 23 14 58q0 33 -16.5 59.5t-52.5 26.5q-8 0 -25 -4q-6 0 -11 1t-12 1q-41 0 -79.5 -21.5t-55.5 -81.5q-20 -78 -32.5 -124t-21.5 -77.5t-15.5 -55t-13.5 -53.5t-16 -75t-24 -119q-18 -53 -34.5 -79.5t-39 -40t-56 -21.5 t-85.5 -25q-14 -4 -54 -12t-87 -17t-93 -16.5t-73 -7.5q-2 -2 -6 -2q-12 0 -12 23t7 51.5t11 42.5q20 86 30.5 127t18.5 74.5t20.5 82t37.5 146.5q4 6 12 33.5t15 59.5t13.5 58.5t6.5 32.5q0 29 -27 45.5t-67 16.5q-92 0 -136.5 -44t-62.5 -116q-4 -12 -13.5 -60.5 t-20.5 -118t-24.5 -153.5t-25.5 -169t-22.5 -162.5t-16.5 -135.5q0 -6 -1 -11t-1 -9zM487 1219q0 -33 11 -54q27 -53 69 -53q27 0 58 25q23 23 37 38t30 31l16.5 16.5t20.5 18.5q43 -4 72.5 -19.5t83.5 -56.5q12 -8 24.5 -14t28.5 -6q20 0 43 18q37 27 37 86q0 23 -5 41.5 t-12 36.5v-2q-10 20 -18 28.5t-18 14.5q6 -4 -11.5 15.5t-50.5 44t-79 46t-99 21.5h-6q-29 0 -46.5 -18.5t-27.5 -61.5q0 -10 -14.5 -20.5t-32.5 -20.5t-36.5 -21.5t-26.5 -21.5q-18 -16 -33 -46t-15 -66z" />
<glyph unicode="&#xfc;" horiz-adv-x="1083" d="M82 35q0 -37 12 -60.5t29 -27.5q20 0 25.5 -2t10.5 -3t14 1t37 7t82 17.5t146 32.5q74 16 127 27.5t91 17.5t62.5 8t41.5 2q18 0 30.5 -1t24.5 -1l2 -19q2 -20 11.5 -43.5t27.5 -43t53 -19.5h6q57 4 88 19.5t31 52.5q0 20 -12 55q10 57 18.5 101.5t17.5 84.5t18 84 t24 105q8 35 18 82t21.5 94t23 87t21.5 63l45 151q14 23 14 58q0 33 -16.5 59.5t-52.5 26.5q-8 0 -25 -4q-6 0 -11 1t-12 1q-41 0 -79.5 -21.5t-55.5 -81.5q-20 -78 -32.5 -124t-21.5 -77.5t-15.5 -55t-13.5 -53.5t-16 -75t-24 -119q-18 -53 -34.5 -79.5t-39 -40t-56 -21.5 t-85.5 -25q-14 -4 -54 -12t-87 -17t-93 -16.5t-73 -7.5q-2 -2 -6 -2q-12 0 -12 23t7 51.5t11 42.5q20 86 30.5 127t18.5 74.5t20.5 82t37.5 146.5q4 6 12 33.5t15 59.5t13.5 58.5t6.5 32.5q0 29 -27 45.5t-67 16.5q-92 0 -136.5 -44t-62.5 -116q-4 -12 -13.5 -60.5 t-20.5 -118t-24.5 -153.5t-25.5 -169t-22.5 -162.5t-16.5 -135.5q0 -6 -1 -11t-1 -9zM412 1272q10 -47 55 -79t119 -34q82 0 133 27.5t51 75.5v2q-6 47 -52 79.5t-128 32.5h-4q-78 0 -126 -28.5t-48 -75.5zM817 1274q2 -47 47 -80t123 -35q78 0 131 27.5t53 75.5v2 q-4 47 -52 79.5t-124 32.5h-10q-76 0 -122 -27.5t-46 -74.5z" />
<glyph unicode="&#xfd;" horiz-adv-x="1007" d="M4 -195q0 -47 24.5 -87t59.5 -40q59 0 108.5 26t102.5 73q72 63 139.5 122.5t142 135.5t161.5 180t196 256q68 92 120 168t99 154q12 16 23.5 33.5t23.5 35.5l62 121q0 29 -22.5 51.5t-55.5 36.5q-23 10 -47.5 17.5t-46.5 7.5q-47 0 -79 -41t-54 -90q-10 -37 -35 -90.5 t-65 -116t-94 -130t-122 -130.5l-14 2q-104 117 -170 248t-101 241q-14 31 -36.5 43t-49.5 12q-12 0 -27.5 -2t-33.5 -8q-45 -14 -79 -49t-34 -70q0 -12 6 -24l3 -2q31 -68 65.5 -126t67 -108.5t60.5 -91.5t44 -71q20 -25 44 -58t42.5 -63.5t30.5 -55t12 -32.5v-2l-2 -5 q-25 -49 -76 -89t-115.5 -85t-134 -102t-131.5 -139q-12 -25 -12 -56zM553 1221q0 -29 16.5 -40.5t51.5 -25.5l8 -2h6q14 0 30.5 8t51.5 49q10 14 33.5 33t58.5 43q33 25 55.5 43.5t40 37.5t29.5 43t22 56q2 10 4.5 18.5t2.5 26.5q0 41 -18.5 58.5t-51.5 17.5 q-23 0 -52.5 -11t-62.5 -32q-27 -18 -55.5 -48t-56 -65.5t-51 -72.5t-40.5 -70q-23 -49 -22 -67z" />
<glyph unicode="&#xfe;" horiz-adv-x="1222" d="M39 -289q0 -20 8 -33.5t31 -25.5q39 -16 74 -17q68 0 133 50q20 16 26 34.5t6 38.5v70q0 55 9.5 109.5t40.5 93.5l4 4q37 12 96 24q92 8 175 39t181 64q127 55 226.5 112.5t168 121t104.5 134t36 152.5q0 94 -37 159.5t-98.5 106.5t-143.5 59.5t-174 18.5 q-84 0 -161.5 -9t-155.5 -20q16 59 35.5 139.5t50.5 211.5q0 4 2 6q0 4 1 5t1 5q0 39 -30 56.5t-66 17.5q-49 0 -95.5 -23.5t-54.5 -64.5q-53 -203 -109.5 -406t-108.5 -407.5t-98 -410.5t-77 -415zM410 309l106 426q35 16 80 27.5t93 17.5t95 9.5t88 3.5q98 0 175 -18.5 t108 -63.5q-25 -74 -83 -134.5t-135 -109.5t-163 -86t-166 -66l-157 -18h-19q-8 0 -16 4z" />
<glyph unicode="&#xff;" horiz-adv-x="1007" d="M4 -195q0 -47 24.5 -87t59.5 -40q59 0 108.5 26t102.5 73q72 63 139.5 122.5t142 135.5t161.5 180t196 256q68 92 120 168t99 154q12 16 23.5 33.5t23.5 35.5l62 121q0 29 -22.5 51.5t-55.5 36.5q-23 10 -47.5 17.5t-46.5 7.5q-47 0 -79 -41t-54 -90q-10 -37 -35 -90.5 t-65 -116t-94 -130t-122 -130.5l-14 2q-104 117 -170 248t-101 241q-14 31 -36.5 43t-49.5 12q-12 0 -27.5 -2t-33.5 -8q-45 -14 -79 -49t-34 -70q0 -12 6 -24l3 -2q31 -68 65.5 -126t67 -108.5t60.5 -91.5t44 -71q20 -25 44 -58t42.5 -63.5t30.5 -55t12 -32.5v-2l-2 -5 q-25 -49 -76 -89t-115.5 -85t-134 -102t-131.5 -139q-12 -25 -12 -56zM324 1290q10 -47 55 -78.5t119 -33.5q82 0 133 27.5t51 74.5v2q-6 47 -52 80t-128 33h-4q-78 0 -126 -29t-48 -76zM729 1292q2 -47 47 -79.5t123 -34.5q78 0 131 27.5t53 74.5v2q-4 47 -52 80t-124 33 h-10q-76 0 -122 -28t-46 -75z" />
<glyph unicode="&#x152;" horiz-adv-x="2424" d="M2 414q0 -20 2 -27q6 -47 21.5 -97t56.5 -110v2q70 -115 174 -172t268 -84q45 -10 86 -13t88 -3q125 0 229.5 23.5t184.5 76.5q25 -16 52.5 -37.5t54 -41t50 -33t42.5 -13.5q57 0 103 8.5t112 18.5h4l633 90q43 4 61.5 10t22.5 11q12 12 17 23t5 34v16q0 10 -2 23h-10 q-20 23 -65.5 29t-80.5 10q-45 0 -94 -8.5t-96 -8.5q-8 0 -14 1t-15 1q-4 0 -22.5 -2t-43 -3t-49 -3t-40.5 -2q-76 -4 -153 -8t-150 -14l-9 2l-18 18l-2 8q2 27 13.5 84.5t24.5 117.5t26.5 112.5t19.5 68.5l4 2h2l12 4h39q14 -2 25 -2h22h43q33 0 67 1t78 4.5t103.5 8.5 t145.5 13q8 0 27.5 1t41 3t40 3t24.5 1q55 8 67.5 35t12.5 55v39q-10 41 -59.5 50.5t-108.5 9.5h-230q-78 0 -155.5 1t-124.5 7l-15 20l-2 8q4 18 15.5 63.5t25 95.5t25.5 94t18 61h-2l6 4l11 4q23 2 35 3t23 2t23.5 2t32.5 1h82l385 17h78q18 0 21 2q6 6 8 6 q47 10 63.5 29.5t16.5 37.5v17q-10 20 -22.5 32.5t-31 19.5t-47 11t-69.5 8q-53 2 -123 6.5t-141.5 7.5t-138 5t-111.5 2h-160h-39q-20 0 -43 2q-43 0 -71.5 -3t-47 -13.5t-31 -29t-22.5 -48.5q-63 59 -128 85.5t-120 35.5h-133q-141 -16 -242.5 -40t-163.5 -59 q-53 -31 -85.5 -51t-49.5 -31q-90 -66 -162.5 -151.5t-124 -181t-79 -195.5t-27.5 -193v-30zM299 342q2 66 23.5 146.5t58.5 164.5t90 166t118.5 150.5t143.5 119t164 70.5q20 6 45.5 10.5t56.5 4.5q59 0 119 -37q51 -37 78 -108t37 -140q2 -16 3 -33.5t1 -34.5 q0 -12 -1 -24.5t-1 -24.5l-25 -147q-25 -98 -74 -195.5t-123.5 -176.5t-176 -129t-230.5 -54q-23 0 -59.5 13t-73.5 32q-82 27 -125 86t-47 133q-2 2 -2 8z" />
<glyph unicode="&#x153;" horiz-adv-x="2238" d="M49 410q0 -29 10.5 -63t21.5 -63.5t21.5 -46t10.5 -10.5t-7 25q27 -41 51.5 -73t51.5 -56.5t58.5 -43t72.5 -34.5q111 -51 238 -51q49 0 108 8t120.5 23.5t118 37t99.5 46.5q31 18 57.5 36.5t51.5 36.5q43 -55 106 -96q78 -53 164 -72.5t184 -19.5q129 0 265.5 29.5 t273.5 74.5h2q33 16 48 59.5t15 84.5t-16 68.5t-51 27.5q-31 0 -72 -13.5t-82 -29.5q-29 -10 -57.5 -20.5t-69.5 -20.5q-86 -18 -162.5 -32.5t-144.5 -14.5q-72 0 -129 21.5t-92 97.5q29 29 83 34t99 5q98 2 195.5 9t188.5 31.5t170 74.5t140 141q31 39 43.5 88t12.5 106 q0 59 -22.5 115.5t-74.5 79.5q-57 27 -131.5 40t-160.5 13q-53 -4 -111.5 -9t-119 -16.5t-119 -28t-107.5 -42.5q-29 -16 -66 -51t-75 -82l-46 57q-23 18 -43 32.5t-47.5 27t-70.5 24.5t-111 26q-49 10 -94 16.5t-90 6.5q-145 0 -303 -70q-176 -92 -284 -229t-120 -297 q-2 -6 -2 -18zM291 461q0 53 23.5 103t70.5 79q37 31 67.5 56.5t60.5 42t63.5 25.5t76.5 9q16 6 48 10.5t69 4.5q47 0 93 -6.5t75 -22.5q66 -23 118 -56.5t52 -87.5l-2 -86q-2 -8 -4 -15t-4 -13q-12 -33 -43 -63.5t-68 -67.5q-4 -4 -6 -7.5t-4 -5.5l-4 -4h-2 q-80 -70 -177.5 -104.5t-201.5 -34.5q-84 0 -158 23q-72 35 -107.5 95t-35.5 126zM1366 612v6q2 39 35 77t77 67t91 47t80 20q41 14 68.5 19.5t47.5 5.5t33.5 -4t26.5 -6h22q33 0 66 -5t59.5 -15.5t42 -25t15.5 -32.5v-8l-72 -105q-29 -25 -48.5 -38t-47 -21t-73.5 -13.5 t-126 -13.5q-100 8 -158.5 14.5t-89.5 11.5t-39 9t-10 10z" />
<glyph unicode="&#x178;" horiz-adv-x="1179" d="M-14 1221q0 -33 14 -68t31 -68q29 -43 59.5 -114.5t58 -149.5t48 -152.5t30.5 -123.5v-8l-84 -488q2 -45 60 -80l18 -18q90 -33 137 -33q43 0 63.5 29.5t36 97.5t34 176.5t59.5 263.5q6 31 11 54.5t13.5 44t22.5 43t37 51.5q74 109 192.5 243t302.5 306q8 6 22.5 17 t28 23.5t23.5 27t10 30.5v8q0 2 -1 3t-1 3l-14 27q-12 23 -46 36t-71 13q-57 0 -100 -45q-137 -147 -265 -291.5t-241 -292.5h-2q-16 29 -37.5 79t-46.5 114q-20 51 -42.5 103.5t-46.5 98.5t-50.5 82.5t-54.5 59.5q-14 4 -34 6t-36 2q-31 0 -61.5 -4t-47.5 -18 q-18 -12 -24 -32t-6 -46v-10zM227 1540q10 -47 55.5 -78.5t118.5 -34.5q82 0 133.5 28t51.5 75v2q-6 47 -52.5 80t-127.5 33h-5q-78 0 -126 -29t-48 -76zM633 1542q2 -47 47 -79.5t123 -35.5q78 0 131 28t53 75v2q-4 47 -52 80t-124 33h-10q-76 0 -122 -28t-46 -75z" />
<glyph unicode="&#x2c6;" horiz-adv-x="698" d="M98 1321q0 -33 11 -53q27 -53 69 -54q27 0 58 25q23 23 37 38t30 32q8 8 16.5 16t20.5 18q43 -4 72.5 -19t83.5 -56q12 -8 24 -14.5t29 -6.5q20 0 43 19q37 27 37 86q0 23 -5.5 41t-11.5 37v-3q-10 20 -18 28.5t-19 14.5q6 -4 -11 15.5t-50 44t-79 46t-99 21.5h-6 q-29 0 -46.5 -18t-27.5 -61q0 -10 -14.5 -20.5t-33 -21t-36.5 -21.5t-27 -21q-18 -16 -32.5 -46t-14.5 -67z" />
<glyph unicode="&#x2dc;" horiz-adv-x="913" d="M180 1280q0 -29 23.5 -49.5t64.5 -20.5q27 0 45.5 14.5t36.5 32.5q10 10 22.5 20.5t20.5 10.5l5 -6t14 -12q20 -23 51 -45.5t90 -22.5q94 0 148.5 37t64.5 143v4q0 25 -27.5 43.5t-58.5 18.5q-25 0 -47.5 -11.5t-32.5 -35.5q-2 -4 -3 -10.5t-3 -10.5q-4 -12 -8 -25.5 t-15 -13.5q-10 0 -18 10.5t-18 22.5v-2q-18 23 -44 45.5t-77 22.5q-33 0 -72 -13.5t-75 -36t-60.5 -50t-26.5 -56.5v-4z" />
<glyph unicode="&#x2000;" horiz-adv-x="962" />
<glyph unicode="&#x2001;" horiz-adv-x="1925" />
<glyph unicode="&#x2002;" horiz-adv-x="962" />
<glyph unicode="&#x2003;" horiz-adv-x="1925" />
<glyph unicode="&#x2004;" horiz-adv-x="641" />
<glyph unicode="&#x2005;" horiz-adv-x="481" />
<glyph unicode="&#x2006;" horiz-adv-x="320" />
<glyph unicode="&#x2007;" horiz-adv-x="320" />
<glyph unicode="&#x2008;" horiz-adv-x="240" />
<glyph unicode="&#x2009;" horiz-adv-x="385" />
<glyph unicode="&#x200a;" horiz-adv-x="106" />
<glyph unicode="&#x2010;" horiz-adv-x="1099" d="M57 563q0 -8 2 -12v-14q4 -16 11.5 -43t21.5 -43q16 -25 57 -33t101 -8q25 0 51.5 1t56.5 1q27 2 53.5 4t55.5 2h4q12 0 65.5 1t115 3t116.5 5t72 7h41q53 0 77.5 3t45.5 18q18 8 23 17t5 26q-10 23 -20.5 43t-20.5 28q-53 49 -135 62.5t-176 13.5h-88q-20 0 -42 -2 t-42 -2q-51 0 -110.5 -1t-113 -3t-93 -4t-50.5 -4h2q-41 -8 -63.5 -17.5t-22.5 -40.5v-8z" />
<glyph unicode="&#x2011;" horiz-adv-x="1099" d="M57 563q0 -8 2 -12v-14q4 -16 11.5 -43t21.5 -43q16 -25 57 -33t101 -8q25 0 51.5 1t56.5 1q27 2 53.5 4t55.5 2h4q12 0 65.5 1t115 3t116.5 5t72 7h41q53 0 77.5 3t45.5 18q18 8 23 17t5 26q-10 23 -20.5 43t-20.5 28q-53 49 -135 62.5t-176 13.5h-88q-20 0 -42 -2 t-42 -2q-51 0 -110.5 -1t-113 -3t-93 -4t-50.5 -4h2q-41 -8 -63.5 -17.5t-22.5 -40.5v-8z" />
<glyph unicode="&#x2012;" horiz-adv-x="1099" d="M57 563q0 -8 2 -12v-14q4 -16 11.5 -43t21.5 -43q16 -25 57 -33t101 -8q25 0 51.5 1t56.5 1q27 2 53.5 4t55.5 2h4q12 0 65.5 1t115 3t116.5 5t72 7h41q53 0 77.5 3t45.5 18q18 8 23 17t5 26q-10 23 -20.5 43t-20.5 28q-53 49 -135 62.5t-176 13.5h-88q-20 0 -42 -2 t-42 -2q-51 0 -110.5 -1t-113 -3t-93 -4t-50.5 -4h2q-41 -8 -63.5 -17.5t-22.5 -40.5v-8z" />
<glyph unicode="&#x2013;" horiz-adv-x="1177" d="M49 692q0 -74 78 -133q12 -4 34.5 -7t39.5 -3h14q10 0 16 2q51 16 114 24.5t120 16.5q25 2 54.5 7t53.5 11q20 4 55.5 7.5t76 6.5t86 5t88.5 6q53 2 98 4t74 6q31 4 65.5 16.5t50.5 40.5l-2 -2q23 33 23 68q0 27 -17.5 50.5t-43 39.5t-56.5 26.5t-57 10.5q-37 0 -99.5 -4 t-130 -10.5t-129 -12.5t-98.5 -10q-12 -2 -38.5 -4t-59.5 -3t-69 -3t-66 -4q-29 0 -52.5 -1t-35.5 -3q-35 -4 -69 -13.5t-59.5 -27t-42 -44t-16.5 -63.5z" />
<glyph unicode="&#x2014;" horiz-adv-x="1552" d="M51 698q0 -74 78 -135q12 -4 34.5 -7t41.5 -3h14q4 0 17 4q27 6 72.5 12t101 13.5t116 13.5t113.5 12q59 6 94 9.5t82 11.5q20 4 59 7t88.5 6t104.5 6t111 5q76 4 139 6.5t94 6.5t66.5 15t52.5 40q10 16 17 30t7 37q0 27 -18 50.5t-45 40t-57.5 26.5t-57.5 10 q-37 0 -118.5 -4t-172 -9t-170 -11t-116.5 -10q-16 -2 -68.5 -6.5t-121 -8.5t-141.5 -8t-130 -6q-18 -2 -33.5 -3t-30.5 -1h-34q-35 -4 -69 -13.5t-60.5 -28t-43 -45t-16.5 -63.5z" />
<glyph unicode="&#x2018;" horiz-adv-x="548" d="M88 1260q0 -49 12.5 -102.5t31 -103.5t36.5 -93t31 -74q4 -4 5 -9.5t5 -9.5l-2 6q16 -37 34.5 -76.5t45.5 -70.5q39 -51 82 -51q25 0 46 12t44 33q20 18 37.5 57t17.5 74t-16 57v-2q-10 16 -16.5 19.5t-10.5 3.5h-6q-4 0 -6 2q-4 0 -4 2q-23 53 -39.5 112.5t-24.5 118.5 q-2 4 -2 19v100q0 41 -8 83t-37 77h2q-10 14 -27.5 20t-35.5 6q-35 0 -78 -19t-60 -36q-33 -29 -45 -68.5t-12 -86.5z" />
<glyph unicode="&#x2019;" horiz-adv-x="534" d="M43 895q0 -78 34 -100.5t97 -22.5q18 0 43 10.5t48.5 26.5t38.5 37.5t15 44.5q0 12 -5 21.5t-9 17.5q-2 0 -3 2l-1 2v4q16 57 37.5 112.5t52.5 108.5q10 16 21.5 29.5t23.5 28.5q35 39 61.5 81t26.5 103q0 27 -20.5 47t-49 35.5t-58 24t-46.5 8.5q-68 0 -115 -51.5 t-79.5 -123t-53 -147.5t-32.5 -125q-2 -10 -3 -12t-1 -8q-8 -41 -15.5 -80t-7.5 -74z" />
<glyph unicode="&#x201a;" horiz-adv-x="534" d="M43 -203q0 -78 34 -100.5t97 -22.5q18 0 43 10.5t48.5 27t38.5 38t15 43.5q0 12 -5 21.5t-9 17.5q-2 0 -3 2l-1 2v4q16 57 37.5 112.5t52.5 108.5q10 16 21.5 29.5t23.5 28.5q35 39 61.5 81t26.5 103q0 27 -20.5 47.5t-49 35.5t-58 23.5t-46.5 8.5q-68 0 -115 -51.5 t-79.5 -123t-53 -147.5t-32.5 -125q-2 -10 -3 -12t-1 -8q-8 -41 -15.5 -80t-7.5 -74z" />
<glyph unicode="&#x201c;" horiz-adv-x="925" d="M94 1272q0 -49 13.5 -102.5t33 -104.5t40 -94t34.5 -74q4 -4 5 -9t5 -9l-2 6q18 -39 39 -79t49 -73q39 -49 88 -49q45 0 76 23.5t41 85.5l-104 448l1 4t1 8q0 18 -6.5 57.5t-18.5 78t-32.5 68.5t-49.5 30q-18 0 -40.5 -6t-44 -14.5t-39 -18.5t-25.5 -18 q-35 -29 -49.5 -70t-14.5 -88zM467 1378q0 -92 32.5 -202.5t83 -206t109 -160t111.5 -64.5l96 23q4 10 4 37q0 33 -9 77t-21.5 91t-28 93t-27.5 83q-12 51 -20.5 78.5t-13.5 43t-9 24t-8 24.5q0 27 -1 50.5t-9 48t-24.5 53t-47.5 65.5q-37 45 -80 45t-82 -39 q-29 -27 -42 -68.5t-13 -95.5z" />
<glyph unicode="&#x201d;" horiz-adv-x="927" d="M45 905q0 -78 37 -100.5t104 -22.5q20 0 47 10.5t50.5 27t40 38t16.5 43.5q0 12 -5 21.5t-11 17.5l-2 4v4q16 57 38.5 113.5t55.5 109.5q10 18 23.5 32t25.5 28v-2q35 41 63.5 83t28.5 103q0 27 -21.5 49.5t-52 38t-61.5 23.5t-49 8q-72 0 -122 -52t-86 -126t-57.5 -151 t-33.5 -126q0 -8 -1 -10t-3 -12l2 2q-10 -39 -18.5 -79t-8.5 -75zM369 829q0 -20 8 -34.5t18 -24.5q2 -4 5 -7t10 -20q39 -27 59 -37t45 -10h47q23 0 48.5 3t47.5 24q14 18 39 53t25 64q0 23 -6 30t-15 17l-4 4h-2q10 41 21.5 83t32.5 77q14 23 27 39t28 32q16 20 30.5 40 t24.5 43.5t16.5 55t6.5 78.5q0 66 -29 89.5t-90 23.5q-66 0 -116 -26.5t-81 -92.5q-12 -29 -27.5 -54.5t-31.5 -53.5q-51 -92 -94 -188.5t-43 -207.5z" />
<glyph unicode="&#x201e;" horiz-adv-x="927" d="M45 -166q0 -78 37 -100.5t104 -22.5q20 0 47 10.5t50.5 26.5t40 37.5t16.5 44.5q0 12 -5 21.5t-11 17.5l-2 4v4q16 57 38.5 113.5t55.5 109.5q10 18 23.5 31.5t25.5 28.5v-2q35 41 63.5 83t28.5 103q0 27 -21.5 49.5t-52 37.5t-61.5 23.5t-49 8.5q-72 0 -122 -52.5 t-86 -126t-57.5 -150.5t-33.5 -126q0 -8 -1 -10t-3 -12l2 2q-10 -39 -18.5 -79t-8.5 -75zM369 -242q0 -20 8 -34.5t18 -24.5q2 -4 5 -7t10 -20q39 -27 59 -37t45 -10h47q23 0 48.5 3t47.5 24q14 18 39 53t25 64q0 23 -6 29.5t-15 17.5l-4 4h-2q10 41 21.5 83t32.5 77 q14 23 27 39t28 32q16 20 30.5 40t24.5 43.5t16.5 55t6.5 78.5q0 66 -29 89.5t-90 23.5q-66 0 -116 -26.5t-81 -92.5q-12 -29 -27.5 -54.5t-31.5 -53.5q-51 -92 -94 -188.5t-43 -207.5z" />
<glyph unicode="&#x2022;" horiz-adv-x="565" d="M68 662q0 -92 61 -147.5t145 -55.5q68 0 122.5 28.5t94 75.5t61 107t21.5 123q0 111 -61 166t-164 55q-74 0 -127 -33t-87 -83t-50 -112.5t-16 -123.5z" />
<glyph unicode="&#x2026;" horiz-adv-x="1370" d="M-33 131q0 -23 7.5 -39t17.5 -31q41 -31 76.5 -42t54.5 -11q29 0 55.5 7.5t46.5 17.5q39 20 64.5 53t27.5 72q0 70 -75 100q-20 10 -43 17.5t-45 7.5q-14 0 -22.5 -1t-20.5 -3q-55 -10 -96.5 -47.5t-47.5 -84.5v-16zM451 125q0 -23 7 -39t17 -31q41 -31 77 -42t54 -11 q29 0 55.5 7t47.5 18q39 20 64.5 53t27.5 72q0 70 -76 100q-20 10 -43 17t-45 7q-14 0 -22.5 -1t-20.5 -3q-55 -10 -96 -47t-47 -84v-16zM936 121q0 -23 7 -39t18 -31q41 -31 76.5 -42t54.5 -11q29 0 55.5 7t46.5 18q39 20 64.5 53t27.5 71q0 70 -76 101q-20 10 -42.5 17 t-45.5 7q-14 0 -22 -1t-21 -3q-55 -10 -96 -47t-47 -84v-16z" />
<glyph unicode="&#x202f;" horiz-adv-x="385" />
<glyph unicode="&#x2039;" horiz-adv-x="481" d="M74 637q-4 -41 6 -57.5t29 -26.5l196 -236l6 -6v2q14 -23 27.5 -35t40.5 -18h18q23 0 41.5 16.5t38.5 65.5v-2q4 8 5 13t3 12q4 23 -6 45t-43 53l-129 155l158 103q47 23 66.5 55.5t21.5 50.5q2 4 2 13q0 8 -6 14q-10 39 -23.5 51.5t-42.5 16.5h-6q-35 0 -67 -23 l-244 -160q-33 -14 -59.5 -40.5t-32.5 -61.5z" />
<glyph unicode="&#x203a;" horiz-adv-x="481" d="M39 340q0 -8 6 -14q10 -39 23.5 -51.5t42.5 -16.5h6q33 0 67 23l244 159q33 14 59.5 41t32.5 62q4 41 -6 57t-29 27l-196 235l-6 6v-2q-14 23 -27.5 35t-40.5 19h-18q-23 0 -41.5 -16.5t-38.5 -65.5v2q-4 -8 -5 -13.5t-3 -11.5q-4 -23 6 -45t43 -53l129 -156l-158 -102 q-47 -23 -66.5 -55.5t-21.5 -51.5q-2 -4 -2 -12z" />
<glyph unicode="&#x205f;" horiz-adv-x="481" />
<glyph unicode="&#x20ac;" horiz-adv-x="1280" d="M-51 455q6 -43 13 -74t22 -47q18 -25 59 -35q4 -43 13.5 -74.5t25.5 -62.5l45 -53q74 -98 184.5 -140.5t225.5 -58.5q33 -4 66.5 -8t70.5 -4q154 0 273.5 52t246.5 148q35 29 50.5 47.5t25.5 34.5q0 100 -94 101q-2 0 -19.5 -4.5t-42 -12.5t-51.5 -20.5t-45 -28.5 q-53 -29 -118.5 -58.5t-170.5 -58.5q-18 -6 -76 -6q-33 0 -82 10.5t-141 47.5q-33 31 -62.5 67.5t-45.5 81.5q27 0 88 1t126.5 2t122 3t72.5 6q41 0 68.5 2t45 5.5t29 8.5t21.5 11q18 8 23.5 17.5t5.5 25.5q-10 23 -20.5 43t-20.5 29q-53 49 -135 62t-177 13 q-86 0 -118.5 -2t-53.5 -2h-55q8 23 17.5 45.5t19.5 44.5q4 10 10 20.5t10 20.5q16 2 35 3t37 1h4q12 0 65.5 1.5t115 3.5t116.5 5t72 7h41q53 0 77.5 3t45.5 17q18 8 23 17.5t5 25.5q-10 23 -20 43.5t-21 28.5q-53 49 -135 62.5t-176 13.5h-88q-14 0 -27.5 -1t-27.5 -3 q55 74 110 127q57 61 125 103t140 42h6l184 -133q4 -2 24.5 -13.5t46 -24.5t27.5 -13q47 23 76 54.5t29 55.5q0 8 -2 13q-12 66 -58.5 107.5t-115.5 76.5q-55 29 -96.5 47t-73 29.5t-59 16.5t-58.5 5q-33 0 -78 -7t-98 -23q-143 -88 -261 -207t-204 -265q-23 -2 -39 -2 q-14 0 -21 -2h3q-41 -8 -64 -17t-23 -40q6 -43 13.5 -74t21.5 -47q4 -6 13 -14q-31 -78 -50 -164q-10 0 -16 -1t-10 -1q-41 -8 -63.5 -17.5t-22.5 -39.5z" />
<glyph unicode="&#x2122;" horiz-adv-x="1492" d="M150 1286q0 -10 5 -32.5t17 -46t33.5 -41t54.5 -17.5q4 0 9 1t10 1q25 4 46 9t44 14l2 1t4 1l-8 -91q-10 -86 -16.5 -181t-12.5 -199q10 -53 39 -77t76 -24h8q59 6 85.5 44t41.5 83q-2 12 -2 23v24q0 31 3 62.5t7 66.5q8 82 21.5 169t23.5 147q8 2 25 2h26q29 0 54.5 2 t54.5 12h2q43 14 64.5 54t29.5 71q4 12 4 18q0 14 2 21v10q0 20 -8 40t-37 42q-27 4 -47 5t-41 1q-61 0 -131 -9t-140.5 -22.5t-137 -31t-121.5 -33.5q-4 -2 -8.5 -5t-8.5 -5q-18 -10 -31.5 -19.5t-21.5 -19.5t-13 -26.5t-7 -43.5zM670 721q0 -35 19.5 -69t72.5 -38 q12 -4 18 -4h19q41 0 71.5 19.5t55.5 48.5q12 31 19 51.5t12.5 34.5t9.5 25.5t8 21.5q4 23 10 42t8 26v2q6 -35 9.5 -74t7.5 -86q23 -41 52.5 -56.5t63.5 -15.5q33 0 63 11.5t46 23.5q25 20 39 44t29 60v-2q10 16 16 35t16 35q6 -70 19 -143q8 -51 37.5 -71.5t66.5 -20.5 q24 0 55 10q82 31 91 110q0 4 1 8.5t1 8.5q0 14 -7 30v21q-4 20 -7 39.5t-5 44.5t-3 57.5t-1 81.5q0 27 -1 49.5t-1 40.5l-2 -2q0 47 1 87t5 106q2 10 4 19t2 20q2 6 6 22v23q0 8 -4 28q-10 47 -53 70t-90 23q-49 0 -90 -23q-41 -35 -51.5 -60.5t-18.5 -52.5q-4 -8 -6 -16 t-8 -18q-23 -49 -42.5 -88t-35.5 -74q0 16 -1 30.5t-1 28.5q0 49 6 105q2 6 2 18q0 8 -4 25v-2q-6 39 -47 66.5t-88 27.5t-93 -30t-61 -101l4 6q-16 -37 -31.5 -71t-29.5 -68q-51 -117 -94 -221.5t-82 -221.5l2 2q-4 -10 -5 -19t-3 -20q0 -4 -1 -10t-1 -10z" />
<glyph unicode="&#x25fc;" horiz-adv-x="1064" d="M0 0v1065h1065v-1065h-1065z" />
<glyph unicode="&#xfb02;" horiz-adv-x="1288" d="M74 4q0 -33 16 -56.5t64 -23.5q37 0 61 8q57 12 87 36t43 55.5t16.5 68.5t7.5 78q12 98 24.5 225t52.5 258q31 14 70 15q10 0 21.5 -1t25.5 -1q10 0 21.5 1t23.5 3q57 8 102.5 12t78 9t54 15.5t34.5 30.5q16 25 16 54q0 20 -4 39.5t-4 35.5q0 53 -19.5 62.5t-66.5 9.5 q-35 -6 -73 -11t-76 -10.5t-71.5 -7.5t-56.5 -2l5 46t14.5 100.5t24 100.5t34.5 46q31 0 77 -1t94 -5t91 -11t68 -20q2 0 20.5 -2t43 -4t50 -5t41.5 -5q-10 -47 -19 -99.5t-18.5 -97.5t-15.5 -75.5t-8 -36.5q-10 -51 -15 -76t-8.5 -39t-6.5 -27.5t-9 -42.5 q-12 -47 -21.5 -91t-18.5 -89t-20.5 -95t-27.5 -112q-10 -41 -22.5 -84t-12.5 -90q0 -43 22.5 -76.5t88.5 -33.5h20q72 10 121 50t49 118l6 112q27 285 84.5 551t143.5 508q4 10 5 15t1 7q0 43 -36 63.5t-87 20.5q-29 0 -109 -22q-6 -2 -14 -6q-35 20 -48 23t-22 3h-69 q-27 0 -48.5 -1t-41.5 -1h-39q-31 0 -93.5 -1t-132 -3t-134 -3t-99.5 -1q-31 -6 -55.5 -18.5t-44 -46t-35.5 -94t-33 -164.5q-10 -172 -41 -303.5t-63.5 -252t-58 -246.5t-25.5 -286z" />
</font>
</defs>
</svg>
