<?xml version="1.0" encoding="UTF-8" standalone="no"?>
<svg width="41px" height="41px" viewBox="0 0 41 41" version="1.1" xmlns="http://www.w3.org/2000/svg" xmlns:xlink="http://www.w3.org/1999/xlink" xmlns:sketch="http://www.bohemiancoding.com/sketch/ns">
    <!-- Generator: Sketch 3.4.2 (15857) - http://www.bohemiancoding.com/sketch -->
    <title>Imported Layers</title>
    <desc>Created with Sketch.</desc>
    <defs></defs>
    <g id="Page-1" stroke="none" stroke-width="1" fill="none" fill-rule="evenodd" sketch:type="MSPage">
        <g id="Desktop-HD-Copy-2" sketch:type="MSArtboardGroup" transform="translate(-99.000000, -14.000000)">
            <g id="Imported-Layers" sketch:type="MSLayerGroup" transform="translate(100.000000, 15.000000)">
                <path d="M19.5360195,39.0720391 C8.74676435,39.0720391 0,30.3252747 0,19.5360195 C0,8.74676435 8.74676435,0 19.5360195,0 C30.3252747,0 39.0720391,8.74676435 39.0720391,19.5360195 C39.0720391,30.3252747 30.3252747,39.0720391 19.5360195,39.0720391 Z" id="Fill-1" sketch:type="MSShapeGroup"></path>
                <path d="M39.0720391,19.5360195 C39.0720391,30.3252747 30.3252747,39.0720391 19.5360195,39.0720391 C8.74676435,39.0720391 0,30.3252747 0,19.5360195 C0,8.74676435 8.74676435,0 19.5360195,0 C30.3252747,0 39.0720391,8.74676435 39.0720391,19.5360195 L39.0720391,19.5360195 Z" id="Stroke-2" stroke="#FFFFFF" sketch:type="MSShapeGroup"></path>
                <path d="M21.7328449,29.0637363 L21.7460317,29.0612943 C23.4735043,28.7135531 24.9753358,27.9697192 26.0893773,26.9098901 C26.3091575,26.7003663 26.4302808,26.4214896 26.4302808,26.1240537 C26.4302808,25.8271062 26.3091575,25.5482295 26.0893773,25.3387057 C25.8715507,25.1316239 25.582906,25.0173382 25.2757021,25.0173382 C24.9689866,25.0173382 24.6798535,25.1311355 24.4625153,25.3387057 C23.3269841,26.4185592 21.4993895,27.0637363 19.573138,27.0637363 C16.2656899,27.0637363 13.5746032,25.2429792 13.5746032,23.0051282 C13.5746032,21.7313797 14.4903541,20.5181929 16.0283272,19.7474969 C16.83663,20.014652 17.9487179,20.1616606 19.173138,20.1616606 C21.3269841,20.1616606 23.6454212,19.6615385 23.6454212,18.5636142 C23.6454212,17.4652015 21.3269841,16.9650794 19.173138,16.9650794 C17.960928,16.9650794 16.8571429,17.1096459 16.0503053,17.3724054 C15.1443223,16.7687424 14.6471306,15.9868132 14.6471306,15.1628816 C14.6471306,13.4383394 16.8859585,11.9819292 19.5360195,11.9819292 C20.9391941,11.9819292 22.2822955,12.3863248 23.2200244,13.0920635 C23.425641,13.246398 23.6717949,13.3279609 23.9321123,13.3279609 C24.2866911,13.3279609 24.615873,13.17558 24.8361416,12.9098901 C25.028083,12.6788767 25.1145299,12.3897436 25.0798535,12.0962149 C25.0446886,11.7992674 24.8903541,11.5340659 24.645177,11.3494505 C23.2888889,10.3296703 21.4739927,9.76800977 19.5360195,9.76800977 C15.5667888,9.76800977 12.3379731,12.1880342 12.3379731,15.1628816 C12.3379731,16.3565324 12.8664225,17.5203907 13.8319902,18.4634921 C12.1973138,19.6449328 11.2654457,21.2888889 11.2654457,23.0051282 C11.2654457,25.7484737 13.6952381,28.2178266 17.1741148,29.0105006 L17.1873016,29.0129426 C17.1873016,29.0129426 18.9641026,29.6327228 21.7328449,29.0637363" id="Fill-3" fill="#FFFFFF" sketch:type="MSShapeGroup"></path>
            </g>
        </g>
    </g>
</svg>